<svg id="Capa_1" data-name="Capa 1" xmlns="http://www.w3.org/2000/svg" viewBox="0 0 119.67 99.78"><defs><style>.cls-1{fill:#fff;}</style></defs><title>img-topics-white</title><path class="cls-1" d="M72,54.92V43.31c0-8.34,0-16.67,0-25,0-1.89-.52-2.56-2.46-2.55q-18.45.09-36.9,0c-2.06,0-2.6.75-2.59,2.7q.11,25.26,0,50.5c0,2.21.66,3,2.91,3,7.68-.1,15.37,0,23.06-.06a6.54,6.54,0,0,1,4.59,1.61C64.22,76.34,68,79,71.87,81.86c-1,0-1.73.12-2.49.13Q50.68,82,32,82c-4.69,0-6.64-2-6.64-6.64q0-29.37,0-58.75c0-5.24,1.78-7,7-7H70.19c4.76,0,6.6,1.84,6.61,6.63q0,16.52,0,33C76.8,53.26,76.59,53.51,72,54.92ZM50.49,79.79l1.11,0c.63-.94,1.78-1.9,1.74-2.81a3.32,3.32,0,0,0-2.15-2.25,1.9,1.9,0,0,0-2.42,2.18C48.9,77.94,49.89,78.84,50.49,79.79Z"/><path class="cls-1" d="M67.31,68.23Q63,62.45,58.66,56.7c-.67-.91-1.39-1.78-2.08-2.68-1.21-1.54-1.39-3.26.05-4.58s3.26-.69,4.55.57c1.63,1.57,3.08,3.31,4.58,5,3.78,4.24,3.78,4.24,8.76,1.53,1.78-1,3.54-1.95,5.34-2.87C83.12,52,84.67,52.17,86.8,55c2.49,3.36,4.54,7,6.94,10.46,1.4,2,3.12,3.78,4.65,5.69a35.81,35.81,0,0,1,3.48,4.62c.95,1.68.33,3.35-1.15,4.52-3.8,3-7.63,6-11.51,8.89-2,1.52-4,1.31-5.51-.73-1.28-1.78-2.1-3.89-3.27-5.77a3.66,3.66,0,0,0-2-1.72c-7.1-1-12-5.8-17.15-10-1.25-1-2.72-2.62-.85-4.26a3.76,3.76,0,0,1,3.08-.29,16.77,16.77,0,0,1,3.51,2ZM96,72.82,83,82.83l3.69,4.74,12.94-10Z"/><path class="cls-1" d="M58.8,61.36c-2.63,1.73-5.28,1.12-7.77-.26a16.13,16.13,0,0,1-8.34-11.89,4.13,4.13,0,0,0-2-3,8.73,8.73,0,0,1-3-3.92c-1.31-3.64-2.26-7.41-3.3-11.14-1.17-4.19.55-7.4,4.31-7.94.63-.09,1.35.46,2,.72-.59.49-1.14,1.36-1.77,1.42-2.81.27-4.09,1.83-3.21,4.73,1,3.17,2.2,6.25,3.37,9.35a18.93,18.93,0,0,0,1.61,3.51c1.35,2.07,3.58,2.11,4.59-.1a128.55,128.55,0,0,0,5.07-12.55c1-2.95-.38-4.5-3.43-4.92-.5-.07-.91-.86-1.36-1.32.55-.36,1.12-1.05,1.65-1a5.64,5.64,0,0,1,4.9,5.22,17.34,17.34,0,0,1-.84,4.23c-.9,3.18-1.76,6.39-2.89,9.48a9.92,9.92,0,0,1-2.6,3.93,3.22,3.22,0,0,0-1.24,3.34,13.53,13.53,0,0,0,6.91,10c1.47.83,3.51.63,5.29.91l2.08.33Z"/><path class="cls-1" d="M53.83,54.12c-3.85-3-4.92-6.86-3.46-10.64,1.39-3.62,4.46-5.38,8.69-5,.87.07,1.84-.31,2.63,0a5,5,0,0,1,2.74,1.77,2.81,2.81,0,0,1-1.14,2.48,3.71,3.71,0,0,1-3-.87,4.78,4.78,0,0,0-7.69,1.8c-.66,1.71-.35,3.88-.17,5.81A27.33,27.33,0,0,0,53.83,54.12Z"/><path class="cls-1" d="M59.12,37.13c1.25-2,3.3-2.44,5.42-1.51a5.65,5.65,0,0,1-3.05,10.77A4.86,4.86,0,0,1,57.19,41c2,3,4,5.64,7.6,3.25a3.87,3.87,0,0,0,1.62-4.89C65.09,36.1,62.4,35.88,59.12,37.13Z"/></svg>