<svg id="Capa_1" data-name="Capa 1" xmlns="http://www.w3.org/2000/svg" viewBox="0 0 119.67 99.78"><defs><style>.cls-1{fill:#fff;}</style></defs><title>img-topics-white</title><path class="cls-1" d="M24,41.09a4.62,4.62,0,0,1-.42-.91A1.65,1.65,0,0,1,25,38.07c.87-.09,1.74-.14,2.61-.2l9.71-.67c2.22-.16,4.43-.36,6.65-.47s4.63-.33,6.94-.23a8.14,8.14,0,0,1,7.51,5.16,7.35,7.35,0,0,1,.61,2.78c0,.32-.07.42-.39.42-5,0-9.93,0-14.89-.06l-10.72,0-9.57-.11a1.75,1.75,0,0,1-1.7-1.25,1.67,1.67,0,0,1,.95-2,4.48,4.48,0,0,1,1-.19Z"/><path class="cls-1" d="M65.13,34.88a4.93,4.93,0,1,1-5,4.89A4.88,4.88,0,0,1,65.13,34.88Z"/><path class="cls-1" d="M72.43,53.47V46.93c0-.72,0-.72-.72-.72H17c-.61,0-.61,0-.61.6,0,2.21,0,4.42,0,6.63,0,.43.12.54.54.54H42.3v0H72.43Z"/><path class="cls-1" d="M103,42.58c-.18-1.8-.42-3.6-.7-5.39-.31-2-.64-4-1.08-6-.4-1.76-.94-3.49-1.44-5.23a31,31,0,0,0-2.3-5.64h0l0,0s0,0,0,0l-.89-1.51h0c-.19-.41-.6-.79-.9-.79H79.46L79,18a41.33,41.33,0,0,1,5.37,9.23c.12.28.29.54.45.85l.38,1.16.06.24c.57,2.06,1.25,4.11,1.66,6.2a58.83,58.83,0,0,1,.7,5.93A33.83,33.83,0,0,1,87.27,50c-.28,1.74-.71,3.46-1.13,5.17a36.06,36.06,0,0,1-2.64,7,49.59,49.59,0,0,1-4.22,6.94,4.47,4.47,0,0,1-3.44,2H38.6a1.84,1.84,0,0,0-.41,0l-.07,0a1.16,1.16,0,0,0-1.06.77A1.86,1.86,0,0,0,36.71,73v8.51s0,.06,0,.09c0,.21,0,.43,0,.64a1.85,1.85,0,0,0,2,2H39l43.14-.72h.37L90,83.37l4.58-.08,3.46,0a1.77,1.77,0,0,0,1.67-2.11c-.19-.73-.39-1.46-.59-2.19-.61-2.25-1.22-4.49-1.82-6.74-.1-.37-.34-.77-.25-1.09a.83.83,0,0,0,0-.26l.3-.24,2.23-4.76.24-.54h0a40.36,40.36,0,0,0,1.92-5.68,48.6,48.6,0,0,0,1.37-8A49.4,49.4,0,0,0,103,42.58Z"/><path class="cls-1" d="M81.64,35.41c-.06-.38-.13-.76-.2-1.15l-.11-.83-.43-1.88-.41-1.49c-.47-1.29-.9-2.59-1.41-3.86A22,22,0,0,0,75,19.55a11.12,11.12,0,0,0-6.88-3.92,8.71,8.71,0,0,0-4.54.63,13.45,13.45,0,0,0-5.34,4.29,25,25,0,0,0-3.2,5.5c-.39.88-.7,1.81-1.09,2.83a10.82,10.82,0,0,1,4.43-1.26c.13,0,.28-.2.36-.34.29-.54.54-1.1.84-1.64a16.08,16.08,0,0,1,2.93-4,7.8,7.8,0,0,1,3.42-2,5,5,0,0,1,4,.77A13.59,13.59,0,0,1,74.7,26a34,34,0,0,1,1.57,3.79,29.72,29.72,0,0,1,1,3.34,28.16,28.16,0,0,1,.53,3.05c.19,1.49.4,3,.46,4.47a38,38,0,0,1-.7,9.46c-.2.95-.36,1.9-.61,2.83a26.56,26.56,0,0,1-2.72,6.7,12.89,12.89,0,0,1-4.32,4.78,5,5,0,0,1-4.93.41,9.77,9.77,0,0,1-3.17-2.43.87.87,0,0,0-.53-.24H57.17l-.35,0a18.8,18.8,0,0,0,3,3.78,11,11,0,0,0,5.17,3,8.91,8.91,0,0,0,6.13-.73A13.69,13.69,0,0,0,76,63.93a9.28,9.28,0,0,0,.81-1.06h0l.69-1.13h0v0l.8-1.57h0c.06-.15.17-.39.28-.63l.3-.61a1.14,1.14,0,0,0,.09-.19c.1-.32.26-.62.37-.94.54-1.7,1.12-3.39,1.6-5.11a21.7,21.7,0,0,0,.58-3.1c.22-1.73.45-3.47.52-5.22A43.05,43.05,0,0,0,81.64,35.41Z"/></svg>