<svg id="Capa_1" data-name="Capa 1" xmlns="http://www.w3.org/2000/svg" viewBox="0 0 119.67 99.78"><defs><style>.cls-1{fill:#fff;}</style></defs><title>img-topics-white</title><path class="cls-1" d="M107.81,76.53c2.78,3.23,2.7,7.31,4.24,10.82l-.69.31a6.32,6.32,0,0,1-.68-1.21c-.64-2-1.23-4.11-1.84-6.17a4.62,4.62,0,0,0-5.11-3.5,1.5,1.5,0,0,0-1,1,2.21,2.21,0,0,0,.64,1.51c.29.31.92.28,1.35.49a1.77,1.77,0,0,1,1,2.3,1.56,1.56,0,0,1-1.86,1.14,1.8,1.8,0,0,1-1.63-1.91A3.37,3.37,0,0,0,102,79.9l-7.39,7.36-5-4.29A13.21,13.21,0,0,1,89,84.91c-.21.37-.71.88-1,.83a2.07,2.07,0,0,1-1.21-.94c-.11-.2.29-.86.61-1.09,1.59-1.12,1.8-3.25.39-5.09a5.6,5.6,0,0,0-2.72,3.26c-.14.31.29.84.36,1.29s.08,1-.09,1.11a2.44,2.44,0,0,1-1.5.16,1.16,1.16,0,0,1-.46-1c.57-1.35,1.24-2.65,1.91-4,.33-.62,1.13-1.27.36-1.91a2.88,2.88,0,0,0-2-.39,3.76,3.76,0,0,0-3.43,3.09c-.49,2-1.07,3.9-1.64,5.84-.16.54-.43,1.05-.76,1.84-.7-2.1,1.59-9.08,3.61-11.44A16.92,16.92,0,0,1,78.34,61,16,16,0,0,1,85,51.83a17,17,0,0,1,22.78,24.7Zm-8,3.39c1.08-2,1-2.17-.86-3.45l-.89,3.14-1.83,4.08.44.22ZM98,59.35a4.53,4.53,0,0,0-.86.51,6.27,6.27,0,0,1-4.85,1.76c-3.59,0-5.27,3.11-3.46,6.23.3.53.53,1.09.8,1.64,1.15,2.33,4.23,3.71,6.32,2.78,2.87-1.27,3.93-3.87,4.57-6.65.16-.72-.54-1.59-.6-2.41A5.94,5.94,0,0,0,98,59.35ZM88,61.52c1.64-.29,3.16-.62,4.7-.81a5.93,5.93,0,0,0,4-1.67,16.69,16.69,0,0,1,1.46-1.24l2,2.35c-.1-3.75-2.32-5.43-6.61-5.26C89.7,55,87.75,57.46,88,61.52Zm6.54,23.53a4.55,4.55,0,0,0,.59-4.3,8.41,8.41,0,0,1,0-2.24,2.15,2.15,0,0,0-.3-1.09.8.8,0,0,0-.79-.07c-.24.27-.55.84-.43,1a3.19,3.19,0,0,1,.07,2.84C93.22,82.67,93.82,83.79,94.49,85.05Zm3-12.11a13.38,13.38,0,0,1-3.43.67,13,13,0,0,1-3.28-1.09c.43,1.15,2.57,2.85,3.44,2.88S97.05,74,97.48,72.94Zm-7.71,4c-1,2.79.18,5.38,2.94,6.87C91.71,81.49,90.74,79.21,89.77,76.94Zm8.54-2-.43-.28-2.72,1.83,2.18,1.61Zm-5,1.45L90.7,74.65l-.44.28,1.16,3.18Z"/><path class="cls-1" d="M24.21,78.52a13.77,13.77,0,0,1-8.51-2.26,6.48,6.48,0,0,1-3-3.86,2.84,2.84,0,0,0-1.67-1.92c-3-1.52-3.84-2.93-3.29-6.3.52-3.19.15-6.38.39-9.55C8.73,47.05,16,40.38,23.6,40.25,31,40.13,36.19,43.5,39.42,50c1.36,2.74,1.28,5.74,1.26,8.73a33.12,33.12,0,0,0,.45,5.8,5.19,5.19,0,0,1-3.29,5.87A3.79,3.79,0,0,0,35.45,73c-.51,1.87-2.09,3-3.73,3.89A13.46,13.46,0,0,1,24.21,78.52Zm-5.34-22c-.6.69-1.27,1.35-1.81,2.11a20.3,20.3,0,0,0-3.53,11.74A5.57,5.57,0,0,0,15.66,75c4.09,3.44,12.94,3.48,17.05,0a4.91,4.91,0,0,0,2.15-3.55,20.29,20.29,0,0,0-4.23-13.83,12.29,12.29,0,0,0-1.35-1.26C25,59.73,23.36,59.74,18.87,56.53Zm-.27-4.27a5.62,5.62,0,0,0,5.29,5.67,5.68,5.68,0,0,0,5.6-5.75,5.45,5.45,0,1,0-10.89.08Zm17.87,3.09A5.77,5.77,0,0,1,31,56.71c3.47,4,4.53,8.5,4.89,13.2,2.38-.39,4.19-1.91,4.25-3.68A14.71,14.71,0,0,0,36.47,55.35ZM12.48,70c.31-4.73,1.41-9.1,4.37-12.64l-4.77-1.67C9.74,58.25,8.86,61.47,8.55,65A4.85,4.85,0,0,0,12.48,70ZM32.53,47.83a4.71,4.71,0,0,0-.73.07c-1.5.34-1.89,1.11-1.63,2.64a9.33,9.33,0,0,1,.06,3.16,1.53,1.53,0,0,0,1.2,2,3.77,3.77,0,0,0,4.08-.91,4,4,0,0,0,.86-4.43A3.77,3.77,0,0,0,32.53,47.83ZM12.15,51.76a3.88,3.88,0,0,0,4.79,4.05A1.24,1.24,0,0,0,18,54.31a21.85,21.85,0,0,1,.21-4.71A1.17,1.17,0,0,0,17.3,48,3.83,3.83,0,0,0,12.15,51.76Z"/><path class="cls-1" d="M78.74,64.27c1,.06,1.62.14,2.25.14,1.09,0,1.5.56,1.5,1.6s-.5,1.56-1.56,1.53c-.49,0-1,0-1.49,0H38.55c-.5,0-1,0-1.49,0-1,0-1.6-.38-1.6-1.49s.33-1.54,1.44-1.67c2-.22,2-.29,2.05-2.29A9.53,9.53,0,0,1,39,61c.41-3.39-.73-6.18-2.57-9.1-4.68-7.43-5.16-15.47-1.9-23.64a22.62,22.62,0,0,1,2.86-5.19A7.55,7.55,0,0,0,39,18c-.07-2,.17-2.26,2.19-2.15a14.27,14.27,0,0,0,6.7-1.55A26.74,26.74,0,0,1,71.69,15a11.7,11.7,0,0,0,4.5.74c2.43.14,2.53.09,2.47,2.56A6,6,0,0,0,80,22.39a26.13,26.13,0,0,1-.44,32.38,2.92,2.92,0,0,0-.81,1.44C78.7,58.81,78.74,61.42,78.74,64.27ZM77.66,40.71q0-10.64,0-21.29c0-2.59,0-2.6-2.57-2.6H42.74c-.36,0-.71,0-1.07,0-1,0-1.41.49-1.39,1.44,0,.5,0,1,0,1.49V61.48c0,.5,0,1,0,1.49,0,1,.44,1.42,1.41,1.42q6.18,0,12.35,0c1,0,1.44-.41,1.42-1.4,0-1.42,0-2.84,0-4.26C55.56,56.49,57,55,59,55.05a3.46,3.46,0,0,1,3.43,3.6c.07,1.27,0,2.55,0,3.83.05,1.81.12,1.9,2,1.91,3.62,0,7.24,0,10.86,0,2.33,0,2.35,0,2.35-2.4Q77.68,51.35,77.66,40.71ZM36.71,66a1.31,1.31,0,0,0,.19.35.62.62,0,0,0,.38.16q21,0,42.1.06A11.64,11.64,0,0,0,81,66.31s.09-.1.11-.17a.61.61,0,0,0,0-.19C79.49,65.2,38.29,65.2,36.71,66ZM61.1,60.81h0c0-.64,0-1.27,0-1.91-.08-1.68-.68-2.4-2-2.47a2.31,2.31,0,0,0-2.5,2.33,29.47,29.47,0,0,0-.06,3.39c0,2.16.1,2.23,2.29,2.22s2.23-.1,2.27-2.29C61.11,61.66,61.1,61.23,61.1,60.81Z"/><path class="cls-1" d="M61.36,25.65c-.1,1.53-.73,2.31-2.49,2.32s-2.16-.92-2.27-2.24c-2.33-.73-2.52-1-2.36-3.05A1.65,1.65,0,0,1,55.53,21a2,2,0,0,0,1.21-1.15C57,18.45,58,18.5,59,18.49s1.86,0,2.14,1.25c.09.43.45,1.09.74,1.13,2,.25,1.76,1.65,1.78,3C63.71,25.49,62.34,25.23,61.36,25.65Zm-1.53-3.38,0,0a4.4,4.4,0,0,0-.1-1.27A5.11,5.11,0,0,0,59,19.94c-.28.27-.74.51-.8.82a1.94,1.94,0,0,1-1.85,1.72c-.27.05-.56.59-.61.94s.34.75.54.76c1.68,0,2,1.22,2.39,2.68a4.61,4.61,0,0,0,1.13-1.18c.3-.43.52-1.05.93-1.25.66-.31,1.83-.15,1.42-1.28-.16-.45-1.24-.57-1.9-.83A1.93,1.93,0,0,0,59.83,22.27Z"/><path class="cls-1" d="M49.66,41.62c0,.42,0,.85,0,1.27-.07,1.77-.24,1.94-2,2-4.62.22-4.72.09-4.53-4.57.05-1.33.5-2,1.88-1.92.49,0,1,0,1.48,0C49.66,38.43,49.66,38.43,49.66,41.62ZM46.4,39.76c-1.57,0-1.86.28-1.89,1.82s.3,2,1.93,2,1.86-.29,1.89-1.83S48,39.75,46.4,39.76Z"/><path class="cls-1" d="M66.3,33.07v.64c0,2.66,0,2.68-2.76,2.69-3.78,0-3.78,0-3.72-3.85,0-2.45.2-2.6,2.69-2.63.21,0,.42,0,.64,0C66.3,29.92,66.3,29.92,66.3,33.07ZM65,33.1c0-1.54-.31-1.83-1.87-1.85s-2,.28-2,2,.3,1.85,1.85,1.86S65,34.74,65,33.1Z"/><path class="cls-1" d="M46.52,46.94c3.14,0,3.14,0,3.14,3.16V51c0,2.36-.13,2.45-2.57,2.48-3.92,0-3.92,0-3.92-3.53C43.18,46.93,43.18,46.93,46.52,46.94Zm1.81,3.24c0-1.61-.37-2-2-1.91s-1.8.33-1.8,1.92.33,1.94,2,1.9S48.33,51.77,48.33,50.18Z"/><path class="cls-1" d="M46.49,36.4H45.43c-2.09,0-2.21-.18-2.26-2.34-.08-4.26-.08-4.26,4.12-4.14,2.09.06,2.3.26,2.36,2.3,0,.36,0,.71,0,1.06C49.66,36.4,49.66,36.4,46.49,36.4Zm-2-3.25c0,1.62.35,2,2,1.92s1.81-.33,1.81-1.91-.33-1.95-2-1.91S44.51,31.56,44.51,33.15Z"/><path class="cls-1" d="M66.3,50.14c0,.36,0,.71,0,1.06,0,2-.19,2.17-2.15,2.23-4.39.13-4.63-.15-4.33-4.59.09-1.31.59-2,1.93-1.9.42,0,.85,0,1.27,0C66.3,46.93,66.3,46.93,66.3,50.14Zm-3.23,2c1.62,0,1.95-.36,1.9-2,0-1.49-.37-1.79-1.95-1.78s-1.91.34-1.87,2C61.19,51.84,61.47,52.1,63.07,52.09Z"/><path class="cls-1" d="M66.3,41.62v1.06c0,2-.19,2.17-2.15,2.23-4.41.14-4.63-.12-4.34-4.56.08-1.3.57-2,1.92-1.92.42,0,.84,0,1.27,0C66.29,38.42,66.29,38.42,66.3,41.62Zm-1.33,0c0-1.53-.33-1.84-1.87-1.85s-2,.29-2,2,.29,1.84,1.85,1.85S65,43.26,65,41.61Z"/><path class="cls-1" d="M46.34,27.9c-3.17,0-3.17,0-3.17-3.16,0-.43,0-.86,0-1.28.09-1.69.33-1.93,2-2,4.34-.28,4.49-.15,4.45,3.88C49.63,27.9,49.63,27.9,46.34,27.9Zm2-3.17c0-1.74-.27-2-1.94-2s-1.94.32-1.88,2.26c0,1.66.3,1.9,2.05,1.86C48.14,26.83,48.36,26.57,48.33,24.73Z"/><path class="cls-1" d="M49.64,58.71c0,.49,0,1,0,1.48,0,1.12-.53,1.61-1.65,1.74-4.43.51-5,0-4.82-4.49.08-1.75.24-1.91,2-2,.42,0,.85,0,1.27,0C49.66,55.45,49.66,55.45,49.64,58.71Zm-1.31-.2c0-1.78-.22-2-1.88-2s-1.92.22-1.94,2,.26,2.17,2,2.14S48.33,60.32,48.33,58.51Z"/><path class="cls-1" d="M71.48,29.92c.42,0,.85,0,1.27,0,1.32-.06,2,.5,2,1.86.08,5.37.05,4.58-4.34,4.61-1.9,0-2.05-.2-2.11-2.06,0-.43,0-.85,0-1.28C68.29,29.92,68.29,29.92,71.48,29.92Zm-.08,5.16c1.76,0,2-.26,2-1.92s-.28-2-2.21-1.92c-1.71,0-1.93.27-1.9,2S69.58,35.09,71.4,35.08Z"/><path class="cls-1" d="M68.31,41.65c0-3.23,0-3.24,3.29-3.23a4.25,4.25,0,0,1,1.68.08c.55.25,1.25.76,1.37,1.28,1,4.18-1,6.09-5.21,5a2.06,2.06,0,0,1-1.09-1.27A6.66,6.66,0,0,1,68.31,41.65Zm3.12-1.9c-1.83,0-2.09.2-2.12,1.79,0,1.75.19,2,1.87,2.05,1.94,0,2.24-.21,2.24-1.9S73.19,39.77,71.43,39.75Z"/><path class="cls-1" d="M68.31,50.19c0-3.26,0-3.26,3.26-3.26l1.49,0c1,0,1.51.49,1.67,1.51.65,4.31-1,5.91-5.26,4.88a2,2,0,0,1-1.11-1.25A6,6,0,0,1,68.31,50.19Zm5-1.9c-1.09,0-1.94,0-2.78,0a1.11,1.11,0,0,0-1.17,1.42c.12.77.2,1.91.7,2.19,1.86,1.07,3.42,0,3.38-2.21C73.41,49.28,73.34,48.86,73.29,48.29Z"/><path class="cls-1" d="M51.66,50.16c0-3.23,0-3.23,3.25-3.22l1.48,0c1,0,1.39.48,1.42,1.44,0,1.12.13,2.24.2,3.36s-.38,1.61-1.44,1.64c-.56,0-1.13,0-1.69,0C51.66,53.43,51.66,53.43,51.66,50.16Zm3,1.94c1.85,0,2.1-.19,2.13-1.78,0-1.8-.23-2.06-2.08-2.06s-2,.23-2,1.9S52.89,52.08,54.65,52.1Z"/><path class="cls-1" d="M68.29,58.55c0-.29,0-.57,0-.86,0-2.06.16-2.18,2.15-2.24,4.37-.12,4.57.08,4.3,4.44-.1,1.69-.35,2-2,2-.36,0-.71,0-1.07,0C68.28,61.94,68.28,61.94,68.29,58.55Zm3,2.05c1.89,0,2.08-.17,2.1-2s-.16-2.1-2-2.09-2.1.23-2.12,2S69.48,60.6,71.33,60.6Z"/><path class="cls-1" d="M71.41,27.9H71c-2.69,0-2.69,0-2.7-2.76,0-3.75,0-3.75,3.67-3.72,2.63,0,2.76.15,2.79,2.77v.43C74.76,27.9,74.76,27.9,71.41,27.9Zm2-3.09c0-1.87-.19-2-2-2.06s-2.12.18-2.09,2.18c0,1.82.17,1.95,2.11,1.94S73.43,26.71,73.43,24.81Z"/><path class="cls-1" d="M57.82,33.19c0,3.23,0,3.23-3.32,3.21l-1.49,0a1.21,1.21,0,0,1-1.33-1.33c0-1.27,0-2.55,0-3.83,0-.89.55-1.25,1.37-1.28.5,0,1,0,1.49,0C57.83,29.9,57.83,29.91,57.82,33.19Zm-3,1.89c1.76,0,2-.25,2-1.91s-.21-1.91-2-1.92-2.15.21-2.12,2S53,35.09,54.77,35.08Z"/><path class="cls-1" d="M51.66,41.48c0-.36,0-.71,0-1.06.07-1.76.22-1.91,2-2,4.29-.21,4.29-.21,4.21,4.17,0,2.15-.16,2.27-2.27,2.31h-.42C51.65,44.94,51.65,44.94,51.66,41.48Zm5.12.2c0-1.69-.22-1.91-2-1.93s-2.07.2-2.11,1.81c0,1.79.22,2,2.1,2S56.78,43.35,56.78,41.68Z"/><path class="cls-1" d="M57.75,60.48c0-.56,0-1.12,0-1.68.08-.88.58-1.57,1.49-1.34s1.3.91.85,2c-.34.81-.36,1.75-.63,2.59a4.23,4.23,0,0,1-.73,1.05c-.32-.3-.8-.54-.93-.91a6.13,6.13,0,0,1-.11-1.67Z"/></svg>