<svg xmlns="http://www.w3.org/2000/svg" viewBox="0 0 347.96 220.9"><defs><style>.cls-1{isolation:isolate;}.cls-2,.cls-3{fill:#08d5a9;}.cls-24,.cls-3{mix-blend-mode:soft-light;}.cls-4{fill:#005ecb;}.cls-5{fill:#00cfb5;}.cls-6{fill:#237d8e;}.cls-24,.cls-7{fill:#eaa243;}.cls-8{fill:#1ada8e;}.cls-9{fill:#00d59c;}.cls-10{fill:#02c185;}.cls-11{fill:#033185;}.cls-12{fill:#2a3b47;}.cls-13{fill:#15978c;}.cls-14{fill:#d3f1f3;}.cls-15{fill:#fabc44;}.cls-16{fill:#e34b30;}.cls-17{fill:#fff9f9;}.cls-18{fill:#58595b;}.cls-19{fill:#98c6ff;}.cls-20{fill:#ff6243;}.cls-21{fill:#ff9178;}.cls-22{fill:#231f20;}.cls-23{fill:#049fdb;}.cls-25{fill:#ff806e;}.cls-26{fill:#b1da7f;}.cls-27{fill:#c9ced6;}.cls-28{fill:#e3e6ea;}.cls-29{fill:#00bfec;}.cls-30{fill:#a7afba;}.cls-31{fill:#f96e51;}</style></defs><title>portada</title><g class="cls-1"><g id="Capa_1" data-name="Capa 1"><path class="cls-2" d="M193.11,81.74l3.66,6.34a65.71,65.71,0,0,0-48.72,52.51h-1.31L96.56,53.67,79.86,82.59,70.47,53.7,144.38,0,212,49.1Z"/><path class="cls-3" d="M207.7,86.3l-4.31,13.25-13.33,41h-42A65.66,65.66,0,0,1,207.7,86.3Z"/><path class="cls-4" d="M278.42,151.77a65.7,65.7,0,0,1-90,61l-40.65-70.42c.07-.59.17-1.18.28-1.77h42l13.33-41,28.43,49.24h46.53C278.4,149.78,278.42,150.77,278.42,151.77Z"/><path class="cls-5" d="M207.7,86.3l-4.31,13.25-13.33,41h-42A65.66,65.66,0,0,1,207.7,86.3Z"/><path class="cls-6" d="M278.35,148.79H231.82L203.39,99.55,207.7,86.3c1.67-.13,3.36-.19,5.06-.19A65.66,65.66,0,0,1,278.35,148.79Z"/><path class="cls-7" d="M348,81.74l-38.71,67.05h-30.9a65.66,65.66,0,0,0-65.59-62.68c-1.7,0-3.39.06-5.06.19l10.59-32.6L212,49.1l19.86-34.41h77.43Z"/><path class="cls-8" d="M218.29,53.7,207.7,86.3a65.59,65.59,0,0,0-10.93,1.78l-3.66-6.34L212,49.1Z"/><path class="cls-9" d="M207.7,86.3l-4.31,13.25-6.62-11.47A65.59,65.59,0,0,1,207.7,86.3Z"/><polygon class="cls-10" points="146.74 140.59 98.71 140.59 79.86 82.59 96.56 53.67 146.74 140.59"/><path class="cls-11" d="M188.42,212.78a65.69,65.69,0,0,1-41.33-61,64.84,64.84,0,0,1,.68-9.41Z"/><path class="cls-12" d="M193.11,220.9H0L79.86,82.59l18.85,58h48l1,1.77a64.84,64.84,0,0,0-.68,9.41,65.69,65.69,0,0,0,41.33,61Z"/><rect class="cls-13" x="126.4" y="42.72" width="45.29" height="62.55" rx="1.35" ry="1.35"/><path class="cls-14" d="M130.71,48.11h36.66V99.87H130.71Z"/><circle class="cls-13" cx="149.04" cy="62.13" r="6.47"/><path class="cls-15" d="M137.18,42.72H160.9V50a1.35,1.35,0,0,1-1.34,1.35h-21A1.35,1.35,0,0,1,137.18,50V42.72Z"/><rect class="cls-15" x="113.45" y="66.44" width="23.72" height="8.63" rx="1.35" ry="1.35"/><path class="cls-16" d="M137.18,105.27H114.8a1.36,1.36,0,0,1-1.35-1.35V81.54l2.16-2.15V75.07H135v4.32l2.16,2.15Z"/><path class="cls-17" d="M131.79,90.17h-4.32V85.86h-4.31v4.31h-4.31v4.31h4.31V98.8h4.31V94.48h4.32Z"/><circle class="cls-15" cx="141.49" cy="98.8" r="6.47"/><path d="M170.61,103.92a.27.27,0,0,1-.27.27H149v2.15h21.3a2.43,2.43,0,0,0,2.43-2.42V57.84h-2.16Z"/><path d="M170.34,41.64h-42.6a2.42,2.42,0,0,0-2.42,2.43V63.21h2.15V44.07a.27.27,0,0,1,.27-.27h8.36V47h-5.39a1.08,1.08,0,0,0-1.08,1.08v15.1h2.16v-14h4.31V50a2.44,2.44,0,0,0,2.43,2.43h21A2.43,2.43,0,0,0,162,50v-.81h4.32V98.8H151.2V101h16.17a1.08,1.08,0,0,0,1.08-1.08V48.11A1.08,1.08,0,0,0,167.37,47H162V43.8h8.36a.27.27,0,0,1,.27.27V55.66h2.16V44.07A2.44,2.44,0,0,0,170.34,41.64ZM159.83,50a.27.27,0,0,1-.27.27h-21a.27.27,0,0,1-.27-.27V43.8h21.57Z"/><path d="M156.59,62.13A7.55,7.55,0,1,0,149,69.68,7.55,7.55,0,0,0,156.59,62.13Zm-12.94,0A5.39,5.39,0,1,1,149,67.52,5.39,5.39,0,0,1,143.65,62.13Z"/><path d="M150.12,65.37V63.21h2.16V61.05h-2.16V58.9H148v2.15h-2.15v2.16H148v2.16Z"/><path d="M140.41,74h16.18v2.16H140.41Z"/><path d="M158.75,74h5.39v2.16h-5.39Z"/><path d="M142.57,84.78h14v2.15h-14Z"/><path d="M158.75,84.78h5.39v2.15h-5.39Z"/><path d="M140.41,79.39h6.48v2.15h-6.48Z"/><path d="M149,79.39h15.1v2.15H149Z"/><path d="M140.41,46h2.16v2.16h-2.16Z"/><path d="M155.51,46h2.16v2.16h-2.16Z"/><path d="M144.73,46h8.63v2.16h-8.63Z"/><path d="M149,90.17h15.1v2.16H149Z"/><path d="M127.47,84.78h-4.31a1.08,1.08,0,0,0-1.08,1.08v3.23h-3.23a1.08,1.08,0,0,0-1.08,1.08v4.31a1.08,1.08,0,0,0,1.08,1.08h3.23V98.8a1.07,1.07,0,0,0,1.08,1.07h4.31a1.07,1.07,0,0,0,1.08-1.07V95.56h3.24a1.08,1.08,0,0,0,1.08-1.08V90.17a1.08,1.08,0,0,0-1.08-1.08h-3.24V85.86A1.08,1.08,0,0,0,127.47,84.78Zm3.24,6.47V93.4h-3.24a1.08,1.08,0,0,0-1.07,1.08v3.24h-2.16V94.48a1.08,1.08,0,0,0-1.08-1.08h-3.23V91.25h3.23a1.08,1.08,0,0,0,1.08-1.08V86.93h2.16v3.24a1.08,1.08,0,0,0,1.07,1.08Z"/><path d="M141.49,91.25a7.52,7.52,0,0,0-3.23.73V81.54a1.09,1.09,0,0,0-.32-.76l-1.84-1.84V76.13a2.42,2.42,0,0,0,2.16-2.41V67.79a2.42,2.42,0,0,0-2.43-2.42h-21a2.42,2.42,0,0,0-2.42,2.42v5.93a2.42,2.42,0,0,0,2.15,2.41v2.81l-1.84,1.84a1.08,1.08,0,0,0-.31.76v5.39h2.15V82l1.53-1.53h14.65V78.31h-14V76.15h17.25v3.24a1.09,1.09,0,0,0,.32.76L136.1,82V93.52a7.54,7.54,0,0,0,.1,10.66H114.8a.27.27,0,0,1-.27-.27V89.09h-2.15v14.83a2.42,2.42,0,0,0,2.42,2.42h26.69a7.55,7.55,0,1,0,0-15.09ZM135.83,74h-21a.27.27,0,0,1-.27-.27V67.79a.27.27,0,0,1,.27-.27h21a.27.27,0,0,1,.27.27v5.93A.27.27,0,0,1,135.83,74Zm5.66,30.2a5.39,5.39,0,0,1-3.57-9.43l5.28,9.15a5.24,5.24,0,0,1-1.71.28Zm3.58-1.36-5.28-9.15a5.39,5.39,0,0,1,5.28,9.15Z"/><g id="mobilephone-covid19-coronavirus-hospital-message"><rect class="cls-18" x="192.08" y="128.27" width="37.07" height="59.72" rx="4.12" ry="4.12"/><path class="cls-4" d="M197.23,184.9a2.08,2.08,0,0,1-2.06-2.06V133.42a2.07,2.07,0,0,1,2.06-2.06h6.11a2.06,2.06,0,0,1,1.7.9l.85,1.27a2.09,2.09,0,0,0,1.72.92h6a2.08,2.08,0,0,0,1.72-.92l.85-1.27a2.06,2.06,0,0,1,1.71-.9H224a2.06,2.06,0,0,1,2.06,2.06v49.42A2.06,2.06,0,0,1,224,184.9Z"/><path class="cls-4" d="M197.23,184.9H224a2.06,2.06,0,0,0,2.06-2.06V156.07A28.83,28.83,0,0,1,197.23,184.9Z"/><path class="cls-19" d="M208.56,176.66h4.12v4.12h-4.12Z"/><path class="cls-19" d="M200.32,176.66h4.12v4.12h-4.12Z"/><path class="cls-19" d="M216.79,176.66h4.12v4.12h-4.12Z"/><path class="cls-7" d="M205.47,162.24a12.36,12.36,0,1,1-12.36-12.35,12.14,12.14,0,0,1,4.18.73l5.09-3.82-.78,6.46A12.31,12.31,0,0,1,205.47,162.24Z"/><path class="cls-16" d="M191.05,168.42h4.12V164.3h4.12v-4.11h-4.12v-4.12h-4.12v4.12h-4.11v4.11h4.11Z"/><path class="cls-7" d="M231.28,164.64a12.29,12.29,0,0,1-9.68-1.41l-6,2.43,2.37-5.91a11.83,11.83,0,0,1-1.79-3.84,12.36,12.36,0,0,1,8.74-15.13,11.59,11.59,0,0,1,1.17-.25,12.35,12.35,0,0,1,5.22,24.11Z"/><path class="cls-20" d="M229.27,150.79a3.08,3.08,0,0,0-4.36-4.36l-2.19,2.18,4.37,4.37Z"/><path class="cls-21" d="M222.72,148.61l4.37,4.37-2.18,2.18a3.09,3.09,0,0,1-4.37-4.37Z"/><path class="cls-21" d="M233.27,158.13a3.09,3.09,0,0,0,0-6.18h-3.09v6.18Z"/><path class="cls-16" d="M230.18,152v6.18h-3.09a3.09,3.09,0,0,1,0-6.18Z"/><path class="cls-22" d="M196.2,168.42v-3.09h3.09a1,1,0,0,0,1-1v-4.11a1,1,0,0,0-1-1H196.2v-3.09a1,1,0,0,0-1-1h-4.12a1,1,0,0,0-1,1v3.09h-3.08a1,1,0,0,0-1,1v4.11a1,1,0,0,0,1,1H190v3.09a1,1,0,0,0,1,1h4.12A1,1,0,0,0,196.2,168.42Zm-2.06-4.12v3.09h-2.06V164.3a1,1,0,0,0-1-1H188v-2.05h3.08a1,1,0,0,0,1-1V157.1h2.06v3.09a1,1,0,0,0,1,1h3.09v2.05h-3.09A1,1,0,0,0,194.14,164.3Z"/><path class="cls-22" d="M212.68,175.63h-4.12a1,1,0,0,0-1,1v4.12a1,1,0,0,0,1,1h4.12a1,1,0,0,0,1-1v-4.12A1,1,0,0,0,212.68,175.63Zm-1,4.12h-2.06v-2.06h2.06Z"/><path class="cls-22" d="M204.44,175.63h-4.12a1,1,0,0,0-1,1v4.12a1,1,0,0,0,1,1h4.12a1,1,0,0,0,1-1v-4.12A1,1,0,0,0,204.44,175.63Zm-1,4.12h-2.06v-2.06h2.06Z"/><path class="cls-22" d="M215.77,176.66v4.12a1,1,0,0,0,1,1h4.12a1,1,0,0,0,1-1v-4.12a1,1,0,0,0-1-1h-4.12A1,1,0,0,0,215.77,176.66Zm2,1h2.06v2.06h-2.06Z"/><path class="cls-22" d="M209.59,132.39h2.06a1,1,0,0,0,0-2.06h-2.06a1,1,0,0,0,0,2.06Z"/><path class="cls-22" d="M241,149.25a13.39,13.39,0,0,0-10.83-9.75v-7.11a5.14,5.14,0,0,0-5.15-5.15H196.2a5.15,5.15,0,0,0-5.15,5.15V149a13.37,13.37,0,0,0,0,26.42v8.42A5.15,5.15,0,0,0,196.2,189H225a5.14,5.14,0,0,0,5.15-5.14V165.93a12.83,12.83,0,0,0,1.37-.29A13.4,13.4,0,0,0,241,149.25Zm-47.9-16.86a3.1,3.1,0,0,1,3.09-3.09H225a3.09,3.09,0,0,1,3.09,3.09v7c-.34,0-.69,0-1,0v-6a3.09,3.09,0,0,0-3.09-3.09h-6.1a3.06,3.06,0,0,0-2.57,1.37l-.84,1.26a1.08,1.08,0,0,1-.86.46h-6a1,1,0,0,1-.85-.47l-.85-1.24a3,3,0,0,0-2.56-1.38h-6.11a3.1,3.1,0,0,0-3.09,3.09V148.9c-.34,0-.69,0-1,0Zm22,23.79a12.86,12.86,0,0,0,1.62,3.7l-2.17,5.39a1,1,0,0,0,.23,1.11,1,1,0,0,0,1.11.23l5.56-2.23a13.5,13.5,0,0,0,3.52,1.38v17.08a1,1,0,0,1-1,1H197.23a1,1,0,0,1-1-1v-7.58a13.41,13.41,0,0,0,10.3-13,13.22,13.22,0,0,0-3.82-9.36l.72-6a1,1,0,0,0-1.64-.94l-4.65,3.49a9.41,9.41,0,0,0-.91-.25v-15.8a1,1,0,0,1,1-1h6.11a1,1,0,0,1,.85.46l.85,1.25a3,3,0,0,0,2.56,1.37h6a3.07,3.07,0,0,0,2.57-1.36l.84-1.27a1.06,1.06,0,0,1,.86-.45H224a1,1,0,0,1,1,1v6.28l-.41.08a13.4,13.4,0,0,0-9.46,16.4Zm-33.37,6.06a11.31,11.31,0,0,1,15.15-10.65,1.05,1.05,0,0,0,1-.15l3.16-2.36-.49,4a1,1,0,0,0,.31.88,11.2,11.2,0,0,1,3.55,8.23,11.33,11.33,0,1,1-22.65,0Zm46.33,21.63A3.1,3.1,0,0,1,225,187H196.2a3.11,3.11,0,0,1-3.09-3.09v-8.24c.35,0,.69,0,1,0v7.26a3.11,3.11,0,0,0,3.09,3.09H224a3.1,3.1,0,0,0,3.09-3.09V166.05a8.88,8.88,0,0,0,1,0ZM231,163.66a11.28,11.28,0,0,1-8.87-1.3,1.05,1.05,0,0,0-.93-.08l-3.79,1.52,1.48-3.66a1,1,0,0,0-.12-1A11.33,11.33,0,1,1,234.54,162,11.16,11.16,0,0,1,231,163.66Z"/><path class="cls-22" d="M208.56,170.48a1,1,0,0,0,0-2.06h-1a1,1,0,1,0,0,2.06Z"/><path class="cls-22" d="M212.68,168.42h-1a1,1,0,1,0,0,2.06h1a1,1,0,0,0,0-2.06Z"/><path class="cls-22" d="M215.77,170.48h1a1,1,0,1,0,0-2.06h-1a1,1,0,1,0,0,2.06Z"/><path class="cls-22" d="M203.41,141.65h-1a1,1,0,0,0,0,2.06h1a1,1,0,1,0,0-2.06Z"/><path class="cls-22" d="M207.53,143.71a1,1,0,1,0,0-2.06h-1a1,1,0,0,0,0,2.06Z"/><path class="cls-22" d="M210.62,143.71h1a1,1,0,1,0,0-2.06h-1a1,1,0,0,0,0,2.06Z"/><path class="cls-22" d="M233.27,150.92h-2.58a4.11,4.11,0,0,0-6.38-5.09L220,150.19a4.11,4.11,0,0,0,2.91,7,4.39,4.39,0,0,0,.72-.07,4.12,4.12,0,0,0,3.51,2h6.18a4.12,4.12,0,0,0,0-8.24Zm-4.6-3.64a2.05,2.05,0,0,1,0,2.9h0l-.73.73h-.85a5.11,5.11,0,0,0-.55.05l-2.24-2.23,1.46-1.46a2.06,2.06,0,0,1,2.91,0Zm-7.28,7.28a2.06,2.06,0,0,1,0-2.91l1.46-1.46,1.66,1.66A4.13,4.13,0,0,0,223,155s0,.06,0,.1a2.09,2.09,0,0,1-1.59-.58ZM225,155a2.06,2.06,0,0,1,2.06-2.06h2.06v4.12h-2.06A2.06,2.06,0,0,1,225,155Zm8.24,2.06h-2.06V153h2.06a2.06,2.06,0,0,1,0,4.12Z"/></g><rect class="cls-7" x="239.26" y="72.04" width="43.56" height="37.59"/><rect class="cls-23" x="250.19" y="92.28" width="21.74" height="18.39"/><rect class="cls-24" x="282.67" y="50.86" width="27" height="60.41"/><path d="M265,53.3l3.7-2.3a9.32,9.32,0,0,0-15.9,0l3.7,2.3a5,5,0,0,1,8.5,0Z"/><path d="M260.71,43.35a12.92,12.92,0,0,1,11,6.18l3.69-2.3a17.27,17.27,0,0,0-29.46,0l3.69,2.3A12.91,12.91,0,0,1,260.71,43.35Z"/><path d="M263.29,56.74a2.58,2.58,0,1,0-2.58,2.59A2.59,2.59,0,0,0,263.29,56.74Z"/><path d="M280.22,48.58V69.27H236.85v43.92h74.22V48.58Zm-11.38,60.24h-6V94.87h6Zm-10.3,0h-6.48V94.87h6.48Zm21.68,0h-7V90.5H247.71v18.32H241.2V73.64h39Zm26.5,0H284.57V53h22.15Z"/><path class="cls-25" d="M293.47,70.43h4.35V65.7h4.71V61.32h-4.71V56.59h-4.35v4.73h-4.71V65.7h4.71Z"/><path d="M289.49,74.92h4.2v4.22h-4.2Z"/><path d="M297.7,74.92h4.21v4.22H297.7Z"/><path d="M289.49,82.54h4.2v4.23h-4.2Z"/><path d="M297.7,82.54h4.21v4.23H297.7Z"/><path d="M289.49,90.17h4.2v4.22h-4.2Z"/><path d="M297.7,90.17h4.21v4.22H297.7Z"/><path d="M289.49,97.79h4.2V102h-4.2Z"/><path d="M297.7,97.79h4.21V102H297.7Z"/><path d="M245.92,79.76h4.27v4.29h-4.27Z"/><path d="M254.18,79.76h4.28v4.29h-4.28Z"/><path d="M262.44,79.76h4.28v4.29h-4.28Z"/><path d="M270.71,79.76H275v4.29h-4.27Z"/><path class="cls-7" d="M92.78,137.41,95,150.67H71.23l2.21-13.26a1.2,1.2,0,0,1,1.18-1h17A1.18,1.18,0,0,1,92.78,137.41Z"/><path class="cls-7" d="M95,193.43l-2.21,13.26a1.18,1.18,0,0,1-1.17,1h-17a1.2,1.2,0,0,1-1.18-1l-2.21-13.26Z"/><path class="cls-26" d="M68.86,176.8v7.13H65.29a1.19,1.19,0,0,1-1.19-1.19V178a1.2,1.2,0,0,1,1.19-1.19Z"/><path class="cls-26" d="M65,157.57a1.18,1.18,0,0,0-.91,1.15v12.4a1.19,1.19,0,0,0,.91,1.16l3.85,1V156.61Z"/><path class="cls-27" d="M97.37,179.18v11.88A2.38,2.38,0,0,1,95,193.43H71.23a2.38,2.38,0,0,1-2.37-2.37V153a2.38,2.38,0,0,1,2.37-2.37H95A2.38,2.38,0,0,1,97.37,153v26.14Z"/><path class="cls-28" d="M73.61,179.18h19v9.5h-19Z"/><path class="cls-29" d="M92.62,169.67v9.51h-19V167.3h3.56l2.38,5.94,3.56-9.51,2.38,5.94Z"/><path class="cls-29" d="M92.62,155.42v14.25H85.49l-2.38-5.94-3.56,9.51-2.38-5.94H73.61V155.42Z"/><path class="cls-30" d="M125,200.91a2.87,2.87,0,0,1,0,4.06l-1.46,1.46a4.31,4.31,0,0,1-6.09,0l-11.73-11.74a4.3,4.3,0,0,1,0-6.08l1.46-1.46a2.87,2.87,0,0,1,4.06,0l3.07,3.06a1.21,1.21,0,0,1,0,1.69l-1.54,1.53,5.94,5.94,1.54-1.53a1.2,1.2,0,0,1,1.68,0Z"/><path class="cls-16" d="M135.39,173.57v.56a7.32,7.32,0,0,1-6.92,7.42,7.12,7.12,0,0,1-7.34-7.12,15.19,15.19,0,0,1,1.59-6.75l.79-1.57,3.56,1.19v-4.75A11.46,11.46,0,0,1,135.39,173.57Z"/><circle class="cls-31" cx="128.26" cy="174.43" r="2.38"/><path class="cls-16" d="M128.26,143.7a7.14,7.14,0,0,1-.34,2.21h-6.79l-2.38-3.56-3.56,5.94-2.38-4.75h-8.3a7.55,7.55,0,0,1,1.51-4.41l.09-.12a6.5,6.5,0,0,1,9.79-.7l.48.48.47-.48a6.5,6.5,0,0,1,9.79.7l.1.12a7.67,7.67,0,0,1,1.52,4.57Z"/><path class="cls-16" d="M121.13,145.91h6.79a7.57,7.57,0,0,1-2.19,3.46l-9.35,8.42L107,149.37a7.56,7.56,0,0,1-2.53-5.67.86.86,0,0,1,0-.16h8.3l2.38,4.75,3.56-5.94Z"/><path d="M72.42,189.87H93.8V154.23H72.42Zm2.38-2.38v-7.12H91.43v7.12Zm0-9.5v-9.5h1.57l3.21,8L83.15,167l1.53,3.84h6.75V178Zm16.63-21.38v11.88H86.29l-3.21-8L79.51,170,78,166.11H74.8v-9.5Z"/><path d="M81.92,182.74H84.3v2.38H81.92Z"/><path d="M86.68,182.74h2.37v2.38H86.68Z"/><path d="M77.17,182.74h2.38v2.38H77.17Z"/><path d="M124.69,174.43a3.57,3.57,0,1,0,3.57-3.57A3.57,3.57,0,0,0,124.69,174.43Zm4.76,0a1.19,1.19,0,1,1-1.19-1.19A1.19,1.19,0,0,1,129.45,174.43Z"/><path d="M127.39,161.4l-1.51-.43v4.68l-3-1-1.24,2.48a16.46,16.46,0,0,0-1.31,3.72H98.56v-4.75h16.63a2.38,2.38,0,0,0,2.38-2.37v-5.42l9-8.06a8.8,8.8,0,0,0,1.15-11.84l-.09-.13a7.72,7.72,0,0,0-6.14-3.07,7.59,7.59,0,0,0-5.07,1.91,7.63,7.63,0,0,0-5.07-1.91,7.72,7.72,0,0,0-6.15,3.08l-.09.11a8.94,8.94,0,0,0-1.76,5.29,8.82,8.82,0,0,0,2.92,6.56l9,8.06v5.41H98.56V153A3.56,3.56,0,0,0,96,149.65L94,137.21a2.36,2.36,0,0,0-2.34-2h-17a2.37,2.37,0,0,0-2.34,2L70.2,149.65A3.56,3.56,0,0,0,67.67,153v2.64l-3,.74a2.36,2.36,0,0,0-1.8,2.3v12.4a2.38,2.38,0,0,0,1.8,2.31l3,.73v1.45H65.29A2.38,2.38,0,0,0,62.92,178v4.75a2.38,2.38,0,0,0,2.37,2.38h2.38v5.94a3.56,3.56,0,0,0,2.53,3.39l2.07,12.44a2.37,2.37,0,0,0,2.34,2h17a2.38,2.38,0,0,0,2.35-2L96,194.45a3.56,3.56,0,0,0,2.53-3.39V180.37h16.63v4.75h2.38v-4.75a2.39,2.39,0,0,0-2.38-2.38H98.56v-4.75H120c0,.39-.07.79-.07,1.19a8.33,8.33,0,0,0,8.31,8.31h.26a8.54,8.54,0,0,0,8.06-8.61v-.56a12.71,12.71,0,0,0-9.17-12.17Zm-20.33-21.68a5.34,5.34,0,0,1,4.25-2.12,5.26,5.26,0,0,1,3.75,1.55l1.32,1.32,1.31-1.32a5.32,5.32,0,0,1,8,.57l.09.12a6.49,6.49,0,0,1,1.29,3.86,7,7,0,0,1-.09,1h-5.21l-3.07-4.6-3.42,5.69-1.73-3.47h-7.7a6.62,6.62,0,0,1,1.12-2.51Zm-1.28,5h6.3l3,6,3.72-6.19,1.68,2.53h5.6a6.65,6.65,0,0,1-1.15,1.39l-8.56,7.7-8.56-7.7A6.41,6.41,0,0,1,105.78,144.73ZM74.61,137.6h17l2,11.88h-21Zm-6.94,20.53v5.6H65.29v-5Zm-2.38,13v-5h2.38v5.61Zm0,11.62V178h2.38v4.75ZM91.61,206.5h-17l-2-11.88h21Zm4.57-15.44A1.19,1.19,0,0,1,95,192.25H71.23A1.2,1.2,0,0,1,70,191.06V153a1.2,1.2,0,0,1,1.19-1.19H95A1.19,1.19,0,0,1,96.18,153Zm38-16.93a6.14,6.14,0,0,1-5.76,6.23,5.93,5.93,0,0,1-6.12-5.93,14,14,0,0,1,1.47-6.22l.32-.65,4.15,1.39v-4.69a10.32,10.32,0,0,1,5.94,9.31Z"/><path d="M122.81,197a2.37,2.37,0,0,0-3.36,0l-.7.69-4.26-4.26.7-.69a2.37,2.37,0,0,0,0-3.36l-3.07-3.07a4.14,4.14,0,0,0-5.74,0l-1.46,1.46a5.48,5.48,0,0,0,0,7.76l11.73,11.74a5.49,5.49,0,0,0,7.77,0l1.46-1.46a4.06,4.06,0,0,0,0-5.74Zm1.39,7.13-1.46,1.46a3.23,3.23,0,0,1-4.41,0L106.6,193.85a3.11,3.11,0,0,1,0-4.4l1.46-1.46a1.67,1.67,0,0,1,2.38,0l3.07,3.07-2.38,2.37,7.62,7.62,2.38-2.37,3.07,3.07a1.69,1.69,0,0,1,0,2.38Z"/></g></g></svg>