<?xml version="1.0" encoding="utf-8"?>
<!-- Generator: Adobe Illustrator 22.0.1, SVG Export Plug-In . SVG Version: 6.00 Build 0)  -->
<svg version="1.1" id="Capa_1" xmlns="http://www.w3.org/2000/svg" xmlns:xlink="http://www.w3.org/1999/xlink" x="0px" y="0px"
	 viewBox="0 0 1667.5 273.1" style="enable-background:new 0 0 1667.5 273.1;" xml:space="preserve">
<style type="text/css">
	.st0{fill:#E3E4E6;}
	.st1{fill:#08D5A9;}
	.st2{fill:#00BFEC;}
</style>
<g>
	<path class="st0" d="M1662.1,173c-0.4-7.4-290.8-1.9-476.3-22.3C855.3,114.4,682.6,8,428.8,13.6C320.6,16,101,6.8,41.9,24
		c77-10.2,395.4,20.8,527.4,44.1c136.6,24.2,186.4,62.1,293,96C1169.2,261.6,1662.8,185.8,1662.1,173z"/>
	<path class="st1" d="M1667.5,194.4c-0.3-7.6-298.5-5.8-508.6-32c-374.4-46.6-485-149.8-773-151.1C263.1,10.7,97.8,8.1,30.6,24.1
		c87.5-8.4,340.5,13,489.8,40.7c154.5,28.7,194,43.9,314.4,81.8C1181.4,255.5,1668,207.5,1667.5,194.4z"/>
	<path class="st2" d="M1670.5,209.3c0.2-8.3-418.5,28.7-644.3-36.3C650.1,64.7,724.5,77.8,557.8,39C424.9,8.1,75.8,12.4,0,24.6
		c97.7-2.4,349.5-1.1,513.1,40.3c169.4,42.9,197.6,88.9,328.5,139.1C1218.5,348.5,1670.2,223.6,1670.5,209.3z"/>
</g>
<image style="overflow:visible;" width="214" height="100" xlink:href="9B620A23.jpg"  transform="matrix(1 0 0 1 -6704.4854 -7684.4448)">
</image>
</svg>
