<svg id="Capa_1" data-name="Capa 1" xmlns="http://www.w3.org/2000/svg" viewBox="0 0 1667.46 273.08"><defs><style>.cls-1{fill:#e3e4e6;}.cls-2{fill:#08d5a9;}.cls-3{fill:#00bfec;}</style></defs><title>waves</title><path class="cls-1" d="M1662.12,173c-.39-7.39-290.79-1.92-476.29-22.32C855.29,114.38,682.59,8,428.83,13.61,320.6,16,101,6.83,41.9,24c77-10.22,395.45,20.81,527.37,44.15,136.57,24.16,186.37,62.13,293,96C1169.2,261.56,1662.81,185.79,1662.12,173Z"/><path class="cls-2" d="M1667.46,194.35c-.34-7.61-298.47-5.78-508.58-32-374.38-46.65-485-149.8-772.95-151.1C263.12,10.73,97.85,8.07,30.57,24.09c87.51-8.38,340.53,13,489.81,40.69,154.54,28.7,194,44,314.39,81.79C1181.41,255.51,1668,207.51,1667.46,194.35Z"/><path class="cls-3" d="M1670.53,209.28C1670.7,201,1252,238,1026.28,173,650.06,64.69,724.49,77.84,557.84,39,424.92,8.06,75.77,12.4,0,24.63,97.68,22.22,349.48,23.55,513.14,65c169.41,42.87,197.59,88.94,328.52,139.13C1218.52,348.55,1670.24,223.57,1670.53,209.28Z"/></svg>