<svg id="Capa_1" data-name="Capa 1" xmlns="http://www.w3.org/2000/svg" viewBox="0 0 30 30"><defs><style>.cls-1{fill:#fff;}</style></defs><title>icon-nav</title><path class="cls-1" d="M5.92,14.39A7.37,7.37,0,0,1,5.33,8.6,2.62,2.62,0,0,1,8.44,6.75a3.41,3.41,0,0,1,2.15,3.3,10.67,10.67,0,0,1,0,2,22.28,22.28,0,0,1-.67,2.42,8.52,8.52,0,0,0,1.85,1.13c.37.12.85-.36,1.43-.64-1.3-1-1.53-2.33-1.45-3.87,0-.87,0-1.76.11-2.61.34-2.15,1.91-3.62,3.58-3.47S18.62,7,18.71,9.22q.06,1.53,0,3.06a3.34,3.34,0,0,1-1.33,2.65c.67.57,1.25,1.07,2,.34a10,10,0,0,1,1.38-.89c-1.17-1.17-.91-2.76-.9-4.26,0-1.9,1.14-3.35,2.61-3.43s2.8,1.24,2.93,3.16a12.77,12.77,0,0,1,0,2.55,11.48,11.48,0,0,1-.69,2.08c.43.28,1,.65,1.54,1a3.93,3.93,0,0,1,1.92,2.93,20.45,20.45,0,0,1,.08,2.83c0,.55-.41.49-.71.49-1.47,0-2.94,0-4.41,0-.53,0-.71.17-.7.86,0,1.85,0,1.84-1.43,1.84H8.92c-.82,0-.9-.11-.9-1.12,0-1.79.19-1.55-1.21-1.57-1.22,0-2.44,0-3.66,0-.93,0-.95,0-.95-1.17a16,16,0,0,1,0-2,4.09,4.09,0,0,1,1.83-3Zm9.28,9h5.1c1.31,0,1.3,0,1.3-1.65a4.58,4.58,0,0,0-2.1-4.24c-.8-.49-1.61-1-2.37-1.52a2.93,2.93,0,0,0-3.78,0c-.2.15-.41.27-.62.4-.58.37-1.17.75-1.76,1.11a4.58,4.58,0,0,0-2.12,4.3c0,1.6,0,1.6,1.25,1.6Zm2.68-12.66h0c0-.49,0-1,0-1.46-.07-1.8-1.21-3.14-2.66-3.14s-2.59,1.34-2.64,3.17c0,1,0,1.94,0,2.91,0,1.22.64,2,1.61,2a19.1,19.1,0,0,0,2.14,0c.88,0,1.5-.85,1.53-2C17.89,11.74,17.88,11.23,17.88,10.72Zm1.71,5.55c.1.14.13.21.18.24a5.51,5.51,0,0,1,2.58,3.87.5.5,0,0,0,.36.32c1.47,0,2.94,0,4.4,0,.13,0,.34-.23.37-.38a3.87,3.87,0,0,0-1.6-3.91c-.79-.51-1.57-1-2.37-1.51a1.58,1.58,0,0,0-.66-.2C21.57,14.59,20.71,15.75,19.59,16.27Zm-8.68.06c-.72-.47-1.34-.84-1.95-1.26a1.84,1.84,0,0,0-2.3,0,18.61,18.61,0,0,1-1.9,1.23C3.39,17,2.91,18.38,3,20.15c0,.45.13.58.47.58,1.39,0,2.78,0,4.17,0,.37,0,.49-.17.58-.59a5.15,5.15,0,0,1,2.14-3.37Zm9.79-5.25h0V12c0,1.16.49,1.75,1.4,1.77.42,0,.85,0,1.27,0a1.29,1.29,0,0,0,1.21-1.37,18.66,18.66,0,0,0,0-2.48,2.15,2.15,0,0,0-2-2.19,2.27,2.27,0,0,0-1.89,2.39C20.69,10.4,20.7,10.74,20.7,11.08ZM9.75,11c0-.27,0-.54,0-.8,0-1.45-.81-2.52-1.87-2.56s-1.95,1-2,2.47c0,.46,0,.92,0,1.38,0,1.75.34,2.18,1.75,2.2C9.57,13.73,9.79,13.46,9.75,11Z"/></svg>