<svg id="Capa_1" data-name="Capa 1" xmlns="http://www.w3.org/2000/svg" viewBox="0 0 30 30"><defs><style>.cls-1{fill:#fff;}</style></defs><title>icon-nav</title><path class="cls-1" d="M7.51,19.06v-.77c0-3,0-6.07,0-9.1a3.59,3.59,0,0,1,3.94-3.91H23.83A2.85,2.85,0,0,1,27,8.45v1.64c0,.94-.09,1-1.06,1s-1.9,0-2.84,0c-.49,0-.6.16-.6.62,0,3.24,0,6.48,0,9.73,0,2.17-1.1,3.26-3.27,3.26H7c-2.55,0-4-1.44-4-4,0-1.67-.12-1.68,1.64-1.66C5.56,19.07,6.49,19.06,7.51,19.06Zm1.19,0h.78c2.5,0,5,0,7.52,0,1,0,1.06.09,1.06,1,0,.59,0,1.18,0,1.77a1.65,1.65,0,0,0,1.21,1.59,1.63,1.63,0,0,0,2.07-1.72c0-4,0-7.92,0-11.88,0-1.14-.19-2.31.5-3.4l-.46,0H11.28a3.74,3.74,0,0,0-.75.08,2.17,2.17,0,0,0-1.8,1.88C8.67,12,8.7,15.48,8.7,19.09ZM4.2,20.31a7.16,7.16,0,0,0,0,1.23,2.34,2.34,0,0,0,2.33,2l10,0h.54l-.36-3.2ZM25.77,9.91a17.33,17.33,0,0,0,0-2.17A1.49,1.49,0,0,0,24.17,6.5,1.53,1.53,0,0,0,22.6,7.77c-.07.7,0,1.41,0,2.14Z"/><path class="cls-1" d="M17.13,12.33a10.24,10.24,0,0,1,1.57,0c.23,0,.4.36.6.56-.19.19-.37.53-.57.53a30.82,30.82,0,0,1-3.33,0,.77.77,0,0,1-.49-.56.78.78,0,0,1,.53-.53A15.89,15.89,0,0,1,17.13,12.33Z"/><path class="cls-1" d="M17.07,10.24a10.24,10.24,0,0,1-1.57,0c-.23,0-.42-.35-.63-.53.2-.2.39-.56.6-.57a31,31,0,0,1,3.2,0,.85.85,0,0,1,.6.55c.08.4-.24.58-.63.59Z"/><path class="cls-1" d="M17.09,15.59H18.6c.38,0,.68.13.69.55s-.26.61-.64.61c-1,0-2.1,0-3.14,0-.39,0-.71-.22-.61-.62a.89.89,0,0,1,.63-.51A10.14,10.14,0,0,1,17.09,15.59Z"/><path class="cls-1" d="M12,12.75a6.05,6.05,0,0,1,.9-.92.93.93,0,0,1,.81-.08c.33.2.3.57,0,.86-.42.47-.84.93-1.29,1.38a.61.61,0,0,1-1,0l-.56-.6c-.26-.27-.36-.58-.08-.88s.64-.23.93.06Z"/><path class="cls-1" d="M12.06,16a5.54,5.54,0,0,1,.88-.92.85.85,0,0,1,.8,0,.84.84,0,0,1,.06.8,11.87,11.87,0,0,1-1.37,1.47c-.12.12-.47.21-.55.13a8.1,8.1,0,0,1-1.14-1.2c-.06-.09.1-.45.24-.57a.7.7,0,0,1,.57,0C11.72,15.66,11.86,15.83,12.06,16Z"/><path class="cls-1" d="M12.05,9.5a5.92,5.92,0,0,1,.89-.91.92.92,0,0,1,.82-.07c.33.21.28.57,0,.87-.42.45-.83.9-1.25,1.34a.62.62,0,0,1-1,0l-.56-.6c-.29-.29-.39-.62-.07-.93s.62-.19.89.09C11.86,9.36,12,9.42,12.05,9.5Z"/></svg>