<svg id="Capa_1" data-name="Capa 1" xmlns="http://www.w3.org/2000/svg" viewBox="0 0 30 30"><defs><style>.cls-1{fill:#fff;}</style></defs><title>icon-nav</title><path class="cls-1" d="M23.91,5c0,.62,0,1.15,0,1.66a.7.7,0,0,1-.4.43l-11.3,5.13c-1.29.58-2.59,1.15-3.87,1.75a.74.74,0,0,0-.39.5c0,2.16,0,4.33,0,6.5a1.16,1.16,0,0,0,0,.22H23.88V23H6.09V15l-2,.87a15.43,15.43,0,0,1,0-1.68c0-.15.24-.33.42-.41L15.41,8.8Z"/><path class="cls-1" d="M15.34,20.12v-3.9l.45,0c2.26,0,4.52,0,6.78,0,1,0,1.31.36,1.32,1.32v2.61Z"/><path class="cls-1" d="M13.18,18.8c0-.68,0-1.29,0-1.9s.25-.83.7-.8.65.35.65.8c0,.82,0,1.64,0,2.46,0,.55-.23.79-.76.8-1,0-2,0-3,0-.46,0-.77-.19-.76-.68s.32-.67.78-.68Z"/><path class="cls-1" d="M11.12,15.4a1.38,1.38,0,0,1,1.39,1.38,1.42,1.42,0,0,1-1.38,1.36,1.4,1.4,0,0,1-1.41-1.37A1.38,1.38,0,0,1,11.12,15.4Z"/></svg>