<svg id="Capa_1" data-name="Capa 1" xmlns="http://www.w3.org/2000/svg" viewBox="0 0 30 30"><defs><style>.cls-1{fill:#fff;}</style></defs><title>icon-nav</title><path class="cls-1" d="M10.29,15.87H8.94a.63.63,0,0,0,0,1.26h1.35a.63.63,0,1,0,0-1.26Z"/><path class="cls-1" d="M10.29,18.56H8.94a.64.64,0,0,0,0,1.27h1.35a.64.64,0,0,0,0-1.27Z"/><path class="cls-1" d="M10.29,21.26H8.94a.63.63,0,1,0,0,1.26h1.35a.63.63,0,0,0,0-1.26Z"/><path class="cls-1" d="M15.67,15.87H14.33a.63.63,0,1,0,0,1.26h1.34a.63.63,0,1,0,0-1.26Z"/><path class="cls-1" d="M15.67,18.56H14.33a.64.64,0,0,0,0,1.27h1.34a.64.64,0,0,0,0-1.27Z"/><path class="cls-1" d="M15.67,21.26H14.33a.63.63,0,0,0,0,1.26h1.34a.63.63,0,1,0,0-1.26Z"/><path class="cls-1" d="M21.06,15.87H19.71a.63.63,0,1,0,0,1.26h1.35a.63.63,0,1,0,0-1.26Z"/><path class="cls-1" d="M21.06,18.56H19.71a.64.64,0,0,0,0,1.27h1.35a.64.64,0,0,0,0-1.27Z"/><path class="cls-1" d="M21.06,21.26H19.71a.63.63,0,1,0,0,1.26h1.35a.63.63,0,0,0,0-1.26Z"/><path class="cls-1" d="M23.88,8.13H22.36V7.08a.63.63,0,1,0-1.26,0V8.13H15.63V7.08a.63.63,0,0,0-1.26,0V8.13H8.9V7.08a.63.63,0,1,0-1.26,0V8.13H6.12A1.89,1.89,0,0,0,4.23,10V24a1.89,1.89,0,0,0,1.89,1.89H23.88A1.89,1.89,0,0,0,25.77,24V10A1.89,1.89,0,0,0,23.88,8.13ZM5.49,10a.63.63,0,0,1,.63-.63H7.64v1a.63.63,0,0,0,1.26,0v-1h5.47v1a.63.63,0,0,0,1.26,0v-1H21.1v1a.63.63,0,0,0,1.26,0v-1h1.52a.63.63,0,0,1,.63.63v2.49h-19Zm18.39,14.6H6.12A.63.63,0,0,1,5.49,24V13.77h19V24A.63.63,0,0,1,23.88,24.62Z"/></svg>