<svg id="Capa_1" data-name="Capa 1" xmlns="http://www.w3.org/2000/svg" viewBox="0 0 30 30"><defs><style>.cls-1{fill:#fff;}</style></defs><title>icon-nav</title><path class="cls-1" d="M22.85,22.36H19.3a.63.63,0,0,1-.63-.63.64.64,0,0,1,.63-.64h3.11l1.23-3.39H6.36l1.23,3.39H10.7a.64.64,0,0,1,.63.64.63.63,0,0,1-.63.63H7.15a.63.63,0,0,1-.6-.41l-1.7-4.67a.65.65,0,0,1,.08-.59.63.63,0,0,1,.52-.27h19.1a.63.63,0,0,1,.52.27.65.65,0,0,1,.08.59L23.45,22A.63.63,0,0,1,22.85,22.36Z"/><path class="cls-1" d="M18.61,25.76h-.1A.63.63,0,0,1,18,25l.73-4.79H11.29L12,25a.63.63,0,0,1-.53.72.63.63,0,0,1-.73-.53L9.91,19.7a.67.67,0,0,1,.15-.51.64.64,0,0,1,.48-.22h8.92a.64.64,0,0,1,.48.22.67.67,0,0,1,.15.51l-.85,5.52a.63.63,0,0,1-.63.54Z"/><path class="cls-1" d="M23.91,17.48a.63.63,0,0,1-.63-.63,4.89,4.89,0,0,0-2.35-4.15.64.64,0,0,1,.67-1.09,6.18,6.18,0,0,1,2.95,5.24A.63.63,0,0,1,23.91,17.48Z"/><circle class="cls-1" cx="20.52" cy="11.75" r="1.27"/><path class="cls-1" d="M15,12.18a3.4,3.4,0,1,1,3.4-3.4A3.41,3.41,0,0,1,15,12.18Zm0-5.52a2.12,2.12,0,1,0,2.12,2.12A2.12,2.12,0,0,0,15,6.66Z"/><path class="cls-1" d="M21.37,17.7a.64.64,0,0,1-.64-.64A2.77,2.77,0,0,0,18,14.3H12a2.77,2.77,0,0,0-2.76,2.76.64.64,0,0,1-.64.64A.64.64,0,0,1,8,17.06a4,4,0,0,1,4-4H18a4,4,0,0,1,4,4A.64.64,0,0,1,21.37,17.7Z"/></svg>