<svg id="Capa_1" data-name="Capa 1" xmlns="http://www.w3.org/2000/svg" viewBox="0 0 17.44 18.45"><defs><style>.cls-1{fill:#2a3b47;}.cls-2{fill:#00c6f3;}</style></defs><title>favicon_hbicom</title><path class="cls-1" d="M4.11,4.58h.81A1.32,1.32,0,1,0,3.6,3.26v.58A2.58,2.58,0,0,0,2,6.31c0,2.18,2.26,4.92,4.28,5.29V13a4,4,0,0,0,7.92,0v-.51a2.2,2.2,0,1,0-.88,0V13a3.08,3.08,0,0,1-6.16,0V11.6C9,11.26,11,8.89,11.34,6.9A2.63,2.63,0,0,0,9.75,3.85V3.26A1.32,1.32,0,1,0,8.43,4.58h.79a1.78,1.78,0,0,1,1.25,2.17c-.33,2-2.44,4-3.8,4-1.57,0-3.82-2.55-3.84-4.46A1.75,1.75,0,0,1,4.11,4.58Zm.37-1.32a.44.44,0,0,1,.44-.44.44.44,0,1,1,0,.88H4.48Zm7.91,7.06a1.32,1.32,0,1,1,1.32,1.32A1.33,1.33,0,0,1,12.39,10.32ZM8.87,3.7H8.43a.44.44,0,0,1,0-.88.44.44,0,0,1,.44.44Z"/><path class="cls-2" d="M13.27,9.88h.88v.88h-.88Z"/><path class="cls-2" d="M6.88,10.75a8.21,8.21,0,0,0,.3.84C9.05,11.21,11,8.88,11.35,6.9A2.63,2.63,0,0,0,9.77,3.85V3.26A1.32,1.32,0,1,0,8.45,4.58h.79a1.78,1.78,0,0,1,1.25,2.17C10.17,8.63,8.24,10.57,6.88,10.75Zm2-7H8.45a.44.44,0,1,1,.44-.44Z"/></svg>