<svg id="Capa_1" data-name="Capa 1" xmlns="http://www.w3.org/2000/svg" viewBox="0 0 30 30"><defs><style>.cls-1{fill:#fff;}</style></defs><title>icons-contacto</title><path class="cls-1" d="M12.64,26.4a.57.57,0,0,1-.36-.62V16.47H12c-.86,0-1.72,0-2.58,0-.43,0-.6-.15-.6-.58V12.37c0-.41.17-.57.59-.57h2.85v-.26c0-.9,0-1.81,0-2.71a5.51,5.51,0,0,1,1.32-3.51,4.58,4.58,0,0,1,3.05-1.61c1.09-.11,2.2-.07,3.29-.1h.69a.46.46,0,0,1,.51.51q0,1.69,0,3.39c0,.34-.18.5-.53.51-.78,0-1.56,0-2.34,0a1.07,1.07,0,0,0-1,.54,1.71,1.71,0,0,0-.18.66c0,.84,0,1.68,0,2.55H20.4c.46,0,.62.16.62.61,0,1.16,0,2.32,0,3.47,0,.44-.15.59-.59.59-1,0-2,0-3.07,0h-.26v.28c0,3,0,6,0,9a.63.63,0,0,1-.35.66Z"/></svg>