<svg id="Capa_1" data-name="Capa 1" xmlns="http://www.w3.org/2000/svg" viewBox="0 0 30 30"><defs><style>.cls-1{fill:#fff;}</style></defs><title>icons-contacto</title><path class="cls-1" d="M15.15,4.37a10.12,10.12,0,0,1,6.5,2.29,10.08,10.08,0,0,1,3.61,5.8,10.59,10.59,0,0,1,.27,1.75,8.9,8.9,0,0,1-.07,1.55,10.71,10.71,0,0,1-.71,2.94A10.41,10.41,0,0,1,23,21.61,10.17,10.17,0,0,1,19.84,24a10.45,10.45,0,0,1-9.42,0,.74.74,0,0,0-.6,0L4.64,25.62a1,1,0,0,1-.18,0,.69.69,0,0,1,0-.25c.55-1.62,1.09-3.24,1.65-4.85a.92.92,0,0,0-.07-.79A10,10,0,0,1,4.77,14.2a10.44,10.44,0,0,1,6.39-9,10,10,0,0,1,4-.8M7.13,23l.26-.08,2.66-.86a.72.72,0,0,1,.65.07,8.31,8.31,0,0,0,5.84,1.13A8.49,8.49,0,0,0,22.65,19a8.32,8.32,0,0,0,.94-5.94,8.42,8.42,0,0,0-3.27-5.19A8,8,0,0,0,17,6.33a8.25,8.25,0,0,0-4.46.21,8.57,8.57,0,0,0-4.91,4.05,8.39,8.39,0,0,0-1,5.24A8.06,8.06,0,0,0,8,19.52a.64.64,0,0,1,.07.65c-.29.85-.57,1.71-.86,2.56L7.13,23"/><path class="cls-1" d="M18,20a6.46,6.46,0,0,1-1.94-.56,8.68,8.68,0,0,1-3.18-2,12.27,12.27,0,0,1-2.61-3.76,3.16,3.16,0,0,1,.38-3.31,1.55,1.55,0,0,1,1.74-.59.54.54,0,0,1,.31.24c.31.78.61,1.56.89,2.35a.64.64,0,0,1-.1.46,7.69,7.69,0,0,1-.58.7c-.28.32-.29.39-.08.76a7.29,7.29,0,0,0,2.6,2.69c.27.15.55.29.83.42a.39.39,0,0,0,.56-.11l.82-.95c.18-.2.3-.25.53-.13.74.37,1.48.75,2.21,1.15a.52.52,0,0,1,.19.37,2.13,2.13,0,0,1-1.71,2.12c-.28.08-.57.13-.86.19"/></svg>