<svg id="Capa_1" data-name="Capa 1" xmlns="http://www.w3.org/2000/svg" viewBox="0 0 116 103.46"><defs><style>.cls-1{fill:#e89238;}</style></defs><title>MAQUETA HBICOM HOME</title><path class="cls-1" d="M104.64,78.29c2.57,3.11,2.5,7,3.93,10.42l-.64.3a6.31,6.31,0,0,1-.63-1.17c-.6-2-1.14-4-1.71-5.93a4.28,4.28,0,0,0-4.74-3.37,1.41,1.41,0,0,0-.94,1,2.21,2.21,0,0,0,.6,1.46c.27.3.85.27,1.25.47a1.72,1.72,0,0,1,.92,2.21,1.43,1.43,0,0,1-1.72,1.1,1.72,1.72,0,0,1-1.52-1.84,3.08,3.08,0,0,0-.16-1.37l-6.85,7.08-4.6-4.13a12.86,12.86,0,0,1-.66,1.87c-.2.35-.66.85-.91.79a1.91,1.91,0,0,1-1.12-.9c-.1-.2.27-.83.57-1,1.47-1.08,1.67-3.12.37-4.89a5.34,5.34,0,0,0-2.53,3.13c-.13.3.27.81.34,1.24s.07,1-.09,1.07a2.09,2.09,0,0,1-1.39.15,1.11,1.11,0,0,1-.42-1c.52-1.29,1.14-2.55,1.77-3.79.3-.61,1-1.23.33-1.84a2.62,2.62,0,0,0-1.86-.38,3.53,3.53,0,0,0-3.18,3c-.45,1.89-1,3.75-1.52,5.62a17.09,17.09,0,0,1-.7,1.77c-.65-2,1.47-8.74,3.35-11a16.74,16.74,0,0,1-2.87-14.91,15.37,15.37,0,0,1,6.21-8.82,15.57,15.57,0,0,1,19.27,1.3A17.07,17.07,0,0,1,104.64,78.29Zm-7.39,3.26c1-1.94,1-2.08-.8-3.31-.29,1.06-.56,2-.82,3l-1.7,3.92.41.21ZM95.49,61.77a4,4,0,0,0-.8.49A5.7,5.7,0,0,1,90.2,64c-3.33,0-4.89,3-3.21,6,.28.5.5,1,.74,1.57,1.07,2.25,3.92,3.57,5.87,2.68,2.66-1.22,3.64-3.73,4.23-6.4.15-.69-.5-1.53-.56-2.32A5.76,5.76,0,0,0,95.49,61.77Zm-9.27,2.09c1.53-.28,2.93-.61,4.36-.78a5.45,5.45,0,0,0,3.67-1.61,15.38,15.38,0,0,1,1.35-1.19l1.88,2.26c-.1-3.61-2.15-5.23-6.13-5.06C87.84,57.62,86,59.94,86.22,63.86Zm6.06,22.63a4.49,4.49,0,0,0,.55-4.14,8.17,8.17,0,0,1,0-2.15,2.2,2.2,0,0,0-.29-1,.72.72,0,0,0-.72-.07c-.23.27-.52.81-.41,1a3.12,3.12,0,0,1,.06,2.73C91.11,84.2,91.67,85.28,92.28,86.49Zm2.78-11.65a12.33,12.33,0,0,1-3.18.65,12,12,0,0,1-3-1c.4,1.11,2.38,2.74,3.18,2.77S94.66,75.84,95.06,74.84Zm-7.15,3.85c-1,2.68.16,5.17,2.72,6.61Zm7.92-2-.4-.27-2.52,1.76,2,1.55Zm-4.66,1.39-2.4-1.63-.4.28,1.07,3.06Z"/><path class="cls-1" d="M27.12,80.21A12.46,12.46,0,0,1,19.22,78a6.25,6.25,0,0,1-2.75-3.72,2.71,2.71,0,0,0-1.55-1.84c-2.75-1.46-3.56-2.83-3.05-6.07.49-3.07.14-6.13.36-9.19.53-7.29,7.23-13.7,14.32-13.83,6.86-.12,11.67,3.13,14.67,9.4,1.27,2.64,1.19,5.52,1.17,8.4a32.54,32.54,0,0,0,.42,5.58,5,5,0,0,1-3.05,5.65,3.55,3.55,0,0,0-2.22,2.46c-.48,1.8-1.94,2.87-3.46,3.74A12.07,12.07,0,0,1,27.12,80.21Zm-5-21.15a25.22,25.22,0,0,0-1.67,2,20,20,0,0,0-3.28,11.3,5.44,5.44,0,0,0,2,4.47c3.79,3.31,12,3.35,15.81,0a4.82,4.82,0,0,0,2-3.43,20,20,0,0,0-3.92-13.3A12.93,12.93,0,0,0,31.82,59C27.81,62.13,26.32,62.14,22.16,59.06Zm-.25-4.12a5.34,5.34,0,0,0,4.9,5.46A5.38,5.38,0,0,0,32,54.87a5.26,5.26,0,0,0-5.09-5.24A5.26,5.26,0,0,0,21.91,54.94Zm16.58,3a5.21,5.21,0,0,1-5,1.3c3.21,3.86,4.2,8.18,4.54,12.71,2.2-.38,3.88-1.84,3.94-3.54A14.56,14.56,0,0,0,38.49,57.92ZM16.24,72c.28-4.55,1.31-8.75,4.05-12.15l-4.42-1.62c-2.17,2.52-3,5.62-3.28,9A4.64,4.64,0,0,0,16.24,72ZM34.83,50.68a4.09,4.09,0,0,0-.68.07c-1.39.33-1.74,1.07-1.51,2.54a9.14,9.14,0,0,1,.06,3,1.46,1.46,0,0,0,1.11,1.9,3.4,3.4,0,0,0,3.78-.87,4,4,0,0,0,.8-4.26A3.49,3.49,0,0,0,34.83,50.68Zm-18.9,3.79c0,2.62,2.13,4.55,4.44,3.89a1.17,1.17,0,0,0,1-1.44,22.09,22.09,0,0,1,.2-4.53c.15-.93-.16-1.25-.86-1.51C18.33,50,16,51.75,15.93,54.47Z"/><path class="cls-1" d="M77.68,66.5c.92.06,1.5.13,2.09.13,1,0,1.39.54,1.39,1.54s-.46,1.51-1.45,1.48c-.46,0-.92,0-1.38,0H40.41c-.46,0-.92,0-1.38,0-1,0-1.48-.36-1.48-1.43s.3-1.48,1.33-1.6c1.88-.22,1.87-.28,1.9-2.21,0-.34,0-.69,0-1A19.72,19.72,0,0,0,38.34,52.5C34,45.35,33.63,39.74,36.65,31.88a22.1,22.1,0,0,1,2.65-5A7.5,7.5,0,0,0,40.82,22c-.08-1.94.15-2.18,2-2.08a12.84,12.84,0,0,0,6.21-1.48,23.94,23.94,0,0,1,22.08.7,10.31,10.31,0,0,0,4.18.72c2.25.13,2.34.08,2.29,2.46a6,6,0,0,0,1.27,3.91,25.88,25.88,0,0,1-.41,31.15,2.81,2.81,0,0,0-.75,1.39C77.64,61.25,77.68,63.76,77.68,66.5Zm-1-22.67V23.35c0-2.49,0-2.5-2.38-2.5h-30c-.33,0-.66,0-1,0-.92,0-1.31.47-1.29,1.39,0,.47,0,.95,0,1.43V63.82c0,.48,0,.95,0,1.43,0,.94.41,1.37,1.32,1.37q5.71,0,11.45,0c.9,0,1.33-.39,1.32-1.34,0-1.37,0-2.73,0-4.1.07-2.16,1.38-3.57,3.26-3.55s3.08,1.38,3.19,3.46c.06,1.23,0,2.46,0,3.69,0,1.74.11,1.82,1.83,1.84,3.36,0,6.71,0,10.07,0,2.16,0,2.18,0,2.18-2.31Q76.69,54.08,76.68,43.83Zm-38,24.28a1.08,1.08,0,0,0,.17.34.62.62,0,0,0,.35.16l39,0a10.15,10.15,0,0,0,1.54-.2s.08-.1.09-.16a.58.58,0,0,0,0-.19C78.37,67.39,40.17,67.4,38.71,68.11Zm22.61-4.94h0c0-.61,0-1.23,0-1.84-.07-1.61-.62-2.3-1.84-2.37s-2.16.73-2.31,2.24a29.51,29.51,0,0,0-.07,3.26c0,2.08.1,2.15,2.13,2.14s2.07-.1,2.1-2.21C61.33,64,61.32,63.58,61.32,63.17Z"/><path class="cls-1" d="M50.71,44.71c0,.41,0,.81,0,1.22-.07,1.7-.22,1.87-1.82,2-4.29.21-4.38.08-4.21-4.4,0-1.28.47-1.93,1.75-1.85.46,0,.92,0,1.38,0C50.71,41.64,50.71,41.64,50.71,44.71Zm-3-1.79c-1.45,0-1.72.27-1.75,1.75s.28,1.93,1.79,1.93,1.72-.28,1.75-1.76S49.21,42.91,47.69,42.92Z"/><path class="cls-1" d="M66.14,36.48v.61c0,2.57,0,2.58-2.55,2.6-3.51,0-3.51,0-3.45-3.71,0-2.35.18-2.5,2.49-2.53h.59C66.14,33.45,66.14,33.45,66.14,36.48Zm-1.23,0c0-1.48-.29-1.76-1.73-1.78s-1.83.27-1.81,1.88.28,1.79,1.71,1.8S64.93,38.09,64.91,36.51Z"/><path class="cls-1" d="M47.8,49.82c2.91,0,2.91,0,2.91,3,0,.27,0,.54,0,.82,0,2.27-.12,2.36-2.37,2.38-3.65,0-3.65,0-3.64-3.39C44.71,49.82,44.71,49.82,47.8,49.82Zm1.68,3.12c0-1.55-.34-1.88-1.88-1.84s-1.66.33-1.66,1.86.31,1.86,1.88,1.82S49.49,54.47,49.48,52.94Z"/><path class="cls-1" d="M47.78,39.69h-1c-1.94,0-2.06-.17-2.1-2.25-.07-4.1-.07-4.1,3.82-4,1.94.06,2.13.25,2.19,2.22,0,.34,0,.68,0,1C50.71,39.69,50.71,39.69,47.78,39.69Zm-1.84-3.13c0,1.56.33,1.88,1.86,1.85s1.68-.32,1.68-1.84-.3-1.87-1.86-1.84S45.94,35,45.94,36.56Z"/><path class="cls-1" d="M66.14,52.91c0,.34,0,.68,0,1,0,1.95-.18,2.09-2,2.15-4.07.13-4.29-.14-4-4.42.08-1.25.54-1.89,1.79-1.82.39,0,.78,0,1.17,0C66.14,49.82,66.14,49.82,66.14,52.91Zm-3,1.87c1.5,0,1.8-.35,1.76-2,0-1.44-.34-1.72-1.8-1.72s-1.78.34-1.74,2C61.41,54.54,61.67,54.79,63.15,54.78Z"/><path class="cls-1" d="M66.14,44.71c0,.34,0,.68,0,1,0,2-.17,2.09-2,2.15-4.09.13-4.29-.12-4-4.4.07-1.25.53-1.9,1.78-1.84.39,0,.78,0,1.17,0C66.14,41.63,66.14,41.63,66.14,44.71Zm-1.23,0c0-1.47-.3-1.77-1.73-1.78s-1.83.28-1.81,1.89.27,1.77,1.72,1.79S64.93,46.28,64.91,44.7Z"/><path class="cls-1" d="M47.64,31.51c-2.94,0-2.94,0-2.94-3.05,0-.41,0-.82,0-1.23.08-1.62.3-1.85,1.88-1.95,4-.26,4.16-.14,4.12,3.73C50.69,31.51,50.69,31.51,47.64,31.51Zm1.84-3.05c0-1.68-.25-1.92-1.8-1.91s-1.79.31-1.74,2.18c0,1.6.28,1.82,1.9,1.78C49.31,30.48,49.51,30.23,49.48,28.46Z"/><path class="cls-1" d="M50.7,61.15c0,.47,0,1,0,1.42a1.47,1.47,0,0,1-1.52,1.68c-4.11.48-4.66,0-4.47-4.32.07-1.68.22-1.84,1.82-1.91.4,0,.79,0,1.18,0C50.72,58,50.72,58,50.7,61.15ZM49.48,61c0-1.71-.21-1.94-1.75-2s-1.78.21-1.79,1.9S46.18,63,47.78,63,49.49,62.7,49.48,61Z"/><path class="cls-1" d="M71,33.46c.39,0,.79,0,1.18,0,1.22-.06,1.83.48,1.85,1.8.07,5.16,0,4.4-4,4.42-1.76,0-1.9-.18-2-2,0-.41,0-.82,0-1.22C68,33.45,68,33.45,71,33.46Zm-.07,4.95c1.63,0,1.87-.24,1.87-1.84s-.26-1.88-2-1.84c-1.59,0-1.8.25-1.77,1.93S69.19,38.43,70.88,38.41Z"/><path class="cls-1" d="M68,44.74c0-3.11,0-3.12,3-3.11a3.84,3.84,0,0,1,1.56.08c.51.24,1.16.73,1.27,1.23.9,4-.93,5.86-4.83,4.85a2,2,0,0,1-1-1.22A6.56,6.56,0,0,1,68,44.74Zm2.9-1.83c-1.7,0-1.94.19-2,1.72,0,1.69.17,1.93,1.73,2,1.8,0,2.08-.2,2.08-1.82S72.54,42.93,70.91,42.91Z"/><path class="cls-1" d="M68,53c0-3.13,0-3.13,3-3.13.46,0,.92,0,1.39,0,1,0,1.4.48,1.54,1.46C74.56,55.44,73,57,69.09,56a2,2,0,0,1-1-1.2A6.18,6.18,0,0,1,68,53Zm4.61-1.83c-1,0-1.79,0-2.57,0A1.06,1.06,0,0,0,69,52.49c.11.74.19,1.84.65,2.11,1.73,1,3.18,0,3.14-2.13C72.74,52.07,72.68,51.68,72.62,51.12Z"/><path class="cls-1" d="M52.57,52.93c0-3.12,0-3.12,3-3.11l1.37,0c.88,0,1.3.47,1.32,1.39,0,1.08.12,2.16.19,3.24s-.35,1.55-1.34,1.58l-1.56,0C52.57,56.07,52.57,56.07,52.57,52.93Zm2.78,1.86c1.71,0,1.94-.18,2-1.71,0-1.73-.21-2-1.93-2s-1.86.22-1.87,1.83S53.71,54.77,55.35,54.79Z"/><path class="cls-1" d="M68,61c0-.27,0-.54,0-.82,0-2,.15-2.1,2-2.15,4.05-.12,4.23.07,4,4.27-.09,1.62-.32,1.87-1.88,2-.32,0-.65,0-1,0C68,64.26,68,64.26,68,61Zm2.82,2c1.75,0,1.93-.17,1.94-1.95s-.14-2-1.85-2-2,.23-2,2S69.1,63,70.81,63Z"/><path class="cls-1" d="M70.89,31.5c-.13,0-.26,0-.4,0-2.49,0-2.49,0-2.5-2.64,0-3.61,0-3.61,3.4-3.58,2.44,0,2.56.14,2.59,2.66v.41C74,31.51,74,31.51,70.89,31.5Zm1.86-3c0-1.79-.17-2-1.87-2s-2,.18-1.95,2.1c0,1.75.16,1.88,2,1.87S72.76,30.36,72.75,28.53Z"/><path class="cls-1" d="M58.29,36.6c0,3.1,0,3.1-3.09,3.09q-.69,0-1.38,0a1.14,1.14,0,0,1-1.23-1.27q0-1.85,0-3.69c0-.86.52-1.2,1.28-1.23l1.38,0C58.29,33.44,58.29,33.44,58.29,36.6Zm-2.84,1.81c1.64,0,1.87-.23,1.87-1.83s-.19-1.84-1.84-1.85-2,.21-2,1.92S53.77,38.42,55.45,38.41Z"/><path class="cls-1" d="M52.57,44.57c0-.34,0-.68,0-1,.07-1.69.2-1.83,1.81-1.91,4-.2,4-.2,3.9,4,0,2.07-.14,2.18-2.11,2.23h-.39C52.56,47.9,52.56,47.9,52.57,44.57Zm4.75.19c0-1.62-.21-1.83-1.85-1.85s-1.92.2-1.95,1.74c0,1.72.2,2,1.94,2S57.32,46.38,57.32,44.76Z"/><polygon class="cls-1" points="57.92 27.82 57.92 27.86 57.98 27.82 57.92 27.82"/><path class="cls-1" d="M64,26.64a1.77,1.77,0,0,0-1.79-1.3h-.9v-.17a6.36,6.36,0,0,0,0-1,1.67,1.67,0,0,0-1.81-1.56,1.69,1.69,0,0,0-1.54,1.81v.9h-.53a5.32,5.32,0,0,0-.78.06,1.7,1.7,0,0,0-1.47,1.79,1.66,1.66,0,0,0,1.76,1.54h1c0,.15,0,.29,0,.43s0,.53,0,.79a1.61,1.61,0,0,0,.68,1.25,1.67,1.67,0,0,0,.95.3,1.84,1.84,0,0,0,.47-.06,1.73,1.73,0,0,0,1.28-1.8c0-.26,0-.51,0-.79v-.12h1.14a1.6,1.6,0,0,0,1.26-.67A1.63,1.63,0,0,0,64,26.64Zm-1,.82a.8.8,0,0,1-.72.37H60.38v.08h0v.81h0v.78a3,3,0,0,1-.06.52.72.72,0,0,1-1.36.08,1.69,1.69,0,0,1-.12-.53c0-.64,0-1.2,0-1.72h-.91a3.53,3.53,0,0,1-1.43-.16.68.68,0,0,1-.36-.74.74.74,0,0,1,.69-.65l.51,0h.17c.14,0,.28,0,.42,0h.91v-1c0-.15,0-.31,0-.47v-.14a2.33,2.33,0,0,1,0-.54.72.72,0,0,1,.73-.61h0a.7.7,0,0,1,.72.61,6.05,6.05,0,0,1,0,1c0,.06,0,.13,0,.19v1h1.92a.87.87,0,0,1,.75.43A.71.71,0,0,1,63,27.46Z"/></svg>