<svg id="Capa_1" data-name="Capa 1" xmlns="http://www.w3.org/2000/svg" viewBox="0 0 30 30"><defs><style>.cls-1{fill:#fff;}</style></defs><title>icons-contacto</title><path class="cls-1" d="M5.11,7.55H25.17a5.15,5.15,0,0,1-.41.45c-3.08,2.63-6.16,5.24-9.23,7.88-.4.35-.64.21-1-.06-2.37-2-4.75-4-7.12-6.06-.8-.67-1.59-1.36-2.39-2Z"/><path class="cls-1" d="M25.09,22.45H4.91c.69-.6,1.22-1.09,1.78-1.56,1.86-1.58,3.74-3.15,5.59-4.74a.66.66,0,0,1,1,0c.38.33.78.63,1.16,1a.78.78,0,0,0,1.17,0A13,13,0,0,1,17.08,16a.75.75,0,0,1,.7,0c2.42,2,4.83,4.13,7.24,6.2,0,0,0,.08.07.24"/><path class="cls-1" d="M3.85,21.66c-.22-4.46-.13-8.91,0-13.6L11.93,15,4.05,21.78l-.2-.12"/><path class="cls-1" d="M26.28,8.19V21.72c-.35-.25-.57-.38-.77-.55-2.27-1.92-4.52-3.86-6.79-5.77-.36-.31-.34-.51,0-.8l7-6.07c.11-.09.24-.15.52-.34"/></svg>