<svg id="Capa_1" data-name="Capa 1" xmlns="http://www.w3.org/2000/svg" viewBox="0 0 116 103.46"><defs><style>.cls-1{fill:#00c1ee;}</style></defs><title>MAQUETA HBICOM HOME</title><path class="cls-1" d="M73.34,59.86V48.24c0-8.33,0-16.67,0-25,0-1.89-.51-2.57-2.45-2.56q-18.45.11-36.9,0c-2.06,0-2.6.76-2.59,2.71q.09,25.24,0,50.5c0,2.2.66,3,2.91,3,7.68-.11,15.37,0,23.06-.07A6.61,6.61,0,0,1,62,78.38c3.53,2.89,7.28,5.51,11.18,8.42-1,0-1.73.12-2.49.12H33.31c-4.69,0-6.64-2-6.65-6.65V21.53c0-5.23,1.79-7,7-7H71.51c4.75,0,6.6,1.84,6.6,6.63q0,16.5,0,33C78.12,58.19,77.91,58.45,73.34,59.86ZM51.81,84.72l1.11,0c.63-.94,1.77-1.89,1.74-2.81a3.32,3.32,0,0,0-2.16-2.25,1.9,1.9,0,0,0-2.41,2.19C50.22,82.88,51.2,83.78,51.81,84.72Z"/><path class="cls-1" d="M68.63,73.16Q64.31,67.4,60,61.63c-.68-.9-1.39-1.78-2.09-2.67-1.2-1.55-1.39-3.26.06-4.59s3.25-.68,4.55.57c1.63,1.57,3.08,3.32,4.58,5,3.78,4.23,3.77,4.24,8.76,1.52,1.78-1,3.54-1.95,5.34-2.87C84.44,57,86,57.1,88.12,60c2.48,3.36,4.54,7,6.94,10.46,1.39,2,3.12,3.77,4.65,5.68a36.75,36.75,0,0,1,3.48,4.62c1,1.69.33,3.35-1.15,4.52-3.8,3-7.63,6-11.52,8.89-2,1.52-4,1.32-5.5-.73-1.28-1.78-2.1-3.89-3.27-5.76a3.56,3.56,0,0,0-2-1.72c-7.09-1-12-5.8-17.14-10-1.26-1-2.72-2.61-.85-4.26a3.8,3.8,0,0,1,3.08-.29,18,18,0,0,1,3.51,2Zm28.64,4.59-12.92,10L88,92.51l12.94-10Z"/><path class="cls-1" d="M60.12,66.29C57.49,68,54.84,67.42,52.35,66A16.1,16.1,0,0,1,44,54.14a4.14,4.14,0,0,0-2-3,8.66,8.66,0,0,1-3-3.92c-1.31-3.63-2.26-7.4-3.3-11.13-1.17-4.19.55-7.41,4.31-7.95.62-.09,1.34.47,2,.72-.59.5-1.14,1.37-1.77,1.43-2.81.26-4.09,1.82-3.22,4.73.95,3.17,2.21,6.24,3.38,9.34a17.76,17.76,0,0,0,1.61,3.51c1.35,2.08,3.58,2.11,4.59-.09A126.2,126.2,0,0,0,51.77,35.2c1-3-.38-4.5-3.42-4.92-.51-.06-.91-.86-1.36-1.31.55-.36,1.11-1,1.65-1a5.64,5.64,0,0,1,4.9,5.22,17.42,17.42,0,0,1-.84,4.24c-.9,3.18-1.76,6.38-2.9,9.48a9.86,9.86,0,0,1-2.59,3.93A3.23,3.23,0,0,0,46,54.14a13.51,13.51,0,0,0,6.92,10c1.47.83,3.51.64,5.29.91l2.08.33Z"/><path class="cls-1" d="M55.15,59.05c-3.85-3-4.92-6.86-3.46-10.64,1.39-3.62,4.46-5.38,8.69-5,.87.07,1.84-.31,2.62,0a5.1,5.1,0,0,1,2.74,1.77,2.77,2.77,0,0,1-1.13,2.48,3.71,3.71,0,0,1-3-.87,4.78,4.78,0,0,0-7.69,1.8c-.66,1.71-.35,3.88-.17,5.81A27.08,27.08,0,0,0,55.15,59.05Z"/><path class="cls-1" d="M60.43,42.06c1.25-2,3.3-2.44,5.43-1.51A5.79,5.79,0,0,1,69,47.41a5.73,5.73,0,0,1-6.21,3.92A4.88,4.88,0,0,1,58.5,46c2,3.06,4,5.65,7.61,3.26a3.89,3.89,0,0,0,1.62-4.9C66.41,41,63.72,40.81,60.43,42.06Z"/></svg>