<svg id="Capa_1" data-name="Capa 1" xmlns="http://www.w3.org/2000/svg" viewBox="0 0 116 103.46"><defs><style>.cls-1{fill:#08d7ab;}</style></defs><title>MAQUETA HBICOM HOME</title><path class="cls-1" d="M19.06,46.57a4.9,4.9,0,0,1-.42-.91,1.65,1.65,0,0,1,1.48-2.11c.87-.1,1.74-.14,2.61-.21l9.71-.67c2.22-.15,4.43-.35,6.64-.47s4.64-.32,7-.23a8.15,8.15,0,0,1,7.51,5.17,7.31,7.31,0,0,1,.61,2.78c0,.32-.07.41-.39.41l-14.89,0c-3.58,0-7.15,0-10.72-.06-3.19,0-6.38-.06-9.57-.1a1.75,1.75,0,0,1-1.7-1.25,1.66,1.66,0,0,1,.95-2,4.37,4.37,0,0,1,1-.2Z"/><path class="cls-1" d="M60.21,40.36a4.92,4.92,0,1,1-5,4.88A4.87,4.87,0,0,1,60.21,40.36Z"/><path class="cls-1" d="M67.5,58.94V52.4c0-.71,0-.72-.71-.72H12.07c-.61,0-.61,0-.61.6,0,2.21,0,4.42,0,6.62,0,.43.12.55.54.55l8,0v0H37.38v0H67.5Z"/><path class="cls-1" d="M98.11,48.06c-.18-1.8-.42-3.6-.7-5.39-.32-2-.65-4-1.09-6-.39-1.76-.93-3.49-1.43-5.22a30.85,30.85,0,0,0-2.3-5.65h0l0,0,0,0-.9-1.52h0c-.19-.41-.6-.79-.9-.79H74.53l-.42,0a41.94,41.94,0,0,1,5.37,9.23,9,9,0,0,0,.45.86l.38,1.16.06.23C80.93,37,81.61,39,82,41.12a58.5,58.5,0,0,1,.7,5.93,33.28,33.28,0,0,1-.39,8.4c-.27,1.75-.7,3.47-1.13,5.18a36.52,36.52,0,0,1-2.63,7,48.62,48.62,0,0,1-4.23,6.93,4.41,4.41,0,0,1-3.43,2H33.68a1.84,1.84,0,0,0-.41,0l-.08,0a1.19,1.19,0,0,0-1,.77,1.89,1.89,0,0,0-.35,1.09V87s0,.05,0,.08c0,.22,0,.43,0,.65a1.86,1.86,0,0,0,2,2h.27L77.22,89v0h.37l7.48-.15,4.58-.07c1.16,0,2.31,0,3.47,0a1.77,1.77,0,0,0,1.67-2.11c-.19-.73-.39-1.46-.59-2.19l-1.83-6.74c-.09-.36-.33-.77-.24-1.08a1.38,1.38,0,0,0,0-.26l.3-.25,2.23-4.75.24-.54h0a38.07,38.07,0,0,0,1.92-5.69,48.26,48.26,0,0,0,1.38-8A49.3,49.3,0,0,0,98.11,48.06Z"/><path class="cls-1" d="M76.72,40.88c-.07-.37-.13-.75-.2-1.15l-.11-.83L76,37l-.4-1.49c-.47-1.28-.9-2.59-1.41-3.86A21.81,21.81,0,0,0,70.06,25a11.11,11.11,0,0,0-6.89-3.92,8.68,8.68,0,0,0-4.53.62A13.49,13.49,0,0,0,53.3,26a25,25,0,0,0-3.21,5.49c-.39.89-.7,1.81-1.09,2.84a10.6,10.6,0,0,1,4.44-1.26c.13,0,.28-.2.36-.35.29-.53.54-1.09.84-1.63a15.66,15.66,0,0,1,2.93-4,7.65,7.65,0,0,1,3.42-2,5.06,5.06,0,0,1,4,.76,13.54,13.54,0,0,1,4.76,5.65,32.07,32.07,0,0,1,1.58,3.78,29.67,29.67,0,0,1,1,3.34,28.63,28.63,0,0,1,.54,3c.19,1.49.4,3,.46,4.48a38.52,38.52,0,0,1-.7,9.46c-.21.94-.36,1.9-.61,2.83a27.09,27.09,0,0,1-2.72,6.7A13.06,13.06,0,0,1,65,69.89,5,5,0,0,1,60,70.3a10,10,0,0,1-3.17-2.43.77.77,0,0,0-.53-.24c-1.37,0-2.73,0-4.09,0l-.35,0a18.52,18.52,0,0,0,3,3.78,11.09,11.09,0,0,0,5.17,3,9,9,0,0,0,6.13-.73,13.89,13.89,0,0,0,4.9-4.26,7.64,7.64,0,0,0,.8-1.07h0l.68-1.12h0l0-.06.79-1.56h0l.29-.64.29-.61a.67.67,0,0,0,.1-.19c.1-.32.26-.62.36-.94.55-1.7,1.13-3.39,1.61-5.11A21.31,21.31,0,0,0,76.66,55c.22-1.74.45-3.48.52-5.22A43.15,43.15,0,0,0,76.72,40.88Z"/></svg>