<svg id="Capa_1" data-name="Capa 1" xmlns="http://www.w3.org/2000/svg" viewBox="0 0 126.39 133.69"><defs><style>.cls-1{fill:#00c6f3;}.cls-2{fill:#2a3b47;}</style></defs><title>logo-committe</title><path class="cls-1" d="M45.63,34.45A12.45,12.45,0,1,1,58.07,46.89,12.44,12.44,0,0,1,45.63,34.45Z"/><path class="cls-1" d="M64.06,55.37a13.41,13.41,0,0,1,2.55-7.29,15.86,15.86,0,0,0-3.25-.34H52.8a15.71,15.71,0,0,0-3.25.34,13.49,13.49,0,0,1,2.56,7.85,13.59,13.59,0,0,1,12-.56Z"/><path class="cls-2" d="M66.16,56.49A14.23,14.23,0,0,1,72.78,67a11.46,11.46,0,1,0-6.62-10.55Z"/><path class="cls-2" d="M58.65,80A11.47,11.47,0,1,0,47.18,68.5,11.48,11.48,0,0,0,58.65,80Z"/><path class="cls-2" d="M63.51,80.75H53.78A14.7,14.7,0,0,0,39.1,95.43v11.9l0,.19.82.26a67,67,0,0,0,20,3.22c10.79,0,17-3.08,17.43-3.28l.76-.39h.08V95.43A14.69,14.69,0,0,0,63.51,80.75Z"/><path class="cls-2" d="M82.49,68.91H72.83a14.1,14.1,0,0,1-4.36,9.85A17.44,17.44,0,0,1,80.93,95.45v3.67c9.53-.35,15-3.05,15.39-3.23l.77-.39h.08V83.59A14.7,14.7,0,0,0,82.49,68.91Z"/><path class="cls-1" d="M85.07,45a14.22,14.22,0,0,1,6.61,10.56A11.46,11.46,0,1,0,85.07,45Z"/><path class="cls-1" d="M101.39,57.37H91.74a14.19,14.19,0,0,1-4.36,9.85A17.45,17.45,0,0,1,99.84,83.91v3.67c9.53-.35,15-3,15.39-3.23L116,84h.08V72.05A14.69,14.69,0,0,0,101.39,57.37Z"/><path class="cls-2" d="M38.53,68.13a11.46,11.46,0,0,0,6.1-1.77,14.19,14.19,0,0,1,5.33-9c0-.22,0-.43,0-.65A11.47,11.47,0,1,0,38.53,68.13Z"/><path class="cls-2" d="M48.83,78.76A14.13,14.13,0,0,1,44.47,69c-.36,0-.71-.06-1.08-.06H33.66A14.7,14.7,0,0,0,19,83.59V95.5l0,.18.82.26A69,69,0,0,0,36.36,99V95.45A17.45,17.45,0,0,1,48.83,78.76Z"/></svg>