<svg id="Capa_1" data-name="Capa 1" xmlns="http://www.w3.org/2000/svg" viewBox="0 0 144.56 29.52"><defs><style>.cls-1{fill:#23526f;}.cls-2{fill:#159e93;}.cls-3{fill:#08dcb0;}.cls-4{fill:#ffbd60;}.cls-5{fill:#f1a943;}.cls-6{fill:#ed9738;}.cls-7{fill:#f5f6f6;}</style></defs><title>Logo-hbicom-rect</title><rect class="cls-1" x="7.35" y="3.94" width="21.64" height="21.64"/><rect class="cls-2" x="28.99" y="3.94" width="21.64" height="21.64"/><rect class="cls-3" x="50.64" y="3.94" width="21.64" height="21.64"/><rect class="cls-4" x="72.28" y="3.94" width="21.64" height="21.64"/><rect class="cls-5" x="93.92" y="3.94" width="21.64" height="21.64"/><rect class="cls-6" x="115.57" y="3.94" width="21.64" height="21.64"/><path class="cls-7" d="M14.85,7.43v6.12h6.64V7.43h3.3V22.08h-3.3V16.31H14.85v5.77h-3.3V7.43Z"/><path class="cls-7" d="M45.54,11.1A3.24,3.24,0,0,1,43,14.32,3.58,3.58,0,0,1,46.06,18c0,2.51-2.13,4.06-5.52,4.06h-7V7.43h6.74C43.53,7.43,45.54,8.84,45.54,11.1Zm-3.39.6c0-1-.76-1.59-2-1.57H36.87v3.21h3.27C41.39,13.34,42.15,12.73,42.15,11.7Zm.5,5.91c0-1.07-1-1.72-2.51-1.7H36.87v3.47h3.27C41.69,19.38,42.65,18.74,42.65,17.61Z"/><path class="cls-7" d="M63.11,7.43V22.08h-3.3V7.43Z"/><path class="cls-7" d="M84.15,10.18a4.4,4.4,0,0,0-4.46,4.5,4.43,4.43,0,0,0,4.46,4.52A5.65,5.65,0,0,0,88,17.48l1.94,2.11A8.55,8.55,0,0,1,84,22.21a7.44,7.44,0,0,1-7.68-7.49c0-4.23,3.37-7.41,7.81-7.41a8.31,8.31,0,0,1,5.77,2.43L88,12.08A5.31,5.31,0,0,0,84.15,10.18Z"/><path class="cls-7" d="M112.62,14.74a7.88,7.88,0,0,1-15.74,0c0-4.27,3.39-7.43,7.87-7.43S112.62,10.49,112.62,14.74Zm-12.35,0a4.55,4.55,0,0,0,4.52,4.58,4.49,4.49,0,0,0,4.44-4.58,4.45,4.45,0,0,0-4.44-4.54A4.5,4.5,0,0,0,100.27,14.74Z"/><path class="cls-7" d="M122.14,7.43l4.27,9,4.25-9h3.68V22.08h-3V12.21l-3.89,8.39h-2.16l-3.89-8.39v9.87h-3V7.43Z"/></svg>