<svg id="Capa_1" data-name="Capa 1" xmlns="http://www.w3.org/2000/svg" viewBox="0 0 144.83 51.05"><defs><style>.cls-1,.cls-14,.cls-15{fill:#561826;}.cls-12,.cls-2{fill:#22263e;}.cls-10,.cls-11,.cls-14,.cls-2,.cls-3,.cls-4,.cls-5,.cls-6,.cls-7,.cls-8,.cls-9{fill-rule:evenodd;}.cls-3{fill:#d28922;}.cls-4{fill:#bb1c1f;}.cls-5{fill:#5392cc;}.cls-6{fill:#aec033;}.cls-7{fill:#7c3f83;}.cls-8{fill:#ced143;}.cls-9{fill:#599c9f;}.cls-10{fill:#ac1456;}.cls-11{fill:#2e3d76;}.cls-13{fill:#232640;}.cls-15{font-size:4.8px;font-family:Raleway-Regular, Raleway;}</style></defs><title>logo</title><rect class="cls-1" x="27.04" y="38.37" width="88.92" height="0.47"/><path class="cls-2" d="M29.71,17a.62.62,0,0,1,.62.62.63.63,0,1,1-.62-.62m1.55,1.26a.35.35,0,1,1-.35.35A.35.35,0,0,1,31.26,18.3Zm0,4a.24.24,0,1,1-.24.24A.23.23,0,0,1,31.3,22.29ZM31,26.42a.25.25,0,1,1,0,.49.25.25,0,0,1,0-.49Zm-.63-1.65a.31.31,0,1,1-.31.31A.31.31,0,0,1,30.37,24.77Zm-.75-1.25v4.73l-.38.36a2,2,0,1,0,2.75,0l-.38-.36V23.5h-.52a.31.31,0,0,0-.31-.28.3.3,0,0,0-.31.28h-.06c0-.11-.18-.4-.39-.4s-.4.28-.4.4Zm3.2-3.69H28.41a.24.24,0,0,0-.17.07h0a.28.28,0,0,0-.07.17.26.26,0,0,0,.07.17h0a.24.24,0,0,0,.17.07h.3v7.55l-.1.09a3.08,3.08,0,0,0-.67,1,3,3,0,0,0-.23,1.15A2.9,2.9,0,0,0,30.61,33a2.9,2.9,0,0,0,2.91-2.91A2.93,2.93,0,0,0,32.61,28l-.09-.09V20.31h.3a.28.28,0,0,0,.17-.07h0a.25.25,0,0,0,.06-.17A.27.27,0,0,0,33,19.9h0a.28.28,0,0,0-.17-.07Zm-4.41-.6h4.41a.8.8,0,0,1,.59.25h0a.82.82,0,0,1,0,1.18h0a.84.84,0,0,1-.29.2v6.75a3.42,3.42,0,0,1,.72,1.07,3.51,3.51,0,0,1,.29,1.38,3.52,3.52,0,0,1-3.52,3.52,3.52,3.52,0,0,1-3.51-3.52,3.35,3.35,0,0,1,.29-1.38,3.39,3.39,0,0,1,.71-1.07V20.86a.84.84,0,0,1-.29-.2h0a.82.82,0,0,1,0-1.18h0a.81.81,0,0,1,.6-.25Z"/><path class="cls-3" d="M28.73,11.19c.82,1.22,1.33.73,1.33,2.67,0,.91-1.66,2-2.13,2.66a5.32,5.32,0,0,0,.79.94,1,1,0,0,1,2,.2,1,1,0,0,1-.38.79l.22,0a.74.74,0,0,1,.71-.56.72.72,0,0,1,.63.36A5.81,5.81,0,0,0,33.42,17c2.8-2.8,2-3.24-.79-6.06a2.42,2.42,0,0,0-3.9.3"/><path class="cls-4" d="M27.13,6.53c0,1.38,2,2.8,2.53,2.8s1.24-.65,1.63-1c1.17-1.18,1.63-1.65.07-3.2-.45-.44-.79-1-1.6-1s-1.12.48-1.53.9-1.1.87-1.1,1.57"/><path class="cls-5" d="M24.33,13.32c0,.92,0,.87,1,1.84,1.4,1.42,2,.84,3-.14,1.36-1.35,1.33-1.79-.06-3.2-1.24-1.25-1.76-1.11-2.93.07-.38.39-1,.75-1,1.43"/><path class="cls-6" d="M22.73,18.92c0,.67.18.77.68,1.32l.07.06c1.16,1.23,1.74,1.52,3.15.12s.76-2-.13-2.87c-1.23-1.23-1.64-1.23-2.87,0-.37.37-.9.7-.9,1.37"/><path class="cls-7" d="M22.33,8a2.88,2.88,0,0,0,2,2c.61,0,.84-.36,1.17-.69.74-.75,1.38-1.21.14-2.47-1-1-1.49-1.14-2.47-.14-.36.37-.84.65-.84,1.31"/><path class="cls-8" d="M23.53,3.6c0,.23.71,1.2,1.34,1.2A1.42,1.42,0,0,0,26.2,3.33c0-.39-.91-1.19-1.33-1.19A1.7,1.7,0,0,0,23.53,3.6"/><path class="cls-9" d="M21.8,14.25a1.41,1.41,0,0,0,1.47-1.33,2.21,2.21,0,0,0-1.2-1.2,1.69,1.69,0,0,0-1.4,1.15c-.11.51.77,1.38,1.13,1.38"/><path class="cls-10" d="M31.92,3.47a1.45,1.45,0,0,0,1.2,1.33c2.31-1.55,0-2.27-.13-2.27-.3,0-1.07.82-1.07.94"/><path class="cls-11" d="M20.34,10.39c0,.42.64,1.76,1.73.14-.38-1.64-1.73-.75-1.73-.14Z"/><path class="cls-12" d="M45.18,32.11v-6c0-2.47-.92-4.13-3.67-4.13a4.62,4.62,0,0,0-3.3,1.18,2.46,2.46,0,0,0-.48-.57,2.57,2.57,0,0,0-1.4-.48c-.85,0-1.46.37-1.46,1.22a1,1,0,0,0,.41.86,1.36,1.36,0,0,1,.63,1.24v6.71a1.48,1.48,0,0,0,3,0V25.62a2.19,2.19,0,0,1,1.84-.89c1.29,0,1.53.8,1.53,1.7v5.68a1.48,1.48,0,0,0,3,0"/><path class="cls-12" d="M56.9,23.76A1.36,1.36,0,0,0,55.54,22a1.33,1.33,0,0,0-1.29,1c-.72,2.19-1.59,4.79-2.4,7-.81-2.2-1.69-4.83-2.34-7a1.27,1.27,0,0,0-1.25-1,1.32,1.32,0,0,0-1.33,1.75c.83,2.77,1.94,5.86,3,8.41.5,1.23,1.11,1.47,1.95,1.47s1.39-.24,1.94-1.47c1.09-2.58,2.21-5.53,3.13-8.35"/><path class="cls-12" d="M64.68,26.47H61.29v-.28c0-1.25.57-2,1.72-2s1.67.7,1.67,2Zm2.84,1.16v-.94C67.52,24.16,66.27,22,63,22s-4.61,2.25-4.61,4.81v2c0,2.56,1.2,4.79,4.59,4.79a8.25,8.25,0,0,0,3.43-.7A1.13,1.13,0,0,0,67,31.43a1.07,1.07,0,0,0-1.42-.74,5.72,5.72,0,0,1-2.45.48c-1.22,0-1.81-.76-1.81-2.07v-.42h5.22A1,1,0,0,0,67.52,27.63Z"/><path class="cls-12" d="M77.74,30c0-2.38-1.53-3-3-3.3s-2.69-.37-2.69-1.38c0-.5.46-.94,1.49-.94a6.24,6.24,0,0,1,2.14.44,1.24,1.24,0,0,0,.75-2.36A8.78,8.78,0,0,0,73.4,22c-2.19,0-4.09,1.2-4.09,3.54a2.94,2.94,0,0,0,2.6,3.15c1.49.39,3,.35,3,1.46,0,.66-.64,1.07-1.75,1.07a5.56,5.56,0,0,1-2.3-.41,1.24,1.24,0,0,0-1.61.78A1.27,1.27,0,0,0,70,33.12a8.89,8.89,0,0,0,3.17.46c2.34,0,4.56-1,4.56-3.61"/><path class="cls-12" d="M86.64,32.13a1.29,1.29,0,0,0-1.29-1.29h-.42c-1.39,0-1.72-.74-1.72-2.53l0-3.8h1.68a1.22,1.22,0,1,0,0-2.43H83.19V20.59a1.48,1.48,0,1,0-3,0v1.49h-.35a1.22,1.22,0,0,0,0,2.43h.35v3.86c0,3,1.13,5.08,4.28,5.08h.83a1.31,1.31,0,0,0,1.29-1.32"/><path class="cls-13" d="M91.21,32.11V23.44a1.48,1.48,0,1,0-2.95,0v8.67a1.48,1.48,0,0,0,2.95,0"/><path class="cls-12" d="M100.1,29.66a2.91,2.91,0,0,1-1.68.62c-1.27,0-1.68-.68-1.68-2V26.52c0-1.36.52-2.08,1.68-2.08a2.48,2.48,0,0,1,1.68.74Zm3,2.8v-9A1.42,1.42,0,0,0,101.57,22c-.57,0-1.23.28-1.29.79l0,.17a3.71,3.71,0,0,0-2.49-1c-2.9,0-4,1.86-4,5v.83c0,3.22,1,5,3.95,5a4.69,4.69,0,0,0,2.36-.7v.57c0,1.57-.7,2.4-2.12,2.4a10.52,10.52,0,0,1-2.49-.44,1.17,1.17,0,0,0-1.22,1.18,1.29,1.29,0,0,0,.85,1.16,8.37,8.37,0,0,0,3.08.5C101.48,37.44,103.05,35.52,103.05,32.46Z"/><path class="cls-12" d="M111.53,29.77a1.55,1.55,0,0,1-1.7,1.71c-1.14,0-1.64-.46-1.64-1.27v-.15c0-.72.46-1.25,1.75-1.25h1.59Zm3.94,2.6a1.12,1.12,0,0,0-.42-.87,1.29,1.29,0,0,1-.57-1.22V26.63c0-3.28-1.2-4.68-4.37-4.68a6.69,6.69,0,0,0-3.47.81,1.19,1.19,0,1,0,1.26,2,3.84,3.84,0,0,1,2-.48c1.33,0,1.66.72,1.66,2v.41h-1.94c-2.8,0-4.33,1.27-4.33,3.32v.16c0,2,1.31,3.41,3.93,3.41a4.64,4.64,0,0,0,3-.92,2.35,2.35,0,0,0,.43.46,2.29,2.29,0,0,0,1.36.46C114.88,33.58,115.47,33.23,115.47,32.37Z"/><path class="cls-14" d="M43.62,8.94h-.13a.49.49,0,0,0-.55.55v6.18a2.61,2.61,0,0,1-2.84,2.85,2.62,2.62,0,0,1-2.86-2.85V9.49a.5.5,0,0,0-.55-.55h-.13a.49.49,0,0,0-.55.55v6.18a3.75,3.75,0,0,0,4.09,4.08,3.74,3.74,0,0,0,4.07-4.08V9.49a.5.5,0,0,0-.55-.55m10.91,0H54.4a.5.5,0,0,0-.55.55v8.24L47.68,9.26a.71.71,0,0,0-.62-.32H46.6a.49.49,0,0,0-.55.55V19a.5.5,0,0,0,.55.55h.13a.49.49,0,0,0,.54-.55V10.73l6.18,8.46a.68.68,0,0,0,.62.33h.46a.5.5,0,0,0,.55-.55V9.49A.49.49,0,0,0,54.53,8.94ZM60,13.28c-1.37-.43-1.83-.84-1.83-1.64A1.69,1.69,0,0,1,60,10a1.77,1.77,0,0,1,1.48.84.63.63,0,0,0,.62.39h.24a.54.54,0,0,0,.44-.19.47.47,0,0,0,0-.45A2.93,2.93,0,0,0,60,8.78a2.87,2.87,0,0,0-3.07,2.86c0,1.7,1.22,2.42,3,3,1.64.5,2.22,1,2.22,1.92A2,2,0,0,1,60,18.42a2.19,2.19,0,0,1-2.05-1.27.6.6,0,0,0-.6-.45h-.18a.52.52,0,0,0-.44.18.48.48,0,0,0-.06.44A3.4,3.4,0,0,0,60,19.65a3.2,3.2,0,0,0,3.47-3.1C63.46,14.73,62.08,13.93,60,13.28Z"/><path class="cls-14" d="M74.16,18.86,69.88,9.33a.62.62,0,0,0-.61-.39h-.39a.63.63,0,0,0-.62.4L64,18.86a.45.45,0,0,0,0,.47.44.44,0,0,0,.42.19h.19a.64.64,0,0,0,.61-.4l.73-1.63h2.41a.26.26,0,0,0,.26-.26v-.66a.25.25,0,0,0-.26-.26H66.45L69,10.65a.08.08,0,0,1,.14,0l2.53,5.66H69.8a.26.26,0,0,0-.26.26v.66a.26.26,0,0,0,.26.26h2.41L73,19.12a.63.63,0,0,0,.61.4h.18a.42.42,0,0,0,.42-.66"/><path class="cls-2" d="M89.76,17.82a1.47,1.47,0,1,1-1.48,1.47,1.47,1.47,0,0,1,1.48-1.47"/><text class="cls-15" transform="translate(27.22 44.37)">VICERRECTORADO DE INVESTIGACIÓN</text></svg>