<svg id="Capa_1" data-name="Capa 1" xmlns="http://www.w3.org/2000/svg" viewBox="0 0 144.833 51.05"><defs><style>.cls-1{fill:#6e6e6e;}.cls-1,.cls-10,.cls-11,.cls-12,.cls-13,.cls-14,.cls-16,.cls-17,.cls-18,.cls-19,.cls-2,.cls-20,.cls-4,.cls-5,.cls-6,.cls-7,.cls-8,.cls-9{fill-rule:evenodd;}.cls-2,.cls-3{fill:#581923;}.cls-4{fill:#20201e;}.cls-5{fill:#c2a86d;}.cls-6{fill:#6e1e18;}.cls-11,.cls-12,.cls-15,.cls-16,.cls-20,.cls-7,.cls-8{fill:none;}.cls-16,.cls-7{stroke:#8f7424;}.cls-7{stroke-miterlimit:22.926;stroke-width:0.567px;}.cls-13,.cls-14,.cls-15,.cls-8{stroke:#3d3d3b;stroke-width:0.208px;}.cls-11,.cls-12,.cls-13,.cls-14,.cls-15,.cls-16,.cls-20,.cls-8{stroke-linecap:round;stroke-linejoin:round;}.cls-9{fill:#4375b1;}.cls-10,.cls-14{fill:#f8ecaa;}.cls-11{stroke:#6e6e6e;stroke-width:0.284px;}.cls-12,.cls-20{stroke:#ab8b3a;}.cls-12{stroke-width:0.196px;}.cls-13,.cls-18{fill:#7f1f1c;}.cls-16,.cls-20{stroke-width:0.131px;}.cls-17{fill:#f7e884;}.cls-19{fill:#fff;}</style></defs><title>logo-unsa</title><path class="cls-1" d="M100.685,20.155c-3.024-.95-4.045-1.861-4.045-3.612a3.736,3.736,0,0,1,3.992-3.636,3.887,3.887,0,0,1,3.271,1.848,1.44,1.44,0,0,0,1.384.868h.518a1.145,1.145,0,0,0,.978-.418,1.031,1.031,0,0,0,.061-.99,6.521,6.521,0,0,0-6.212-4.026c-3.945,0-6.807,2.672-6.807,6.354,0,3.754,2.7,5.355,6.754,6.6,3.631,1.125,4.917,2.24,4.917,4.259,0,2.445-2,4.153-4.864,4.153a4.864,4.864,0,0,1-4.554-2.828,1.316,1.316,0,0,0-1.331-.987H94.36a1.182,1.182,0,0,0-.986.4,1.055,1.055,0,0,0-.123.965,7.535,7.535,0,0,0,7.381,5.17c4.45,0,7.679-2.89,7.679-6.871,0-4.02-3.048-5.806-7.626-7.251ZM88.54,10.544h-.291a1.1,1.1,0,0,0-1.214,1.214V30.024L73.36,11.266a1.539,1.539,0,0,0-1.374-.722H70.952a1.1,1.1,0,0,0-1.214,1.214V32.773a1.1,1.1,0,0,0,1.214,1.213h.291a1.094,1.094,0,0,0,1.213-1.213V14.506L86.131,33.264a1.539,1.539,0,0,0,1.374.722H88.54a1.094,1.094,0,0,0,1.213-1.213V11.758a1.1,1.1,0,0,0-1.213-1.214Zm-24.185,0h-.291a1.1,1.1,0,0,0-1.213,1.214V25.466c0,3.957-2.35,6.319-6.287,6.319-3.978,0-6.352-2.362-6.352-6.319V11.758A1.1,1.1,0,0,0,49,10.544h-.291a1.1,1.1,0,0,0-1.213,1.214V25.466c0,5.659,3.39,9.037,9.07,9.037,5.638,0,9.005-3.378,9.005-9.037V11.758A1.1,1.1,0,0,0,64.355,10.544Z"/><path class="cls-2" d="M132.027,32.537l-9.476-21.118a1.406,1.406,0,0,0-1.357-.875h-.873a1.406,1.406,0,0,0-1.359.882l-9.473,21.111a1.046,1.046,0,0,0-.022,1.045,1.012,1.012,0,0,0,.929.4h.42a1.406,1.406,0,0,0,1.359-.882l1.614-3.612h5.348a.577.577,0,0,0,.576-.576V27.447a.577.577,0,0,0-.576-.576h-4.184l5.668-12.529a.167.167,0,0,1,.3,0l5.615,12.529h-4.172a.577.577,0,0,0-.576.576v1.469a.577.577,0,0,0,.576.576H127.7l1.64,3.619a1.405,1.405,0,0,0,1.356.875h.388a1.078,1.078,0,0,0,.953-.416A1.035,1.035,0,0,0,132.027,32.537Z"/><rect class="cls-3" x="47.494" y="35.853" width="84.674" height="0.448"/><path class="cls-4" d="M28.913,5.667c8.96,0,16.224,9.028,16.224,20.165S37.873,46,28.913,46,12.69,36.968,12.69,25.832,19.953,5.667,28.913,5.667Z"/><path class="cls-5" d="M28.913,6.021c8.74,0,15.824,8.869,15.824,19.811s-7.084,19.81-15.824,19.81-15.824-8.87-15.824-19.81S20.174,6.021,28.913,6.021Z"/><path class="cls-4" d="M28.913,6.829c8.318,0,15.061,8.508,15.061,19s-6.743,19-15.061,19-15.061-8.507-15.061-19S20.6,6.829,28.913,6.829Z"/><path class="cls-5" d="M28.913,7.03c8.183,0,14.817,8.417,14.817,18.8s-6.634,18.8-14.817,18.8S14.1,36.215,14.1,25.831,20.73,7.03,28.913,7.03Z"/><path class="cls-4" d="M28.913,11.178c6.091,0,11.029,6.561,11.029,14.654S35,40.484,28.913,40.484s-11.028-6.56-11.028-14.652S22.822,11.178,28.913,11.178Z"/><path class="cls-6" d="M28.913,11.416c5.954,0,10.78,6.454,10.78,14.416s-4.826,14.414-10.78,14.414S18.134,33.793,18.134,25.832,22.96,11.416,28.913,11.416Z"/><path class="cls-4" d="M29.211,40.241c-.1,0-.2.005-.3.005h0c-.093,0-.186,0-.278,0h-.007c-5.821-.2-10.494-6.576-10.494-14.409q0-.473.023-.937H39.67c.014.31.023.622.023.937C39.693,33.66,35.026,40.03,29.211,40.241Z"/><path class="cls-7" d="M19.054,31.668l.036-.1c.27-.735.539-1.469.818-2.205s.539-1.469.818-2.2.544-1.469.813-2.205c.006-.021.014-.042.021-.063"/><path class="cls-7" d="M20.432,34.728l.266-.953q.3-1.1.617-2.2c.206-.735.407-1.469.617-2.205s.407-1.469.617-2.2.411-1.469.617-2.205c.006-.021.012-.042.016-.063"/><path class="cls-7" d="M22.445,37.363c.088-.461.175-.922.264-1.383.137-.735.279-1.469.416-2.2s.274-1.469.416-2.2.274-1.469.42-2.205.274-1.469.42-2.2.275-1.469.416-2.205l.009-.063"/><path class="cls-7" d="M25.009,39.272l.108-1.089c.073-.735.142-1.469.215-2.2s.146-1.469.219-2.2.142-1.469.215-2.2.146-1.469.219-2.205.147-1.469.224-2.2.142-1.469.215-2.205c0-.021.006-.042.008-.063"/><path class="cls-7" d="M27.925,40.186c.008-.668.012-1.335.016-2q.014-1.1.018-2.2c.01-.735.014-1.469.019-2.2s.009-1.469.018-2.2.009-1.469.018-2.205.014-1.469.023-2.2.009-1.469.018-2.205c0-.021,0-.042,0-.063"/><path class="cls-7" d="M30.912,40l-.147-1.815c-.059-.735-.123-1.469-.183-2.2s-.118-1.469-.178-2.2-.123-1.469-.187-2.2-.119-1.469-.178-2.205-.119-1.469-.179-2.2-.118-1.469-.178-2.205l-.007-.063"/><path class="cls-7" d="M33.689,38.757l-.1-.574c-.128-.735-.251-1.469-.379-2.2s-.251-1.469-.379-2.2-.256-1.469-.384-2.2-.256-1.469-.38-2.205-.251-1.469-.374-2.2-.256-1.469-.384-2.205c0-.021-.006-.042-.01-.063"/><path class="cls-7" d="M36.018,36.671l-.181-.691q-.287-1.1-.58-2.2c-.2-.734-.388-1.469-.585-2.2s-.384-1.469-.576-2.205-.388-1.469-.575-2.2-.389-1.469-.581-2.205c-.006-.021-.011-.042-.018-.063"/><path class="cls-7" d="M37.774,34.043l-.095-.268q-.392-1.1-.781-2.2c-.256-.735-.517-1.469-.777-2.205s-.517-1.469-.777-2.2-.517-1.469-.777-2.205l-.025-.063"/><path class="cls-7" d="M38.936,31.144c-.26-.592-.525-1.185-.787-1.778q-.492-1.1-.973-2.2c-.329-.735-.653-1.469-.982-2.205l-.028-.063"/><path class="cls-7" d="M39.548,28.191,39,27.163c-.4-.735-.786-1.469-1.179-2.205L37.79,24.9"/><path class="cls-7" d="M39.686,25.332l-.234-.374c-.012-.021-.026-.042-.04-.063"/><path class="cls-7" d="M23.353,38.183h11.12"/><path class="cls-7" d="M21.259,35.98H36.568"/><path class="cls-7" d="M19.917,33.775H37.91"/><path class="cls-7" d="M19.023,31.571H38.8"/><path class="cls-7" d="M18.46,29.366H39.366"/><path class="cls-7" d="M18.18,27.163H39.647"/><path class="cls-7" d="M18.154,24.958H39.673"/><path class="cls-8" d="M19.98,28.717l0,.379c4.964.041,10.143.353,14.522.131.61-1.083,1.355-2.194,1.966-3.277l.225,1.464-2.184,3.263c-4.669-.076-9.236-.153-13.906-.23.006-.174.013-.348.019-.522-.214.36-.532.72-.746,1.08,0,0-.1.26.306.283s14.3.338,14.3.338.323-.064.42-.245,2.129-3.522,2.129-3.522l.132-.225c.051-.454.106-2.174-.262-2.4l-13.013.133S20.586,28.188,19.98,28.717Z"/><path class="cls-9" d="M19.978,28.719l0,.379c4.963.04,10.142.352,14.521.131.611-1.083,1.355-2.194,1.967-3.277q.111.732.224,1.464-1.092,1.632-2.183,3.263L20.6,30.449l.018-.522c-.214.36-.531.72-.745,1.08,0,0-.1.259.306.283s14.3.338,14.3.338.323-.064.419-.245,2.129-3.522,2.129-3.522q.066-.114.132-.225c.052-.454.106-2.174-.261-2.4l-13.013.133S20.583,28.19,19.978,28.719Z"/><path class="cls-10" d="M20.6,29.112l0,1.335,13.906.232q1.092-1.631,2.183-3.263l-.207-1.352-.017-.112-.075.131-1.892,3.146C30.283,29.442,25.311,29.16,20.6,29.112Z"/><path class="cls-11" d="M20.6,29.112l0,1.335,13.906.232q1.092-1.631,2.183-3.263l-.207-1.352-.017-.112-.075.131-1.892,3.146C30.283,29.442,25.311,29.16,20.6,29.112Z"/><path class="cls-12" d="M24.926,26.532l-2.432-.273-.979.942-.029.219s0,.028.1.007a2.118,2.118,0,0,0,.334-.151,3.651,3.651,0,0,1,.666,0c.342.033.477.056.477.056a.648.648,0,0,0,.376.107c.229,0,.505-.028.651-.014a2.658,2.658,0,0,0,.356,0l.085-.094Z"/><path class="cls-10" d="M24.924,26.534l-2.433-.273-.979.942-.028.219s0,.027.1.006a2.027,2.027,0,0,0,.335-.15,3.642,3.642,0,0,1,.665,0c.343.033.477.056.477.056a.648.648,0,0,0,.376.107c.229,0,.506-.028.652-.014a2.641,2.641,0,0,0,.355,0l.086-.094Z"/><path class="cls-13" d="M26.025,25.343,24.349,26.9v.423c2.174.113,4.482.228,6.612.337l0,.833-6.616-.217,0,.607,6.465.209a1.169,1.169,0,0,0,.6-.316c.034-.085,1.39-1.8,1.39-1.8q-.115-.777-.23-1.554C30.344,25.458,28.259,25.3,26.025,25.343Z"/><path class="cls-14" d="M24.53,27.327l0,.949,6.435.217,0-.833C28.708,27.54,26.66,27.436,24.53,27.327Z"/><line class="cls-15" x1="30.961" y1="27.66" x2="32.584" y2="25.456"/><path class="cls-16" d="M29.625,18.134a.117.117,0,0,0-.017.061.12.12,0,0,0,.118.121.122.122,0,0,0,.07-.023l.012.009v.013a.119.119,0,0,0,.118.12.117.117,0,0,0,.08-.029l.017.01a.082.082,0,0,0,.082.079.086.086,0,0,0,.028,0l.02.014a.084.084,0,0,0,.083.081l.02,0,.012.013a.082.082,0,0,0-.012.041.084.084,0,0,0,.083.084.078.078,0,0,0-.019.051.083.083,0,0,1,.038.157.084.084,0,0,0,.054.079.115.115,0,0,0-.059.1.116.116,0,0,0,.062.105.117.117,0,0,0-.018.2.117.117,0,0,0-.047.191h-.008a2.58,2.58,0,0,1-.2.271.118.118,0,0,0,.01.05l-.019,0a.117.117,0,0,0-.118.116v.009h0a.117.117,0,0,0-.115.088.1.1,0,0,0-.024,0,.116.116,0,0,1-.182.049.118.118,0,0,0,0,.235.117.117,0,0,0,.11-.075.122.122,0,0,0,.072.026.117.117,0,0,0,.115-.089.1.1,0,0,0,.025,0,.116.116,0,0,0,.118-.116v-.009h0a.116.116,0,0,0,.107-.165l.02,0a2.475,2.475,0,0,1,.2-.272.118.118,0,0,0-.032-.082h.008a.116.116,0,0,0,.118-.116.112.112,0,0,0-.046-.094.117.117,0,0,0,.078-.11.115.115,0,0,0-.062-.1A.117.117,0,0,0,30.507,19l0-.015a.083.083,0,0,0,.02-.054.082.082,0,0,0-.069-.082l0-.008a.083.083,0,0,0-.047-.15.083.083,0,0,0-.065-.135.079.079,0,0,0-.04.01l0,0a.081.081,0,0,0,.024-.058.084.084,0,0,0-.083-.084.088.088,0,0,0-.052.018.067.067,0,0,0,0-.024.083.083,0,0,0-.082-.084.087.087,0,0,0-.04.009.117.117,0,0,1-.02-.021.12.12,0,0,0-.118-.12.119.119,0,0,0-.068.02l-.015-.006,0-.014a.121.121,0,0,0-.094-.118v-.01c.053-.018.085-.043.085-.07s-.039-.057-.1-.078l.012-.017a.124.124,0,0,0,.065-.041.135.135,0,0,0,.124.088.132.132,0,0,1,.227.086.133.133,0,0,0,.1-.047.289.289,0,0,0,0,.029.132.132,0,0,0,.131.133.13.13,0,0,0,.068-.018.154.154,0,0,0,0,.03.132.132,0,0,0,.131.133.134.134,0,0,0,.035,0,.126.126,0,0,0-.011.051.132.132,0,0,0,.131.133.153.153,0,0,0,.03,0,.128.128,0,0,0-.027.079.132.132,0,0,0,.131.133l.023,0a.125.125,0,0,0-.03.082A.133.133,0,0,0,31,18.9h.009a.205.205,0,0,0,.107.379.206.206,0,0,0,0-.411.222.222,0,0,0-.037,0,.13.13,0,0,0,.05-.1A.133.133,0,0,0,31,18.635l-.023,0a.131.131,0,0,0-.1-.215.145.145,0,0,0-.03,0,.128.128,0,0,0,.027-.079.133.133,0,0,0-.131-.133.2.2,0,0,0-.035,0,.119.119,0,0,0,.011-.051.133.133,0,0,0-.131-.133.134.134,0,0,0-.068.019.106.106,0,0,0,0-.031.131.131,0,0,0-.232-.086.136.136,0,0,0,0-.029.132.132,0,0,0-.13-.133.133.133,0,0,0-.1.041.132.132,0,0,0-.131-.127.135.135,0,0,0-.1.045.132.132,0,0,0-.237-.024.133.133,0,0,0-.045-.052.15.15,0,0,0,0-.037.136.136,0,0,0,0-.029.131.131,0,0,0,.012-.056.147.147,0,0,0-.07-.125.143.143,0,0,0,.072-.124.146.146,0,0,0-.053-.113.181.181,0,0,0,.09-.154.179.179,0,0,0-.123-.172.19.19,0,0,0-.063-.011.176.176,0,0,0-.151.266.193.193,0,0,0,.067.069.145.145,0,0,0-.056.113.147.147,0,0,0,.07.125.145.145,0,0,0-.072.124.135.135,0,0,0,.012.057.127.127,0,0,0,0,.028.105.105,0,0,0,0,.031.121.121,0,0,0-.043-.007.131.131,0,0,0-.124.085.129.129,0,0,0-.1-.047.132.132,0,0,0-.133.125.132.132,0,0,0-.229.088.133.133,0,0,0,0,.028.132.132,0,0,0-.234.083.153.153,0,0,0,0,.03.128.128,0,0,0-.067-.019.134.134,0,0,0-.124.182.1.1,0,0,0-.034-.005.132.132,0,0,0-.134.13.139.139,0,0,0,.026.08.1.1,0,0,0-.03,0,.132.132,0,0,0-.105.213l-.023,0a.132.132,0,0,0-.085.234.147.147,0,0,0-.036,0,.2.2,0,1,0,.11.033h.009a.133.133,0,0,0,.133-.131.134.134,0,0,0-.028-.083l.023,0a.132.132,0,0,0,.107-.211.1.1,0,0,0,.03,0,.131.131,0,0,0,.133-.13.14.14,0,0,0-.009-.051.186.186,0,0,0,.034,0,.131.131,0,0,0,.133-.13.1.1,0,0,0,0-.03.131.131,0,0,0,.068.019.133.133,0,0,0,.133-.131.143.143,0,0,0,0-.029.132.132,0,0,0,.234-.076.135.135,0,0,0,.1.043.13.13,0,0,0,.124-.086.137.137,0,0,0,.051.038.1.1,0,0,0,.02.028c-.053.018-.085.043-.085.07s.024.046.065.064l0,.018v.008a.118.118,0,0,0-.071.108V18.2l-.015.006a.12.12,0,0,0-.188.1.117.117,0,0,1-.02.021.076.076,0,0,0-.039-.01.082.082,0,0,0-.084.082.088.088,0,0,0,0,.024.084.084,0,0,0-.052-.018.083.083,0,0,0-.084.082.084.084,0,0,0,.023.058l0,0a.077.077,0,0,0-.04-.011.084.084,0,0,0-.084.083.087.087,0,0,0,.017.052.083.083,0,0,0-.051.149l0,.007a.085.085,0,0,0-.071.082.087.087,0,0,0,.019.054l0,.014a.117.117,0,0,0-.017.216.118.118,0,0,0-.065.1.12.12,0,0,0,.077.112.116.116,0,0,0,.067.211h.009a.119.119,0,0,0-.034.081.117.117,0,0,0,.09.115.1.1,0,0,0-.009.042.117.117,0,0,0,.117.118.061.061,0,0,0,.019,0,.118.118,0,0,0,.105.168h0v.008a.119.119,0,0,0,.116.119.1.1,0,0,0,.025,0,.619.619,0,0,1,.294.143.118.118,0,1,0,0-.235.114.114,0,0,0-.072.025.117.117,0,0,0-.108-.077.1.1,0,0,0-.025,0,.119.119,0,0,0-.114-.091h-.005v-.008a.117.117,0,0,0-.116-.119l-.02,0a.1.1,0,0,0,.012-.049.117.117,0,0,0-.09-.115.1.1,0,0,0,.009-.042.119.119,0,0,0-.117-.119H28.6a.12.12,0,0,0,.034-.082.118.118,0,0,0-.077-.111A.119.119,0,0,0,28.6,19.3a.117.117,0,0,0-.064-.105.118.118,0,0,0,.064-.1.116.116,0,0,0-.057-.1.083.083,0,0,0,.055-.078.08.08,0,0,0-.042-.073.409.409,0,0,1,.149-.217.07.07,0,0,0-.011-.042l.012-.011.021,0a.082.082,0,0,0,.083-.078l.022-.015a.076.076,0,0,0,.027.005.084.084,0,0,0,.084-.078l.016-.01a.119.119,0,0,0,.2-.087V18.3l.012-.008a.117.117,0,0,0,.069.023.12.12,0,0,0,.121-.118.118.118,0,0,0-.028-.078.072.072,0,0,0,.009-.02.987.987,0,0,0,.139.01.932.932,0,0,0,.12,0,.075.075,0,0,0,.021.034Zm-.27.426s-.106.177-.059.286a1.279,1.279,0,0,1,.072.191c.021.07.06.062.046.148a2.585,2.585,0,0,1-.028.3c-.032.143-.088.129-.112.311a.613.613,0,0,0,.019.291.326.326,0,0,1-.3-.41c.1-.338.181-.4.178-.459s-.047-.083-.1-.183-.106-.283-.049-.339-.029-.127.041-.217a.621.621,0,0,1,.3-.145c.087-.029,0,.222,0,.222Zm.2,0s.1.179.054.287a1.285,1.285,0,0,0-.076.191c-.022.069-.061.06-.049.147a2.389,2.389,0,0,0,.023.3c.029.143.086.131.106.313a.606.606,0,0,1-.024.291.326.326,0,0,0,.311-.405c-.092-.34-.174-.405-.169-.462s.048-.082.106-.181.111-.281.055-.338.032-.127-.037-.218a.617.617,0,0,0-.3-.15C29.475,18.309,29.56,18.561,29.56,18.561Z"/><path class="cls-17" d="M29.622,18.136a.127.127,0,0,0-.017.061.118.118,0,0,0,.118.12.122.122,0,0,0,.071-.022l.011.009v.013a.118.118,0,0,0,.118.12.119.119,0,0,0,.08-.029l.016.01a.083.083,0,0,0,.083.079.08.08,0,0,0,.027,0l.021.014a.083.083,0,0,0,.082.08.075.075,0,0,0,.021,0l.012.013a.073.073,0,0,0-.012.041.082.082,0,0,0,.082.084.083.083,0,0,0,.063.135.083.083,0,0,0,.01.151.12.12,0,0,0-.059.1.117.117,0,0,0,.063.105.119.119,0,0,0-.066.1.118.118,0,0,0,.047.1.116.116,0,0,0-.078.109.118.118,0,0,0,.032.082h-.008a.116.116,0,0,0-.111.158.116.116,0,0,0-.081.163l-.02,0a.117.117,0,0,0-.118.116v.009h0a.116.116,0,0,0-.114.088.107.107,0,0,0-.025,0,.116.116,0,0,0-.11.075.122.122,0,0,0-.072-.026.118.118,0,0,0,0,.235.118.118,0,0,0,.11-.075.122.122,0,0,0,.072.026.12.12,0,0,0,.115-.089l.024,0a.118.118,0,0,0,.119-.116v-.009h0a.117.117,0,0,0,.119-.116.114.114,0,0,0-.011-.049h.019a2.58,2.58,0,0,1,.2-.271.11.11,0,0,0-.032-.082h.009a.117.117,0,0,0,.118-.116.121.121,0,0,0-.046-.095.116.116,0,0,0,.015-.213A.118.118,0,0,0,30.505,19l0-.014a.083.083,0,0,0-.049-.136l0-.008a.081.081,0,0,0,.034-.066.082.082,0,0,0-.082-.084.083.083,0,0,0,.018-.051.082.082,0,0,0-.082-.084.08.08,0,0,0-.041.01l0,0a.086.086,0,0,0,.023-.058.083.083,0,0,0-.082-.084.078.078,0,0,0-.052.018.1.1,0,0,0,0-.025.085.085,0,0,0-.083-.084.084.084,0,0,0-.039.01.1.1,0,0,1-.021-.021.118.118,0,0,0-.118-.12.123.123,0,0,0-.068.02l-.014-.006V18.2a.119.119,0,0,0-.094-.118v-.01c.052-.018.084-.043.085-.07s-.039-.057-.1-.078a.1.1,0,0,0,.012-.017.134.134,0,0,0,.065-.041.132.132,0,0,0,.123.088.135.135,0,0,0,.1-.041.133.133,0,0,0,.131.127.131.131,0,0,0,.1-.047.143.143,0,0,0,0,.029.132.132,0,0,0,.2.115.1.1,0,0,0,0,.03.131.131,0,0,0,.13.133.129.129,0,0,0,.035,0,.145.145,0,0,0-.01.051.131.131,0,0,0,.13.133.155.155,0,0,0,.031,0,.13.13,0,0,0,.1.211.087.087,0,0,0,.023,0,.128.128,0,0,0-.029.082A.131.131,0,0,0,31,18.9h.009a.207.207,0,0,0-.1.172.206.206,0,0,0,.411,0,.207.207,0,0,0-.2-.207.219.219,0,0,0-.036,0A.132.132,0,0,0,31,18.637l-.023,0a.132.132,0,0,0-.1-.215.105.105,0,0,0-.031,0,.128.128,0,0,0,.027-.079.131.131,0,0,0-.13-.133.2.2,0,0,0-.035,0,.119.119,0,0,0,.01-.051.13.13,0,0,0-.2-.114.155.155,0,0,0,0-.031.132.132,0,0,0-.233-.086.289.289,0,0,0,0-.029.132.132,0,0,0-.228-.092.724.724,0,0,1-.354-.169.13.13,0,0,0-.114.063.137.137,0,0,0-.046-.053.1.1,0,0,0,.006-.036.136.136,0,0,0,0-.029.147.147,0,0,0,.011-.056.142.142,0,0,0-.07-.125.143.143,0,0,0,.072-.124.14.14,0,0,0-.053-.113.182.182,0,0,0-.095-.337.174.174,0,0,0-.177.173.17.17,0,0,0,.026.092.178.178,0,0,0,.066.07.145.145,0,0,0,.015.238.143.143,0,0,0-.072.124.121.121,0,0,0,.011.057.124.124,0,0,0,0,.027.166.166,0,0,0,0,.032.142.142,0,0,0-.042-.008.132.132,0,0,0-.124.086.129.129,0,0,0-.1-.047.131.131,0,0,0-.133.124.134.134,0,0,0-.1-.042.13.13,0,0,0-.133.13.136.136,0,0,0,0,.029.133.133,0,0,0-.235.083.154.154,0,0,0,0,.03.142.142,0,0,0-.068-.02.132.132,0,0,0-.123.183.1.1,0,0,0-.035,0,.131.131,0,0,0-.133.13.127.127,0,0,0,.026.079.153.153,0,0,0-.03,0,.131.131,0,0,0-.133.13.128.128,0,0,0,.028.083l-.023,0a.132.132,0,0,0-.085.234.155.155,0,0,0-.037,0,.205.205,0,1,0,.2.207.2.2,0,0,0-.093-.174h.009a.13.13,0,0,0,.133-.13.128.128,0,0,0-.028-.083l.023,0a.133.133,0,0,0,.108-.211.1.1,0,0,0,.03,0,.132.132,0,0,0,.133-.13.14.14,0,0,0-.01-.051.2.2,0,0,0,.035,0,.132.132,0,0,0,.133-.131.153.153,0,0,0,0-.03.128.128,0,0,0,.067.02.132.132,0,0,0,.133-.131.07.07,0,0,0,0-.029.132.132,0,0,0,.234-.076.133.133,0,0,0,.221-.043.127.127,0,0,0,.051.037.073.073,0,0,0,.019.029c-.052.018-.085.043-.085.07s.024.046.065.064l0,.018v.007a.12.12,0,0,0-.07.109v.013l-.014.006a.12.12,0,0,0-.188.1.165.165,0,0,1-.02.021.079.079,0,0,0-.04-.01.083.083,0,0,0-.084.082.061.061,0,0,0,0,.024.086.086,0,0,0-.052-.018.082.082,0,0,0-.084.082.085.085,0,0,0,.022.058l0,0a.081.081,0,0,0-.041-.011.083.083,0,0,0-.083.083.077.077,0,0,0,.017.051.084.084,0,0,0-.084.083.086.086,0,0,0,.033.067l0,.007a.083.083,0,0,0-.07.082.077.077,0,0,0,.019.053l-.005.015a.118.118,0,0,0-.017.216.117.117,0,0,0,.012.214.117.117,0,0,0,.068.212h.009a.113.113,0,0,0-.034.081.118.118,0,0,1,.081.157.116.116,0,0,0,.116.118.059.059,0,0,0,.019,0,.135.135,0,0,0-.011.049.117.117,0,0,0,.117.118h0v.009a.116.116,0,0,0,.116.118.106.106,0,0,0,.025,0,.117.117,0,0,0,.113.09.108.108,0,0,0,.072-.024.117.117,0,0,0,.227-.04.117.117,0,0,0-.116-.118.12.12,0,0,0-.072.024.117.117,0,0,0-.109-.076.1.1,0,0,0-.025,0,.117.117,0,0,0-.113-.091h0V20.03a.119.119,0,0,0-.117-.118l-.019,0a.118.118,0,0,0,.011-.05.117.117,0,0,0-.089-.115.115.115,0,0,0,.008-.041.117.117,0,0,0-.116-.119H28.6a.119.119,0,0,0,.033-.082.116.116,0,0,0-.076-.111.117.117,0,0,0-.015-.2.118.118,0,0,0,.006-.206.083.083,0,0,0,.056-.078.084.084,0,0,0-.042-.073.083.083,0,0,0,.082-.083.077.077,0,0,0-.017-.051.084.084,0,0,0,.084-.083.088.088,0,0,0-.011-.042l.012-.011.02,0a.083.083,0,0,0,.084-.078l.021-.015a.087.087,0,0,0,.028,0,.083.083,0,0,0,.083-.078l.017-.01a.124.124,0,0,0,.079.032.121.121,0,0,0,.121-.119V18.3l.012-.008a.13.13,0,0,0,.07.023.119.119,0,0,0,.092-.2.072.072,0,0,0,.009-.02,1.009,1.009,0,0,0,.139.01,1.163,1.163,0,0,0,.121,0,.079.079,0,0,0,.02.034Zm-.27.426s-.105.177-.059.286a1.239,1.239,0,0,1,.072.191c.022.07.061.061.047.148a2.42,2.42,0,0,1-.029.3c-.031.143-.088.129-.111.311a.585.585,0,0,0,.019.291.326.326,0,0,1-.3-.411c.1-.337.182-.4.178-.458s-.047-.083-.1-.183-.106-.283-.049-.339-.03-.127.04-.217a.621.621,0,0,1,.3-.145c.087-.029,0,.222,0,.222Zm.2,0s-.084-.252,0-.221a.608.608,0,0,1,.3.15c.069.091-.019.161.037.217s0,.239-.055.339-.1.124-.1.181.076.122.169.462a.326.326,0,0,1-.312.405.6.6,0,0,0,.025-.291c-.02-.182-.077-.17-.106-.313a2.4,2.4,0,0,1-.023-.3c-.013-.087.026-.078.049-.147a1.256,1.256,0,0,1,.075-.191C29.66,18.742,29.557,18.563,29.557,18.563Z"/><path class="cls-4" d="M31.5,28.753a.3.3,0,0,0-.225.171L31,29.4c-.029.051.012,2.284.012,2.284a.294.294,0,0,0,.265.225c.22.015,1.085.031,1.085.031a.194.194,0,0,0,.08-.168c-.01-.107-.051-2.4-.051-2.4l.2-.472a.109.109,0,0,0-.122-.15Z"/><path class="cls-5" d="M31.442,28.716a.3.3,0,0,0-.226.171l-.272.475c-.029.051.012,2.284.012,2.284a.3.3,0,0,0,.266.226c.22.014,1.085.03,1.085.03a.194.194,0,0,0,.079-.168c-.01-.107-.051-2.4-.051-2.4l.2-.473a.11.11,0,0,0-.122-.151Z"/><path class="cls-4" d="M31.543,29.442l.246.023a.134.134,0,0,1,.12.127l.016,1.725a.1.1,0,0,1-.118.1l-.245-.024a.133.133,0,0,1-.121-.126l-.016-1.725A.1.1,0,0,1,31.543,29.442Z"/><path class="cls-18" d="M31.5,29.421l.245.023a.133.133,0,0,1,.12.127L31.88,31.3a.1.1,0,0,1-.118.1l-.246-.023a.134.134,0,0,1-.12-.127l-.016-1.725A.1.1,0,0,1,31.5,29.421Z"/><path class="cls-4" d="M22.214,28.625a.3.3,0,0,0-.225.171l-.272.475c-.029.051.011,2.283.011,2.283a.3.3,0,0,0,.266.226c.22.014,1.085.03,1.085.03a.192.192,0,0,0,.08-.168c-.01-.107-.051-2.4-.051-2.4l.2-.472a.11.11,0,0,0-.123-.151Z"/><path class="cls-5" d="M22.16,28.587a.3.3,0,0,0-.226.172l-.272.475c-.029.05.012,2.284.012,2.284a.3.3,0,0,0,.266.225c.22.014,1.085.03,1.085.03a.192.192,0,0,0,.079-.167c-.01-.107-.051-2.4-.051-2.4l.2-.472a.11.11,0,0,0-.123-.151Z"/><path class="cls-4" d="M22.261,29.327l.245,0a.124.124,0,0,1,.121.118l.016,1.724a.114.114,0,0,1-.118.113l-.246-.006a.122.122,0,0,1-.12-.118l-.016-1.723A.113.113,0,0,1,22.261,29.327Z"/><path class="cls-18" d="M22.216,29.31l.245.005a.121.121,0,0,1,.12.118l.017,1.724a.113.113,0,0,1-.118.112l-.246,0a.122.122,0,0,1-.12-.118L22.1,29.422A.114.114,0,0,1,22.216,29.31Z"/><path class="cls-4" d="M26.335,21.81c.325-.065.571.007.9-.542a3.537,3.537,0,0,0,.332-.433c.079-.086.2.065.433.375.145.13.469,1.026.426.3.224.216.541.375,1,.794.462-.058.931-.109,1.408-.167.368-.209.714-.2,1.061-.786a2.067,2.067,0,0,0,.2-.455c.217-.072.448.144.6.6a9.268,9.268,0,0,0,.476.939c-.2.375-.441.736-.636,1.112l-2.548-.152c-.708.072-1.423.152-2.13.224q-.824-.574-1.625-1.148C26.263,22.243,26.3,22.026,26.335,21.81Z"/><path class="cls-19" d="M29.3,22.388l.086.043.1-.015h.043l.036-.007.043-.007h.043l.087-.014h.051l.043-.008.087-.014h.043L30,22.359l.094-.008.051-.014.079-.008h.043l.044-.007.05-.006.087-.008.043-.007.044-.007.094-.008.035-.007h.051l.087-.014.065-.007.057-.036.037-.008.029-.022.028-.014.036-.014.029-.015.036-.015.029-.014.037-.007.036-.021.036-.015.036-.015.036-.014.029-.014.036-.022L31.433,22l.036-.029.036-.022.036-.022.036-.021.036-.029.037-.037.036-.028.043-.029a1.954,1.954,0,0,0,.419-.729h.022l.014.007.014.007h.015l.007.014.014.008.015.014.021.007.015.015.014.014.015.022.014.022c.1.122.072.455.159.649.094.21.3.282.4.47l.015.021.014.029.015.029.014.022.014.029.015.021.007.022-.007.015c-1.372,2.62-5.343.389-6.888.274l.281-.361.007-.022.008-.014v-.044l.007-.021.007-.043v-.022l.007-.022v-.043l.008-.015.007-.022v-.042l.007-.022.007-.022v-.043l.007-.015v-.021l.007-.022v-.036l.03-.007h.057l.029-.007h.022l.036-.008.029-.007h.029l.029-.007.028-.007.036-.015.03-.007.036-.015.028-.014L26.9,21.8l.029-.015.036-.021.029-.022.036-.029.029-.021.036-.03.029-.036.036-.028.022-.037.036-.043.029-.051.036-.043.029-.043.022-.036.007-.008.029-.028.021-.029.022-.029.022-.022.029-.036.021-.029.022-.029.022-.036.021-.029.022-.029.022-.028.022-.03.021-.021.007-.014h.007l.015.014.022.021.021.022.022.029.029.029.021.036a10.363,10.363,0,0,0,.585,1.134A.867.867,0,0,0,29.3,22.388Z"/><path class="cls-4" d="M26.342,21.131c.246.506.26.8,1.712,1.365a3.026,3.026,0,0,0,1.819-.188c.231-.086.455-.174.686-.267-.021.245-.043.5-.065.743a6.108,6.108,0,0,1-1.783.621,2.9,2.9,0,0,1-1.509-.122l-.809-.982C26.371,21.911,26.357,21.521,26.342,21.131Z"/><path class="cls-19" d="M30.307,22.294a.024.024,0,0,1,.021-.008.235.235,0,0,1,.065-.021.007.007,0,0,1,.007-.007l-.007.007v.094a.026.026,0,0,0-.007.021v.065a.08.08,0,0,1-.007.022.11.11,0,0,1-.008.05v.08a.037.037,0,0,0-.007.022v.028a.083.083,0,0,0-.007.044v.058a.314.314,0,0,0-.05.021.324.324,0,0,0-.051.029c-.014,0-.029.014-.043.022a.25.25,0,0,0-.051.022.233.233,0,0,1-.043.021c-.022.007-.044.022-.051.022s-.036.014-.057.028a.311.311,0,0,1-.051.022c-.015,0-.036.014-.051.014-.014.015-.036.015-.05.03a.122.122,0,0,0-.051.014.265.265,0,0,0-.05.022c-.022.007-.036.014-.058.022a.126.126,0,0,0-.051.014c-.021.007-.036.014-.057.022s-.036.006-.051.021a.159.159,0,0,0-.05.015c-.015.007-.037.007-.058.014s-.036.014-.051.022-.036.007-.057.007a.529.529,0,0,1-.058.021c-.022.008-.036.008-.058.015s-.036.007-.058.014a.23.23,0,0,0-.057.015.146.146,0,0,1-.058.014.127.127,0,0,1-.058.015.147.147,0,0,1-.058.007.17.17,0,0,1-.057.014.248.248,0,0,1-.058.015.238.238,0,0,1-.058.014.281.281,0,0,1-.065.015c-.014,0-.029.007-.05.007s-.029.007-.037.014h-.05c-.015.008-.029.008-.044.015h-.043a.329.329,0,0,1-.036.007c-.022,0-.036,0-.043.007h-.224a.085.085,0,0,1-.044-.007h-.05a.093.093,0,0,0-.043-.007h-.044a.091.091,0,0,0-.043-.007.1.1,0,0,0-.051-.008c-.014,0-.028-.007-.043-.007a.093.093,0,0,0-.043-.007.1.1,0,0,0-.043-.007c-.022-.008-.037-.008-.051-.015a.093.093,0,0,1-.043-.007.113.113,0,0,0-.043-.007.129.129,0,0,0-.051-.015.1.1,0,0,1-.043-.014c-.015,0-.029-.007-.051-.007a.245.245,0,0,1-.044-.015.108.108,0,0,1-.043-.014c-.014,0-.028-.007-.05-.007s-.029-.008-.044-.015h-.014v-.007l-.029-.029a.088.088,0,0,0-.022-.029c-.007-.014-.021-.021-.028-.029a.131.131,0,0,1-.022-.036.782.782,0,0,0-.072-.086c-.015-.008-.015-.015-.022-.03l-.029-.028a.089.089,0,0,0-.029-.029c-.007-.007-.007-.022-.021-.029a.068.068,0,0,0-.029-.029.961.961,0,0,0-.065-.086c-.008-.015-.022-.022-.029-.037a.091.091,0,0,1-.022-.029.124.124,0,0,1-.029-.028c-.007-.008-.014-.022-.021-.029s-.015-.022-.022-.029a1,1,0,0,0-.079-.08c0-.014-.008-.021-.022-.036s-.014-.014-.022-.029l-.021-.021c-.008-.015-.022-.029-.022-.036a.055.055,0,0,1-.029-.029.618.618,0,0,1-.051-.058V22.3h0v-.065a.066.066,0,0,0-.007-.036v-.181a.046.046,0,0,0-.007-.029v-.209c0-.014,0-.022-.007-.029V21.7c.014.015.021.022.021.036a.233.233,0,0,1,.037.044.161.161,0,0,1,.028.036c.015.014.029.021.037.036l.043.044c.014.014.022.028.036.043s.036.029.05.043a.3.3,0,0,0,.051.036.281.281,0,0,0,.051.043c.014.015.036.03.05.044a.2.2,0,0,1,.065.036l.065.043c.029.015.051.029.072.037s.051.036.08.05.05.029.079.044.058.021.087.035.065.037.094.051.065.029.1.043a.416.416,0,0,1,.1.051c.043.007.079.029.115.036s.08.036.123.051.094.036.137.05a.225.225,0,0,0,.072.014c.022.008.044.008.066.015s.043.007.064.007a.21.21,0,0,1,.065.014h.065c.015.008.044.008.058.015h.123c.022,0,.043.007.058.007H28.8a.131.131,0,0,1,.051-.007h.065c.014,0,.036-.007.058-.007a.127.127,0,0,1,.058-.008c.021,0,.036-.007.057-.007a.147.147,0,0,1,.058-.007c.015-.007.036-.007.051-.014a.2.2,0,0,0,.065-.008.134.134,0,0,0,.05-.014c.022,0,.036-.007.058-.007s.029-.007.05-.015.036-.007.058-.014a.122.122,0,0,1,.051-.014.093.093,0,0,1,.043-.015.173.173,0,0,1,.058-.022c.014,0,.036-.014.05-.014s.036-.015.058-.015a.378.378,0,0,1,.051-.021.137.137,0,0,1,.05-.015c.015-.014.036-.014.051-.029a.026.026,0,0,0,.021-.007c.015-.007.044-.014.058-.022a.039.039,0,0,1,.022-.007c.022-.014.043-.014.065-.028a.024.024,0,0,0,.021-.008l.065-.021a.026.026,0,0,1,.022-.008.121.121,0,0,1,.065-.022c0-.007.015-.013.015-.013C30.27,22.308,30.285,22.3,30.307,22.294Z"/><path class="cls-4" d="M26.162,21.1a3.872,3.872,0,0,0-.765,2.426,3.63,3.63,0,0,0,.866,2.4,14.031,14.031,0,0,0,3,.527,15.282,15.282,0,0,0,3.061-.512c1.213-1.8.751-2.607.39-3.307a2.185,2.185,0,0,0-.455-.441A2.86,2.86,0,0,1,31.094,21.1c-.087-.072-.325-.144-.412.072a3.367,3.367,0,0,1-.635,1.329,2.033,2.033,0,0,1-1.7.729c-.643-.18-1.437-.252-1.733-1.206C26.393,20.9,26.278,21.023,26.162,21.1Z"/><path class="cls-19" d="M29.354,20.243a1.087,1.087,0,1,1-1.084,1.083A1.085,1.085,0,0,1,29.354,20.243Z"/><path class="cls-20" d="M32.582,22.849c.168,1.187-.036,2.355.168,3.733.035.237-.131.449.4.536a13.716,13.716,0,0,1,1.488.312.872.872,0,0,1,.673.708c.017.33-.228,1.241,0,1.494a1.022,1.022,0,0,0,.894.3,1.967,1.967,0,0,0,.819-.168.644.644,0,0,1-.307-.232.355.355,0,0,0,.331-.2c-.109-.011-.179-.069-.3-.218a.455.455,0,0,0,.387-.364s-.694,0-.808-.308a13.662,13.662,0,0,1-.241-1.42.745.745,0,0,0-.794-.586,8.049,8.049,0,0,1-1.391-.194,1.686,1.686,0,0,1-.363-.132l-.038-.246s-.128-1.446-.1-1.856a2.83,2.83,0,0,0-.4-1.763,1.944,1.944,0,0,0-1.5-.642C31.966,22.006,32.475,22.1,32.582,22.849Z"/><path class="cls-10" d="M32.579,22.851c.168,1.187-.035,2.354.169,3.733.035.237-.132.449.394.535a14.014,14.014,0,0,1,1.489.313.872.872,0,0,1,.673.708c.017.33-.228,1.241,0,1.494a1.02,1.02,0,0,0,.893.3,1.967,1.967,0,0,0,.82-.169.63.63,0,0,1-.307-.231.352.352,0,0,0,.33-.2c-.108-.011-.178-.069-.3-.218a.455.455,0,0,0,.387-.364s-.7,0-.809-.308a13.635,13.635,0,0,1-.24-1.42.745.745,0,0,0-.8-.586,8.017,8.017,0,0,1-1.39-.194,1.771,1.771,0,0,1-.364-.132l-.037-.246s-.129-1.446-.1-1.856a2.834,2.834,0,0,0-.4-1.763,1.947,1.947,0,0,0-1.5-.642C31.964,22.008,32.473,22.1,32.579,22.851Z"/><path class="cls-20" d="M26.109,30.586a2.247,2.247,0,0,1-.061.781,3.854,3.854,0,0,1-.529.857c.533-.254.463-.111.924-.417a.622.622,0,0,1,.252.434c.172-.12.461-.262.634-.381a.723.723,0,0,1,.259.665c.751-.428.365-1.675.418-2.331a2.376,2.376,0,0,1,.177-.935,3.156,3.156,0,0,0,.286-.718,5.029,5.029,0,0,1,.091-.5c.034-.2-.036-.72.017-.873a.858.858,0,0,1,.182-.286,3.679,3.679,0,0,0,.344-1.2c0-.376-.175-1.206-.148-1.4a3.564,3.564,0,0,1,.2-.94c.2-.321.114-.377-.157-.452a.892.892,0,0,0-1.173.683,2.7,2.7,0,0,0-.12.757,7.865,7.865,0,0,1-.083,1.563,4,4,0,0,0-.618,1.191,2.892,2.892,0,0,1-.262,1.366,1.356,1.356,0,0,0-.552,1.025C26.123,30.149,26.109,30.586,26.109,30.586Z"/><path class="cls-10" d="M26.107,30.588a2.3,2.3,0,0,1-.061.781,3.861,3.861,0,0,1-.529.856c.532-.253.463-.11.924-.416a.619.619,0,0,1,.251.433c.173-.119.462-.261.634-.38a.721.721,0,0,1,.259.665c.752-.428.366-1.676.418-2.331a2.393,2.393,0,0,1,.178-.935,3.261,3.261,0,0,0,.286-.718,4.753,4.753,0,0,1,.091-.5c.034-.2-.037-.72.016-.873a.881.881,0,0,1,.182-.287,3.675,3.675,0,0,0,.345-1.2c0-.376-.176-1.2-.149-1.4a3.542,3.542,0,0,1,.2-.941c.2-.32.113-.376-.157-.451a.893.893,0,0,0-1.174.683,2.741,2.741,0,0,0-.12.757,7.9,7.9,0,0,1-.082,1.563,3.968,3.968,0,0,0-.618,1.191,2.919,2.919,0,0,1-.262,1.366,1.352,1.352,0,0,0-.552,1.024C26.121,30.151,26.107,30.588,26.107,30.588Z"/><path class="cls-4" d="M23.142,40.019a.187.187,0,0,1-.026.045l-.6.785a.185.185,0,0,1-.037.037l.3.231a.545.545,0,0,0,.622-.895l-.267-.2Zm-.454.907.549-.722.1.072a.39.39,0,0,1,.041.589c-.175.231-.388.287-.566.151l-.119-.09Zm1.7-.058a.562.562,0,1,1-.744.2.5.5,0,0,1,.744-.2Zm-.043.073c.192.115.208.315.046.586s-.346.345-.535.232-.212-.317-.047-.593.344-.341.536-.225Zm.638.553-.079.84a.078.078,0,0,1-.007.031l0,.009.14.063,0-.008a.1.1,0,0,1,.023-.032l.587-.623-.231.788a.084.084,0,0,1-.007.019.063.063,0,0,1-.013.021l.177.08a.4.4,0,0,1,.008-.049l.284-.974.006-.014,0-.01,0-.011-.15-.068,0,.009a.111.111,0,0,1-.016.024l-.618.654.084-.891a.248.248,0,0,1,.012-.041l-.149-.068-.013.028-.006.015-.551.84c-.008.011-.015.018-.034.04l.089.041a.365.365,0,0,0,.015-.039l0-.005.441-.669Zm.984.168a.417.417,0,0,1,.006.059L26,42.767a.206.206,0,0,1,0,.045l.16.051a.293.293,0,0,1,.022-.04l.624-.852a.194.194,0,0,1,.035-.036l-.1-.031a.109.109,0,0,1-.019.039l-.543.735-.018-.908a.164.164,0,0,1,0-.037l0-.009-.2-.062Zm.645,1.258.068-.117a.348.348,0,0,0,.222.178.19.19,0,0,0,.247-.133.174.174,0,0,0-.04-.165,1.518,1.518,0,0,0-.134-.119c-.16-.13-.209-.23-.177-.359a.318.318,0,0,1,.422-.2.545.545,0,0,1,.232.118l-.061.1a.376.376,0,0,0-.2-.141.166.166,0,0,0-.213.114c-.022.087.01.137.167.262a.494.494,0,0,1,.17.19.282.282,0,0,1,.015.192.339.339,0,0,1-.192.228.431.431,0,0,1-.251.006.58.58,0,0,1-.274-.154Zm1.245.231a.585.585,0,0,0,.291.118.425.425,0,0,0,.248-.039.335.335,0,0,0,.162-.249.287.287,0,0,0-.039-.189.5.5,0,0,0-.193-.167c-.172-.1-.209-.15-.2-.239a.167.167,0,0,1,.2-.14.375.375,0,0,1,.217.114l.048-.111a.578.578,0,0,0-.245-.088.319.319,0,0,0-.393.257c-.016.132.046.224.221.333a1.371,1.371,0,0,1,.148.1.171.171,0,0,1,.06.158.19.19,0,0,1-.228.163.346.346,0,0,1-.242-.148l-.053.125Zm.983-.185.406-.005.108.3a.1.1,0,0,1,.008.045l.213,0a.193.193,0,0,1-.027-.046l-.38-1a.182.182,0,0,1-.008-.036l-.157,0a.208.208,0,0,1-.008.039l-.344,1.009a.244.244,0,0,1-.022.047l.1,0a.135.135,0,0,1,.006-.046l.1-.3Zm.026-.08.165-.494.183.489-.348.005Zm1.036-.079.115-.009c.246-.019.385-.151.37-.35s-.155-.289-.375-.273l-.345.027a.208.208,0,0,1,.01.051l.075.983a.2.2,0,0,1,0,.053l.2-.015a.21.21,0,0,1-.012-.052l-.031-.415Zm-.007-.083-.035-.456.113-.009a.2.2,0,0,1,.23.207.226.226,0,0,1-.085.211.247.247,0,0,1-.125.039l-.1.008Zm.6-.6a.187.187,0,0,1,.014.051l.138.976a.223.223,0,0,1,0,.052l.192-.027a.176.176,0,0,1-.014-.051l-.137-.975a.159.159,0,0,1,0-.053l-.193.027Zm.432-.082a.184.184,0,0,1,.017.05l.2.965a.241.241,0,0,1,0,.053l.553-.114-.019-.094a.255.255,0,0,1-.059.02l-.309.064-.086-.42.312-.064a.192.192,0,0,1,.058-.007l-.017-.086a.18.18,0,0,1-.058.018l-.311.064-.084-.408.319-.066a.144.144,0,0,1,.051,0l-.018-.086-.552.113Zm.823.005.267.792a.228.228,0,0,0,.023.047l-.091.031a.23.23,0,0,0-.01-.051l-.316-.934a.2.2,0,0,0-.023-.047l.164-.056a.074.074,0,0,0,.031.03l.83.6-.262-.775a.158.158,0,0,0-.023-.047l.091-.031a.142.142,0,0,0,.011.051l.316.937a.119.119,0,0,0,.024.044l-.15.051-.011-.012-.025-.02-.846-.608Zm.746-.479.038.092a.262.262,0,0,1,.06-.033l.22-.089.356.876a.16.16,0,0,1,.013.051l.18-.073a.2.2,0,0,1-.025-.046l-.356-.877.219-.089a.251.251,0,0,1,.065-.017l-.037-.093-.733.3Zm.816-.352.176-.084a.141.141,0,0,0,.017.05l.423.89a.174.174,0,0,0,.028.045l-.175.083a.209.209,0,0,0-.017-.05l-.423-.89a.208.208,0,0,0-.029-.044Zm.8.414.344-.214.245.2a.124.124,0,0,1,.031.035l.181-.112a.187.187,0,0,1-.046-.026l-.846-.662a.148.148,0,0,1-.025-.025l-.133.082a.188.188,0,0,1,.013.038l.229,1.042a.249.249,0,0,1,.005.05l.087-.054a.135.135,0,0,1-.019-.043l-.066-.307Zm-.02-.082-.114-.508.41.325-.3.183Zm.356-.995.462-.324.051.073a.127.127,0,0,0-.047.022l-.266.187.239.341.26-.182a.162.162,0,0,0,.045-.04l.051.072a.222.222,0,0,0-.051.03l-.261.183.245.351.259-.181a.243.243,0,0,0,.046-.043l.055.079-.463.324a.209.209,0,0,0-.025-.046l-.565-.807A.167.167,0,0,0,34.457,40.549Z"/><path class="cls-4" d="M21.473,39.934l-.56.274.087.178.59-.215-.117-.237Zm-.318-.281.116.238-.589.214-.087-.177.56-.275Zm.472-1.123a.992.992,0,0,0-.238-.483.723.723,0,0,0-.363-.234.574.574,0,0,0-.493.135.5.5,0,0,0-.166.286.879.879,0,0,0,.056.436c.1.33.1.431-.016.534a.288.288,0,0,1-.414-.046.649.649,0,0,1-.148-.4l-.188.089a.97.97,0,0,0,.214.392.549.549,0,0,0,.8.12c.17-.152.2-.341.1-.681a2.411,2.411,0,0,1-.075-.3.3.3,0,0,1,.1-.273.325.325,0,0,1,.478.051.593.593,0,0,1,.142.468l.211-.1Zm-1.379-.889.513-.17a.246.246,0,0,0,.069-.04l.109.139a.394.394,0,0,0-.086.018l-1.738.583a.326.326,0,0,0-.062.031l-.166-.213a.292.292,0,0,0,.04-.049l.975-1.566a.345.345,0,0,0,.034-.084l.225.288a.2.2,0,0,0-.053.059l-.29.455.43.549Zm-.136.049-.848.289.479-.76.369.471Zm-1.648-.912.771-1.618c.01-.018.017-.034.025-.049l.016-.022-.131-.238a.184.184,0,0,1-.067.053l-1.487.822a.278.278,0,0,1-.085.034l.081.145a.29.29,0,0,1,.073-.053l1.231-.681-.759,1.588a.131.131,0,0,1-.04.061l.144.26a.327.327,0,0,1,.074-.053l1.482-.82a.386.386,0,0,1,.084-.034l-.08-.145a.354.354,0,0,1-.073.054l-1.259.7Zm-1.679-2.65.23-.106a.626.626,0,0,0,.021.482c.162.349.539.435.99.226s.633-.565.473-.911a.576.576,0,0,0-.365-.315l.224-.1a1,1,0,0,1,.307.4.852.852,0,0,1-.5,1.239.865.865,0,0,1-1.266-.47,1.078,1.078,0,0,1-.11-.438Zm-.091-.09.162-.058a.506.506,0,0,1-.054-.106l-.137-.383,1.53-.551a.357.357,0,0,1,.089-.02l-.114-.314a.3.3,0,0,1-.08.04l-1.531.551-.138-.384A.482.482,0,0,1,16.4,32.7l-.162.058.46,1.28Zm-.535-1.427-.089-.342a.035.035,0,0,0,.017,0,.2.2,0,0,0,.056-.029l1.306-.855-1.567-.119a.173.173,0,0,0-.073.008l-.044-.169a.315.315,0,0,0,.086.018l1.811.13a.36.36,0,0,0,.077-.006l.073.281a.261.261,0,0,0-.068.038l-1.5.986a.517.517,0,0,0-.08.061Zm1.313-1.946a1,1,0,0,0,.032-.538.73.73,0,0,0-.2-.383.581.581,0,0,0-.5-.127.5.5,0,0,0-.286.167.868.868,0,0,0-.166.406c-.075.337-.128.424-.279.455a.287.287,0,0,1-.337-.244.646.646,0,0,1,.067-.416l-.207-.016a.97.97,0,0,0-.009.447.548.548,0,0,0,.635.5c.222-.047.34-.2.421-.543a2.214,2.214,0,0,1,.084-.3.3.3,0,0,1,.225-.185.326.326,0,0,1,.39.282.592.592,0,0,1-.109.477l.234.016Zm-.879-2.24-.071-.693.488-.23a.215.215,0,0,1,.077-.022l-.037-.363a.337.337,0,0,1-.074.053l-1.66.8a.227.227,0,0,1-.06.021l.027.268a.351.351,0,0,1,.069.007l1.78.435a.4.4,0,0,1,.082.031l-.018-.176a.257.257,0,0,1-.079,0l-.524-.131Zm-.142-.03-.871-.209.811-.386.06.595Zm-1.285-1.042,0-.354a.044.044,0,0,0,.016,0,.266.266,0,0,0,.062-.014l1.476-.512-1.491-.5a.159.159,0,0,0-.073-.01l0-.175a.307.307,0,0,0,.08.039l1.724.568a.487.487,0,0,0,.076.013l0,.29a.247.247,0,0,0-.075.02l-1.7.589a.557.557,0,0,0-.092.04Zm.093-3.055a1.339,1.339,0,0,0-.113.52.89.89,0,0,0,.95.977,1.01,1.01,0,0,0,.73-.245.842.842,0,0,0,.248-.641,1.71,1.71,0,0,0-.115-.649.225.225,0,0,1-.113.018l-.721-.017a.362.362,0,0,1-.09-.013l-.007.326a.3.3,0,0,1,.09-.009l.733.016a.511.511,0,0,1,.072.291c-.009.385-.309.6-.817.588a.875.875,0,0,1-.625-.205.577.577,0,0,1-.178-.447.832.832,0,0,1,.189-.5l-.233-.005Zm-.041-.269a.467.467,0,0,1,.1-.03l1.754-.4a.259.259,0,0,1,.077-.012l.029-.289a.462.462,0,0,1-.074-.021l-1.652-.752a.367.367,0,0,1-.074-.048l-.018.174a.182.182,0,0,1,.072.018l1.427.657-1.522.347a.258.258,0,0,1-.063.008l-.016,0-.036.352Zm1.915-1.373-.209-.106a.592.592,0,0,0,.286-.4.325.325,0,0,0-.249-.411.3.3,0,0,0-.28.083,2.338,2.338,0,0,0-.192.24c-.21.286-.377.38-.6.336a.548.548,0,0,1-.39-.707.981.981,0,0,1,.182-.408l.185.095a.657.657,0,0,0-.224.357.288.288,0,0,0,.214.357c.152.029.235-.029.435-.311a.878.878,0,0,1,.312-.309.508.508,0,0,1,.329-.042.577.577,0,0,1,.406.31.724.724,0,0,1,.034.431,1,1,0,0,1-.239.482Zm-1.5-1.616.166.043a.479.479,0,0,1,.016-.117l.1-.394,1.574.412a.309.309,0,0,1,.084.034l.084-.324a.308.308,0,0,1-.089-.012L16,20.27l.1-.394a.525.525,0,0,1,.043-.107l-.166-.044-.344,1.315Zm.4-1.5.1-.319a.272.272,0,0,0,.082.037l1.617.5a.3.3,0,0,0,.089.016l-.1.319a.348.348,0,0,0-.083-.037l-1.616-.505a.336.336,0,0,0-.089-.016Zm.6-.744,1.72-.5c.02,0,.037-.01.053-.014l.028,0,.089-.257a.179.179,0,0,1-.084-.015l-1.6-.561a.254.254,0,0,1-.081-.04l-.055.157a.3.3,0,0,1,.089.019l1.328.464-1.689.493a.137.137,0,0,1-.072.01l-.1.281a.342.342,0,0,1,.089.019l1.6.559a.356.356,0,0,1,.081.04l.055-.156a.315.315,0,0,1-.089-.019L16.633,18.8Zm.262-1.658a.584.584,0,0,1,.1,0l1.784.234a.26.26,0,0,1,.076.016l.127-.26a.579.579,0,0,1-.062-.046l-1.288-1.28a.326.326,0,0,1-.053-.07L17.5,15.9a.16.16,0,0,1,.061.042l1.111,1.111-1.548-.2a.264.264,0,0,1-.062-.015.03.03,0,0,1-.014-.01l-.155.318Zm2.268-.619L19,16.355a.588.588,0,0,0,.4-.284.325.325,0,0,0-.1-.47.3.3,0,0,0-.291-.01,2.179,2.179,0,0,0-.26.165c-.29.2-.479.238-.676.125a.549.549,0,0,1-.141-.8.977.977,0,0,1,.3-.327l.144.149a.652.652,0,0,0-.327.267.286.286,0,0,0,.088.406c.134.077.232.048.512-.154a.867.867,0,0,1,.394-.192.5.5,0,0,1,.325.066.577.577,0,0,1,.285.425.718.718,0,0,1-.107.418,1,1,0,0,1-.382.38Zm-.667-2.35.335.525L19,14.592l-.279-.562-.223.143Zm.243-.348.223-.142.279.562-.167.106-.335-.526Zm.791-1a.519.519,0,0,1,.095.033l1.645.728a.3.3,0,0,1,.069.036l.2-.214a.363.363,0,0,1-.046-.061l-.875-1.591a.379.379,0,0,1-.032-.082l-.117.129a.156.156,0,0,1,.046.057l.752,1.38-1.428-.632a.246.246,0,0,1-.055-.031.058.058,0,0,1-.01-.013l-.239.261ZM21.171,11.6l.907,1.116a.323.323,0,0,0,.065.063l-.128.1a.415.415,0,0,0-.048-.076L20.9,11.49a.362.362,0,0,0-.066-.063l.231-.187a.132.132,0,0,0,.067.028l1.7.467-.887-1.092a.359.359,0,0,0-.066-.063l.129-.1a.262.262,0,0,0,.048.077l1.071,1.319a.177.177,0,0,0,.065.056l-.212.172-.025-.013-.052-.015L21.171,11.6Zm1.273-1.44a.3.3,0,0,1,.058.069l.927,1.418a.321.321,0,0,1,.039.081l.28-.182a.3.3,0,0,1-.058-.07l-.927-1.418a.282.282,0,0,1-.039-.081l-.28.183Zm.451-.307a.469.469,0,0,1,.08.061l1.343,1.2a.321.321,0,0,1,.055.057l.251-.144a.524.524,0,0,1-.026-.072l-.344-1.783a.3.3,0,0,1-.005-.088l-.151.086a.182.182,0,0,1,.026.07l.293,1.543L23.251,9.738a.313.313,0,0,1-.043-.046.113.113,0,0,1-.006-.016l-.307.175Zm1.725-.9.909-.335.052.142a.224.224,0,0,0-.086.017l-.524.193.247.672.512-.188a.311.311,0,0,0,.093-.047l.053.142a.347.347,0,0,0-.1.028l-.514.189.255.691.508-.188a.446.446,0,0,0,.1-.05l.057.155-.911.337a.32.32,0,0,0-.021-.089l-.587-1.589a.317.317,0,0,0-.041-.08Zm1.937.424.735.633a.274.274,0,0,1,.057.07l.4-.1a.225.225,0,0,1-.091-.053l-.786-.644a.952.952,0,0,0,.189-.1.435.435,0,0,0,.19-.484.525.525,0,0,0-.69-.358l-.554.133a.441.441,0,0,1,.032.085l.394,1.647a.308.308,0,0,1,.011.09l.327-.079a.322.322,0,0,1-.032-.084l-.181-.757Zm-.028-.1-.177-.741.129-.03a.363.363,0,0,1,.27.019.4.4,0,0,1,.193.265.356.356,0,0,1-.272.452l-.143.035Zm1.207.642.04-.231a.593.593,0,0,0,.464.156.325.325,0,0,0,.319-.36.3.3,0,0,0-.162-.242,2.218,2.218,0,0,0-.287-.113c-.334-.115-.473-.248-.5-.473-.033-.3.2-.542.561-.582a.971.971,0,0,1,.444.053l-.037.205a.642.642,0,0,0-.408-.108.288.288,0,0,0-.277.31c.017.153.1.216.426.323a.869.869,0,0,1,.387.206.5.5,0,0,1,.138.3.578.578,0,0,1-.177.48.723.723,0,0,1-.4.16,1.008,1.008,0,0,1-.533-.086Zm1.446-1.832a.428.428,0,0,1,.009.09l-.039,1.693a.383.383,0,0,1-.013.09l.334.007a.268.268,0,0,1-.009-.089L29.5,8.176a.29.29,0,0,1,.013-.09l-.334-.007Zm.686.016-.026.169a.44.44,0,0,1,.118.005l.4.062-.25,1.607a.35.35,0,0,1-.025.087l.33.052a.31.31,0,0,1,0-.091l.25-1.607.4.063a.5.5,0,0,1,.111.031l.026-.169L29.868,8.1Zm1.347,1.546-.313.44a.231.231,0,0,0-.032.073l-.17-.048a.434.434,0,0,0,.059-.065l1.055-1.5a.361.361,0,0,0,.032-.061l.26.073a.247.247,0,0,0,0,.063l.142,1.839a.311.311,0,0,0,.022.088l-.352-.1a.185.185,0,0,0,.008-.079l-.036-.538-.671-.188Zm.08-.12.577.161-.064-.9-.513.735Zm1.026.947a.992.992,0,0,0,.407.354.719.719,0,0,0,.425.076.576.576,0,0,0,.4-.315.5.5,0,0,0,.042-.328.868.868,0,0,0-.22-.38c-.222-.265-.257-.36-.19-.5a.286.286,0,0,1,.4-.118.648.648,0,0,1,.289.307l.14-.154a.978.978,0,0,0-.349-.28.548.548,0,0,0-.783.2c-.1.2-.05.39.173.665a2.457,2.457,0,0,1,.184.247.3.3,0,0,1,.01.291.327.327,0,0,1-.462.137.6.6,0,0,1-.312-.376l-.155.174Zm2.857-.033-.018,1.792c0,.021,0,.039,0,.055l-.005.027.22.16a.173.173,0,0,1,.038-.076l1-1.372a.267.267,0,0,1,.062-.066l-.134-.1a.353.353,0,0,1-.043.079l-.831,1.137.02-1.76a.121.121,0,0,1,.011-.072l-.241-.176a.331.331,0,0,1-.044.079l-1,1.368a.317.317,0,0,1-.062.066l.134.1a.324.324,0,0,1,.044-.079l.848-1.162Zm.968,1.982-.486.237a.23.23,0,0,0-.062.049l-.127-.123a.423.423,0,0,0,.083-.03l1.643-.811a.282.282,0,0,0,.057-.038l.194.188a.242.242,0,0,0-.034.053l-.755,1.684a.4.4,0,0,0-.023.087l-.261-.255a.227.227,0,0,0,.045-.065l.225-.49-.5-.486Zm.128-.067.8-.4-.372.818-.429-.417Zm1.645.026-.133.108a.449.449,0,0,1,.085.083l.258.315L36.867,13.91a.323.323,0,0,1-.076.048l.211.259a.3.3,0,0,1,.063-.065l1.261-1.028.257.316a.512.512,0,0,1,.061.1l.133-.109-.858-1.054Zm.938,1.166a.386.386,0,0,1-.064.064L37.46,14.651a.342.342,0,0,1-.078.046l.206.264a.278.278,0,0,1,.064-.065l1.333-1.044a.3.3,0,0,1,.078-.047l-.206-.263Zm.971,1.4a.966.966,0,1,1-1.3-.266.857.857,0,0,1,1.3.266Zm-.123.079c.208.323.081.646-.375.938s-.8.268-1-.051-.086-.649.379-.948c.442-.284.789-.263,1,.061Zm.562,1.481-.908,1.545c-.011.017-.019.033-.029.046l-.018.021.111.249a.168.168,0,0,1,.071-.047l1.552-.691a.283.283,0,0,1,.087-.027l-.067-.151a.368.368,0,0,1-.078.047l-1.286.572.893-1.516a.139.139,0,0,1,.046-.058l-.121-.272a.337.337,0,0,1-.078.047l-1.547.689a.426.426,0,0,1-.087.027l.067.151a.36.36,0,0,1,.078-.047l1.314-.585Zm-.117,2.146.235.656-.417.341a.2.2,0,0,1-.069.04l.123.343a.354.354,0,0,1,.059-.068L41.5,18.781a.285.285,0,0,1,.053-.033l-.091-.254a.347.347,0,0,1-.068.01l-1.833.008a.484.484,0,0,1-.087-.01l.06.166a.223.223,0,0,1,.077-.017Zm.144,0,.9-.008-.693.571-.2-.563Zm-.017,2.438-.24-.918a.3.3,0,0,0,.086-.012l1.642-.429a.389.389,0,0,0,.084-.034l.085.323a.376.376,0,0,0-.09.012l-1.579.413.135.514a.225.225,0,0,0,.037.089l-.16.042Zm1.863-.212a.341.341,0,0,1-.086.03l-1.656.352a.422.422,0,0,1-.091.008l.07.326a.3.3,0,0,1,.085-.029l1.657-.352a.268.268,0,0,1,.09-.008l-.069-.327Zm-1.605.925.233.024a.6.6,0,0,0-.124.473.325.325,0,0,0,.381.294.3.3,0,0,0,.231-.178,2.365,2.365,0,0,0,.093-.293c.092-.342.215-.49.438-.53.3-.054.554.158.619.52a.977.977,0,0,1-.023.446l-.207-.022a.65.65,0,0,0,.08-.414.286.286,0,0,0-.328-.255c-.152.027-.208.111-.294.446a.859.859,0,0,1-.179.4.488.488,0,0,1-.292.158.574.574,0,0,1-.49-.143.719.719,0,0,1-.187-.389,1,1,0,0,1,.049-.537Zm.8,2.269.047.7-.495.214a.2.2,0,0,1-.077.019l.025.365a.356.356,0,0,1,.075-.051l1.686-.748a.275.275,0,0,1,.061-.018l-.018-.269a.353.353,0,0,1-.069-.009L40.8,23.771a.441.441,0,0,1-.081-.034l.012.177a.224.224,0,0,1,.079,0l.52.148Zm.141.035.863.237-.823.36-.04-.6Zm.209,1.737-.8.549a.288.288,0,0,1-.082.037l-.009.41a.229.229,0,0,1,.075-.074l.822-.6a.927.927,0,0,0,.052.209.435.435,0,0,0,.42.308.524.524,0,0,0,.521-.576l.013-.569a.461.461,0,0,1-.09.009l-1.693-.039a.332.332,0,0,1-.09-.013l-.007.337a.313.313,0,0,1,.09-.009l.778.018Zm.106,0,.761.017,0,.132a.361.361,0,0,1-.087.257.406.406,0,0,1-.306.119.357.357,0,0,1-.368-.379l0-.146Zm.863,1.213a.3.3,0,0,1-.091.006l-1.691-.093a.326.326,0,0,1-.089-.016l-.054.97.166.009a.394.394,0,0,1-.008-.107l.029-.541.735.04-.03.547a.371.371,0,0,1-.014.1l.152.008a.293.293,0,0,1-.006-.105l.03-.543.715.039-.031.558a.221.221,0,0,1-.018.086l.151.009.054-.968Zm-2.4,2.766a3.027,3.027,0,0,1,.174-.348c.031-.044.06-.091.089-.138.011-.019.022-.037.033-.058a.805.805,0,0,0,.135.417.986.986,0,0,0,.7.37,1.031,1.031,0,0,0,.8-.188.965.965,0,0,0,.277-.595.949.949,0,0,0-.143-.7,1.187,1.187,0,0,0-1.334-.258.668.668,0,0,0-.315.343,3.982,3.982,0,0,1-.56.847l.144.3Zm2.062-.554a.513.513,0,0,1-.277.408,1.216,1.216,0,0,1-.62.057,1,1,0,0,1-.587-.254.477.477,0,0,1-.129-.433.5.5,0,0,1,.242-.4,1.027,1.027,0,0,1,.631-.084c.544.072.792.309.74.7Zm-.072,1.051a.507.507,0,0,1-.1.019l-1.787.206a.306.306,0,0,1-.078,0l-.06.283a.507.507,0,0,1,.071.029l1.56.929a.384.384,0,0,1,.069.055l.036-.17a.171.171,0,0,1-.069-.027l-1.347-.809,1.551-.178a.279.279,0,0,1,.064,0,.087.087,0,0,1,.015.006l.074-.346Zm-.432,1.777-.1.319a.279.279,0,0,0-.083-.037l-1.616-.5a.272.272,0,0,0-.09-.016l.1-.319a.394.394,0,0,0,.082.038l1.617.5a.336.336,0,0,0,.089.016Zm-1.338.67-.066.188c-.14.4-.028.711.3.824.3.106.563-.045.688-.4l.2-.561a.411.411,0,0,1-.088-.019l-1.6-.56a.39.39,0,0,1-.081-.039l-.112.318a.269.269,0,0,1,.09.016l.676.236Zm.135.048.743.259-.064.183a.348.348,0,0,1-.485.22.389.389,0,0,1-.274-.28.424.424,0,0,1,.025-.224l.055-.158Zm.428,1.455-.4.882-.138-.062a.251.251,0,0,0,.049-.074l.231-.509-.652-.3-.226.5a.289.289,0,0,0-.032.1l-.139-.064a.33.33,0,0,0,.05-.088l.227-.5-.67-.3-.225.494a.426.426,0,0,0-.031.1l-.151-.069.4-.885a.3.3,0,0,0,.077.047l1.542.7a.31.31,0,0,0,.087.027Zm-.954,1.253L38.3,35.7c-.02,0-.038,0-.054,0l-.028,0-.135.236a.166.166,0,0,1,.08.03l1.476.842a.3.3,0,0,1,.072.055l.082-.144a.325.325,0,0,1-.084-.035l-1.221-.7,1.751-.177a.125.125,0,0,1,.072,0l.148-.258a.37.37,0,0,1-.083-.035L38.9,34.679a.338.338,0,0,1-.072-.054l-.083.144a.306.306,0,0,1,.084.035l1.249.713Zm-2.019.661.147.182a.591.591,0,0,0-.423.246.326.326,0,0,0,.061.478.3.3,0,0,0,.289.037,2.259,2.259,0,0,0,.273-.141c.308-.176.5-.193.685-.063a.548.548,0,0,1,.068.8.983.983,0,0,1-.333.3l-.129-.163a.643.643,0,0,0,.35-.235A.288.288,0,0,0,39,37.21c-.127-.088-.226-.068-.524.107a.852.852,0,0,1-.41.155.5.5,0,0,1-.318-.095.572.572,0,0,1-.244-.448.716.716,0,0,1,.143-.407,1,1,0,0,1,.416-.344Zm.54,2.276a.4.4,0,0,1-.076-.049l-1.3-1.087a.367.367,0,0,1-.061-.067l-.215.257a.269.269,0,0,1,.076.049l1.3,1.087a.266.266,0,0,1,.062.066l.215-.256Zm-1.71-.684a1,1,0,0,0-.457.287.723.723,0,0,0-.2.385.58.58,0,0,0,.184.477.5.5,0,0,0,.3.135.864.864,0,0,0,.426-.1c.319-.136.42-.142.534-.038a.286.286,0,0,1,0,.415.641.641,0,0,1-.377.188l.107.178a.973.973,0,0,0,.369-.253.549.549,0,0,0,.037-.807c-.168-.153-.359-.161-.687-.027a2.289,2.289,0,0,1-.289.105.3.3,0,0,1-.282-.075.325.325,0,0,1,0-.481.6.6,0,0,1,.451-.19Z"/><polygon class="cls-2" points="108.703 38.478 109.02 37.939 109.33 37.939 108.889 38.478 108.703 38.478 108.703 38.478"/><path class="cls-2" d="M47.494,40.092V38.678h.31V40.1a.684.684,0,0,0,.143.476.574.574,0,0,0,.437.152.565.565,0,0,0,.438-.155.668.668,0,0,0,.146-.473V38.678h.31v1.414a.826.826,0,0,1-.928.929.831.831,0,0,1-.644-.232,1.014,1.014,0,0,1-.212-.7Z"/><path class="cls-2" d="M49.751,40.957V38.678h.339l1.065,1.655c.025.038.044.07.063.1a.9.9,0,0,1,.042.092V38.678h.3v2.279h-.337l-1.087-1.68a.6.6,0,0,1-.044-.079.731.731,0,0,1-.042-.089v1.848Z"/><polygon class="cls-2" points="52.046 40.957 52.046 38.678 52.357 38.678 52.357 40.957 52.046 40.957 52.046 40.957"/><polygon class="cls-2" points="53.422 40.957 52.61 38.678 52.931 38.678 53.587 40.586 54.224 38.678 54.547 38.678 53.745 40.957 53.422 40.957 53.422 40.957"/><polygon class="cls-2" points="54.791 40.957 54.791 38.678 56.417 38.678 56.417 38.96 55.099 38.96 55.099 39.642 56.316 39.642 56.316 39.908 55.099 39.908 55.099 40.672 56.443 40.672 56.443 40.957 54.791 40.957 54.791 40.957"/><path class="cls-2" d="M58.5,40.808a.7.7,0,0,1-.032-.18l-.025-.374a.637.637,0,0,0-.07-.3.308.308,0,0,0-.19-.127.519.519,0,0,0,.235-.206.577.577,0,0,0,.079-.314.673.673,0,0,0-.076-.33.515.515,0,0,0-.219-.222.669.669,0,0,0-.18-.06,1.875,1.875,0,0,0-.318-.019h-.884v2.279h.308v-.976h.5a.753.753,0,0,1,.408.067.418.418,0,0,1,.1.3l.019.3v.01a.807.807,0,0,0,.06.3h.358v-.063A.151.151,0,0,1,58.5,40.808Zm-.44-1.182a.694.694,0,0,1-.406.092h-.53v-.774h.53a.746.746,0,0,1,.412.083.343.343,0,0,1,.111.288A.376.376,0,0,1,58.057,39.626Z"/><path class="cls-2" d="M58.817,40.206h.3a.526.526,0,0,0,.165.4.627.627,0,0,0,.428.146.707.707,0,0,0,.419-.111.362.362,0,0,0,.152-.3q0-.262-.574-.4a.437.437,0,0,1-.051-.012,1.555,1.555,0,0,1-.615-.244.5.5,0,0,1-.149-.384.614.614,0,0,1,.222-.491.9.9,0,0,1,.593-.184.859.859,0,0,1,.6.193.7.7,0,0,1,.219.533h-.3a.5.5,0,0,0-.156-.349.578.578,0,0,0-.383-.12.6.6,0,0,0-.365.1.312.312,0,0,0-.136.266c0,.174.187.308.564.393.057.013.1.022.13.032l.032.006a1.341,1.341,0,0,1,.488.191.509.509,0,0,1,.14.19.625.625,0,0,1,.047.247.648.648,0,0,1-.234.523.98.98,0,0,1-.641.2.935.935,0,0,1-.647-.21.838.838,0,0,1-.247-.6Z"/><polygon class="cls-2" points="60.976 40.957 60.976 38.678 61.287 38.678 61.287 40.957 60.976 40.957 60.976 40.957"/><path class="cls-2" d="M63.382,38.963a.923.923,0,0,0-.729-.285h-.868v2.279h.855a.916.916,0,0,0,.733-.307,1.288,1.288,0,0,0,.263-.866A1.2,1.2,0,0,0,63.382,38.963Zm-.237,1.493a.615.615,0,0,1-.517.222H62.1V38.941h.533a.612.612,0,0,1,.513.222.993.993,0,0,1,.178.637A1.045,1.045,0,0,1,63.145,40.456Z"/><path class="cls-2" d="M64.961,38.678h-.342l-.847,2.279h.32l.245-.681h.9l.241.681h.336Zm-.529,1.331.358-1,.352,1Z"/><path class="cls-2" d="M67.643,38.963a.923.923,0,0,0-.729-.285h-.869v2.279H66.9a.914.914,0,0,0,.732-.307,1.283,1.283,0,0,0,.264-.866A1.2,1.2,0,0,0,67.643,38.963Zm-.238,1.493a.611.611,0,0,1-.516.222h-.533V38.941h.533a.612.612,0,0,1,.513.222,1,1,0,0,1,.178.637A1.039,1.039,0,0,1,67.405,40.456Z"/><path class="cls-2" d="M69.152,40.957V38.678h.339l1.065,1.655c.026.038.045.07.064.1a.709.709,0,0,1,.041.092V38.678h.3v2.279H70.62l-1.088-1.68a.738.738,0,0,1-.044-.079.728.728,0,0,1-.041-.089v1.848Z"/><path class="cls-2" d="M72.376,38.678h-.342l-.847,2.279h.32l.245-.681h.9l.241.681h.336Zm-.529,1.331.358-1,.352,1Z"/><path class="cls-2" d="M75.055,40.111h.3a.928.928,0,0,1-.285.663.959.959,0,0,1-.682.247.931.931,0,0,1-.754-.33,1.381,1.381,0,0,1-.273-.907,1.226,1.226,0,0,1,.285-.852,1,1,0,0,1,.774-.314.979.979,0,0,1,.634.2.777.777,0,0,1,.285.546h-.3a.547.547,0,0,0-.206-.349.7.7,0,0,0-.422-.12.643.643,0,0,0-.539.244,1.083,1.083,0,0,0-.19.684,1.045,1.045,0,0,0,.2.669.638.638,0,0,0,.526.254.632.632,0,0,0,.46-.174.676.676,0,0,0,.19-.46Z"/><polygon class="cls-2" points="75.727 40.957 75.727 38.678 76.038 38.678 76.038 40.957 75.727 40.957 75.727 40.957"/><path class="cls-2" d="M78.311,38.935a1.15,1.15,0,0,0-1.586,0,1.5,1.5,0,0,0,0,1.769,1.15,1.15,0,0,0,1.586,0,1.515,1.515,0,0,0,0-1.769ZM78.076,40.5a.754.754,0,0,1-1.116,0,1.257,1.257,0,0,1,0-1.37.754.754,0,0,1,1.116,0,1.273,1.273,0,0,1,0,1.37Z"/><path class="cls-2" d="M78.983,40.957V38.678h.339l1.065,1.655c.025.038.045.07.063.1a.9.9,0,0,1,.042.092V38.678h.3v2.279H80.45l-1.087-1.68a.6.6,0,0,1-.044-.079.731.731,0,0,1-.042-.089v1.848Z"/><path class="cls-2" d="M82.207,38.678h-.342l-.847,2.279h.32l.244-.681h.9l.242.681h.335Zm-.529,1.331.358-1,.352,1Z"/><polygon class="cls-2" points="83.291 40.957 83.291 38.678 83.605 38.678 83.605 40.669 84.74 40.669 84.74 40.957 83.291 40.957 83.291 40.957"/><path class="cls-2" d="M87.453,38.963a.923.923,0,0,0-.729-.285h-.868v2.279h.856a.915.915,0,0,0,.732-.307,1.288,1.288,0,0,0,.263-.866A1.2,1.2,0,0,0,87.453,38.963Zm-.237,1.493a.615.615,0,0,1-.517.222h-.533V38.941H86.7a.612.612,0,0,1,.513.222.993.993,0,0,1,.178.637A1.045,1.045,0,0,1,87.216,40.456Z"/><polygon class="cls-2" points="88.097 40.957 88.097 38.678 89.723 38.678 89.723 38.96 88.405 38.96 88.405 39.642 89.622 39.642 89.622 39.908 88.405 39.908 88.405 40.672 89.749 40.672 89.749 40.957 88.097 40.957 88.097 40.957"/><path class="cls-2" d="M90.887,40.206h.3a.525.525,0,0,0,.164.4.627.627,0,0,0,.428.146.707.707,0,0,0,.419-.111.362.362,0,0,0,.152-.3c0-.175-.19-.308-.574-.4a.437.437,0,0,1-.051-.012,1.542,1.542,0,0,1-.614-.244.493.493,0,0,1-.149-.384.616.616,0,0,1,.221-.491.9.9,0,0,1,.593-.184.859.859,0,0,1,.6.193.7.7,0,0,1,.219.533h-.3a.492.492,0,0,0-.155-.349.58.58,0,0,0-.384-.12.6.6,0,0,0-.364.1.311.311,0,0,0-.137.266c0,.174.187.308.565.393.057.013.1.022.129.032l.032.006a1.356,1.356,0,0,1,.489.191.517.517,0,0,1,.139.19.608.608,0,0,1,.048.247.649.649,0,0,1-.235.523.979.979,0,0,1-.64.2.931.931,0,0,1-.647-.21.834.834,0,0,1-.247-.6Z"/><path class="cls-2" d="M93.974,38.678h-.342l-.847,2.279h.321l.244-.681h.9l.241.681h.336Zm-.529,1.331.358-1,.352,1Z"/><path class="cls-2" d="M95.055,40.957V38.678h.339l1.066,1.655c.025.038.044.07.063.1a.709.709,0,0,1,.041.092V38.678h.3v2.279h-.336l-1.087-1.68a.6.6,0,0,1-.045-.079.728.728,0,0,1-.041-.089v1.848Z"/><path class="cls-2" d="M99.148,38.678h-.342l-.847,2.279h.32l.244-.681h.9l.241.681H100Zm-.53,1.331.359-1,.352,1Z"/><path class="cls-2" d="M101.938,40.653a.944.944,0,0,1-.33.276,1.014,1.014,0,0,1-.438.092.946.946,0,0,1-.748-.33,1.273,1.273,0,0,1-.288-.869,1.241,1.241,0,0,1,.3-.881,1.038,1.038,0,0,1,.8-.323,1,1,0,0,1,.637.2.82.82,0,0,1,.3.552h-.3a.541.541,0,0,0-.206-.355.67.67,0,0,0-.425-.127.713.713,0,0,0-.577.241,1.035,1.035,0,0,0-.206.685,1.023,1.023,0,0,0,.2.681.681.681,0,0,0,.558.247.7.7,0,0,0,.516-.2.726.726,0,0,0,.191-.529v-.029h-.713v-.257h1v1.23H102l-.066-.3Z"/><path class="cls-2" d="M102.641,40.092V38.678h.311V40.1a.684.684,0,0,0,.143.476.574.574,0,0,0,.437.152.565.565,0,0,0,.438-.155.668.668,0,0,0,.145-.473V38.678h.311v1.414a.826.826,0,0,1-.929.929.828.828,0,0,1-.643-.232,1.009,1.009,0,0,1-.213-.7Z"/><path class="cls-2" d="M104.8,40.206h.3a.522.522,0,0,0,.165.4.625.625,0,0,0,.428.146.7.7,0,0,0,.418-.111.359.359,0,0,0,.152-.3c0-.175-.19-.308-.573-.4a.392.392,0,0,1-.051-.012,1.542,1.542,0,0,1-.615-.244.493.493,0,0,1-.149-.384.614.614,0,0,1,.222-.491.9.9,0,0,1,.593-.184.86.86,0,0,1,.6.193.7.7,0,0,1,.218.533h-.294a.5.5,0,0,0-.156-.349.579.579,0,0,0-.383-.12.6.6,0,0,0-.365.1.31.31,0,0,0-.136.266c0,.174.187.308.564.393.057.013.1.022.13.032l.032.006a1.341,1.341,0,0,1,.488.191.506.506,0,0,1,.139.19.608.608,0,0,1,.048.247.646.646,0,0,1-.235.523.977.977,0,0,1-.64.2.933.933,0,0,1-.647-.21.838.838,0,0,1-.247-.6Z"/><polygon class="cls-2" points="107.454 40.957 107.454 38.954 106.734 38.954 106.734 38.678 108.484 38.678 108.484 38.954 107.764 38.954 107.764 40.957 107.454 40.957 107.454 40.957"/><polygon class="cls-2" points="108.766 40.957 108.766 38.678 109.077 38.678 109.077 40.957 108.766 40.957 108.766 40.957"/><path class="cls-2" d="M109.571,40.957V38.678h.339l1.065,1.655c.026.038.045.07.064.1a.709.709,0,0,1,.041.092V38.678h.3v2.279h-.336l-1.087-1.68a.6.6,0,0,1-.045-.079.728.728,0,0,1-.041-.089v1.848Z"/><path class="cls-2" d="M114.326,38.963a.923.923,0,0,0-.729-.285h-.869v2.279h.857a.915.915,0,0,0,.732-.307,1.288,1.288,0,0,0,.263-.866A1.2,1.2,0,0,0,114.326,38.963Zm-.238,1.493a.611.611,0,0,1-.516.222h-.533V38.941h.533a.612.612,0,0,1,.513.222.993.993,0,0,1,.178.637A1.039,1.039,0,0,1,114.088,40.456Z"/><polygon class="cls-2" points="114.97 40.957 114.97 38.678 116.596 38.678 116.596 38.96 115.278 38.96 115.278 39.642 116.495 39.642 116.495 39.908 115.278 39.908 115.278 40.672 116.622 40.672 116.622 40.957 114.97 40.957 114.97 40.957"/><path class="cls-2" d="M118.8,38.678h-.343l-.847,2.279h.321l.244-.681h.9l.241.681h.336Zm-.53,1.331.358-1,.352,1Z"/><path class="cls-2" d="M121.564,40.808a.62.62,0,0,1-.032-.18l-.025-.374a.662.662,0,0,0-.07-.3.308.308,0,0,0-.19-.127.516.516,0,0,0,.234-.206.577.577,0,0,0,.08-.314.685.685,0,0,0-.076-.33.515.515,0,0,0-.219-.222.664.664,0,0,0-.181-.06,1.862,1.862,0,0,0-.317-.019h-.885v2.279h.308v-.976h.5a.757.757,0,0,1,.409.067.414.414,0,0,1,.1.3l.019.3v.01a.822.822,0,0,0,.061.3h.358v-.063A.148.148,0,0,1,121.564,40.808Zm-.441-1.182a.692.692,0,0,1-.406.092h-.529v-.774h.529a.746.746,0,0,1,.412.083.343.343,0,0,1,.111.288A.376.376,0,0,1,121.123,39.626Z"/><polygon class="cls-2" points="121.988 40.957 121.988 38.678 123.615 38.678 123.615 38.96 122.296 38.96 122.296 39.642 123.513 39.642 123.513 39.908 122.296 39.908 122.296 40.672 123.64 40.672 123.64 40.957 121.988 40.957 121.988 40.957"/><path class="cls-2" d="M126,40.317a1.63,1.63,0,0,0,.073-.5,1.273,1.273,0,0,0-.286-.881,1.145,1.145,0,0,0-1.585,0,1.5,1.5,0,0,0,0,1.769,1.023,1.023,0,0,0,.793.317,1.4,1.4,0,0,0,.308-.035,1.248,1.248,0,0,0,.275-.111l.32.263.153-.193-.273-.228A1.26,1.26,0,0,0,126,40.317Zm-.3-.089a.767.767,0,0,1-.165.3l-.305-.25-.152.193.251.209a.511.511,0,0,1-.155.054.777.777,0,0,1-.178.019.677.677,0,0,1-.558-.247,1.257,1.257,0,0,1,0-1.37.754.754,0,0,1,1.116,0,1.053,1.053,0,0,1,.2.685A1.464,1.464,0,0,1,125.7,40.228Z"/><path class="cls-2" d="M126.452,40.092V38.678h.311V40.1a.684.684,0,0,0,.142.476.576.576,0,0,0,.438.152.564.564,0,0,0,.437-.155.664.664,0,0,0,.146-.473V38.678h.311v1.414a.827.827,0,0,1-.929.929.828.828,0,0,1-.643-.232,1.009,1.009,0,0,1-.213-.7Z"/><polygon class="cls-2" points="128.719 40.957 128.719 38.678 129.029 38.678 129.029 40.957 128.719 40.957 128.719 40.957"/><path class="cls-2" d="M131.084,38.989a.506.506,0,0,0-.216-.225.562.562,0,0,0-.19-.067,1.86,1.86,0,0,0-.311-.019h-.84v2.279h.311V40h.469a2.042,2.042,0,0,0,.364-.022.5.5,0,0,0,.194-.07.588.588,0,0,0,.219-.232.764.764,0,0,0,.072-.335A.8.8,0,0,0,131.084,38.989Zm-.349.646a.611.611,0,0,1-.377.086h-.52v-.764h.542a.54.54,0,0,1,.355.089.35.35,0,0,1,.108.292A.362.362,0,0,1,130.735,39.635Z"/><path class="cls-2" d="M132.23,38.678h-.343l-.847,2.279h.321l.244-.681h.9l.241.681h.336Zm-.53,1.331.358-1,.352,1Z"/></svg>