<svg id="Capa_1" data-name="Capa 1" xmlns="http://www.w3.org/2000/svg" viewBox="0 0 144.83 51.05"><defs><style>.cls-1{fill:#233981;}.cls-2{fill:#00629b;}.cls-3{fill:#233881;}.cls-4{fill:#1c6fa4;}</style></defs><title>logo-ieee-embs</title><path class="cls-1" d="M122.25,28h-4c-.14-.54-.29-1.09-.43-1.64,0-.18-.08-.37-.12-.56-.22-1-.44-1.93-.67-2.89,0-.2-.14-.39-.19-.59-.14-.59-.26-1.18-.39-1.77,0-.05,0-.08-.11-.2L112.41,27c-1.38-2.18-2.71-4.28-4-6.38l-.67,2.64c0,.17,0,.34-.08.52a5,5,0,0,1-.08.56c-.21.84-.45,1.67-.65,2.51a11.11,11.11,0,0,0-.13,1.19H102.6a3.76,3.76,0,0,1,.07-1.53,23.44,23.44,0,0,0,.67-3.63,11,11,0,0,1,.29-1.36c.17-1,.32-1.92.48-2.89a4.64,4.64,0,0,1,.11-.51c.15-.87.31-1.74.47-2.6.06-.38.11-.76.19-1.14l.66-3.1,6.89,9.29,6.81-9.16h.11c.06.34.12.69.19,1,.18.86.39,1.71.55,2.57.09.46,0,.93.14,1.39a22.51,22.51,0,0,1,.62,3c.06,1,.38,1.95.45,2.95,0,.6.22,1.19.33,1.79.21,1.13.42,2.27.62,3.4A4,4,0,0,1,122.25,28Z"/><path class="cls-1" d="M124.32,12h3.18c1.7,0,3.39,0,5.09,0a4.66,4.66,0,0,1,2.86.93,3.47,3.47,0,0,1,1.15,2.23,4.19,4.19,0,0,1-.45,2.84A2.43,2.43,0,0,1,135,19.15a4,4,0,0,0-.48.34,4.22,4.22,0,0,1,2,1.31,4,4,0,0,1,.75,2.08,5.74,5.74,0,0,1,0,.72,4.34,4.34,0,0,1-1,3.06,2.94,2.94,0,0,1-1.76,1.08l-2.19.36a1.86,1.86,0,0,1-.34,0h-7.32l-.32,0Zm4,13c.09,0,.11.06.14.06,1.07,0,2.13,0,3.19-.05a1.47,1.47,0,0,0,.93-.53,2,2,0,0,0,.21-2,1.7,1.7,0,0,0-1.63-.89c-.84,0-1.68,0-2.52,0a1.77,1.77,0,0,0-.32.05Zm0-10V18.1c.93,0,1.83.06,2.72,0a1.2,1.2,0,0,0,1.2-1.42c0-.19,0-.39,0-.58A1.33,1.33,0,0,0,131.11,15C130.19,14.93,129.27,15,128.31,15Z"/><path class="cls-1" d="M89.49,28.1v-16h11v2.77H93.58v3.59h5.85v3.24H93.59v3.63h6.9V28.1Z"/><path class="cls-2" d="M57.28,20.93h-1.8c-.55-2.2-1.09-4.41-1.64-6.61h-.11v6.59H52.12c-.12-.33-.16-8.3,0-9h2.7l.1.4c.3,1.15.59,2.3.9,3.45.18.68.38,1.35.59,2.1.09-.11.18-.17.21-.26.08-.31.14-.63.21-.94.24-1,.47-1.94.73-2.9.16-.61.37-1.22.56-1.86h2.65v9H59.06v-6.7l-.15,0C58.37,16.46,57.82,18.69,57.28,20.93Z"/><path class="cls-2" d="M62.65,11.88c1.72,0,3.41,0,5.08.16a2.16,2.16,0,0,1,1.66,3.13,4.88,4.88,0,0,1-.91,1.08,1.5,1.5,0,0,0,.34.24,2.26,2.26,0,0,1,1,3.07,2.38,2.38,0,0,1-2.09,1.35c-1.67,0-3.33,0-5,0Zm1.76,5.26v2.31c1,0,1.9,0,2.83,0a1.09,1.09,0,0,0,0-2.17C66.34,17.19,65.41,17.18,64.41,17.14Zm0-1.64h2.38a1.2,1.2,0,0,0,.33-.06.92.92,0,0,0,.71-1c0-.53-.26-.87-.79-.9-.87,0-1.73,0-2.63,0Z"/><path class="cls-2" d="M25.59,17.07v2.4h5v1.44H23.83V12h6.54v1.53H25.6v1.9H30v1.68Z"/><path class="cls-2" d="M71.13,18.05l1.68-.12c.07.21.13.37.18.54a1.45,1.45,0,0,0,1.32,1.08,3.3,3.3,0,0,0,1.33-.09c.48-.16,1-.62.83-1.19a1.09,1.09,0,0,0-.29-.45,3.72,3.72,0,0,0-1.65-.62c-.62-.19-1.25-.38-1.86-.63a2.3,2.3,0,0,1-.59-.54,2.41,2.41,0,0,1-.34-2.92A2.66,2.66,0,0,1,74,11.86,8.28,8.28,0,0,1,76.1,12a2.28,2.28,0,0,1,1.81,1.74l.16.65-1.82.28c0-.17-.08-.26-.11-.35A1.55,1.55,0,0,0,74,13.42l-.45.17a.54.54,0,0,0-.42.57.68.68,0,0,0,.38.66,8.54,8.54,0,0,0,2.15.68,3.49,3.49,0,0,1,2.44,1.75A2.89,2.89,0,0,1,78,19.62a4.54,4.54,0,0,1-.63.76,2.27,2.27,0,0,1-1,.5,4.81,4.81,0,0,1-1.8.27,4.49,4.49,0,0,1-2.4-.84A3,3,0,0,1,71.13,18.05Z"/><path class="cls-2" d="M15.56,20.92V12H22v1.5H17.37V15.4h4.38v1.65H17.37v2.43H22.3v1.44Z"/><path class="cls-2" d="M33.94,13.46V15.4h4.3v1.68h-4.3v2.39h4.85v1.45H32.17V12h6.45v1.49Z"/><path class="cls-2" d="M43.88,20.92V12h6.38v1.5H45.59V15.4h4.29v1.65H45.6v2.43h4.83v1.44Z"/><path class="cls-1" d="M107.61,6.52h1.91a2,2,0,0,0,1.15,1.7,3.71,3.71,0,0,0,2.1.4,2.54,2.54,0,0,0,2.34-2.1H117a1.52,1.52,0,0,1-.17,1.09A3.32,3.32,0,0,1,116,8.84c-.27.21-.56.4-.85.59s-.52.34-.69.45c-.13.46-.24.81-.33,1.17s-.17.84-.27,1.26c0,.17-.12.33-.16.5-.21.84-.4,1.68-.61,2.51-.05.2-.13.4-.19.6l-.45,1.7s-.1,0-.1,0c-.16-.68-.31-1.36-.47-2-.21-.87-.44-1.73-.64-2.61s-.34-1.65-.5-2.48a1.08,1.08,0,0,0-.59-.76,7.1,7.1,0,0,1-1.55-1A2.74,2.74,0,0,1,107.61,6.52Z"/><path class="cls-1" d="M101,36.18a3.18,3.18,0,0,1-3-2.51H89.4V32.49H98a3.28,3.28,0,0,1,1.19-2,3.71,3.71,0,0,1,1.8-.64v1.28c-1.12.36-1.74,1-1.7,1.89a2.47,2.47,0,0,0,.53,1.26c.3.45.78.38,1.18.59Z"/><path class="cls-2" d="M13.78,20.94H12.15c-.14-.37-.17-8.39,0-9h1.67Z"/><path class="cls-3" d="M84.21,36.57l-.48,0V5.5a1.26,1.26,0,0,1,0-.39c0-.1.15-.17.23-.26.08.08.2.15.24.25a.72.72,0,0,1,0,.33V36C84.24,36.19,84.22,36.35,84.21,36.57Z"/><path class="cls-4" d="M73.86,29v2.29h-.64V26a1.29,1.29,0,0,1,.24-.05c.83,0,1.65,0,2.48,0a1.47,1.47,0,0,1,1.55,1.44,1.94,1.94,0,0,1-1,1.56l-.32.11a9.49,9.49,0,0,1,1.67,2.23c-.69.18-.8.12-1.15-.4s-.76-1-1.1-1.5a.82.82,0,0,0-.75-.34Zm0-.61c.71,0,1.37,0,2,0,.48,0,.67-.43.75-.82s-.13-1-.59-1c-.71-.06-1.43,0-2.18,0Z"/><path class="cls-4" d="M33.08,29a9.49,9.49,0,0,1,1.67,2.23c-.69.18-.8.12-1.16-.4s-.75-1-1.1-1.5a.79.79,0,0,0-.74-.34h-.93v2.29h-.66V26a1.29,1.29,0,0,1,.24-.05c.83,0,1.65,0,2.47,0a1.48,1.48,0,0,1,1.56,1.45,1.94,1.94,0,0,1-1,1.55Zm-2.25-.59c.64,0,1.22,0,1.79,0A1,1,0,0,0,33.54,27a.76.76,0,0,0-.41-.4,8.41,8.41,0,0,0-2.3-.1Z"/><path class="cls-4" d="M35.46,26a1.73,1.73,0,0,1,.3-.06l.44,0c0,.18,0,.35,0,.52v2.33a5.72,5.72,0,0,0,0,.58,1.36,1.36,0,0,0,2.15,1.21,1.18,1.18,0,0,0,.43-.64,3.07,3.07,0,0,0,.1-.86c0-.86,0-1.71,0-2.57v-.55h.75c0,.19,0,.36,0,.53,0,.73,0,1.45,0,2.18a4.59,4.59,0,0,1-.24,1.65A1.51,1.51,0,0,1,38,31.4a4.71,4.71,0,0,1-1.35-.1,1.25,1.25,0,0,1-.87-.76,7,7,0,0,1-.31-1.11,1.68,1.68,0,0,1,0-.39Z"/><path class="cls-4" d="M52.27,31.3h-.63V28.85H48.85v2.44l-.64,0V25.93h.61v2.15h2.81V25.93h.64Z"/><path class="cls-4" d="M72,25.93v.54H69v1.85h2.91v.57H69v1.85h3.26l0,.47a20.68,20.68,0,0,1-4,.06V25.93Z"/><path class="cls-4" d="M25.89,26.47V28.3H28.8l.05.59h-3v1.85h3.26l0,.55h-4V25.93H29v.54Z"/><path class="cls-4" d="M55,25.92h.72a3.6,3.6,0,0,1,.3.51c.3.79.57,1.6.89,2.39s.56,1.28.84,1.93c.06.16.1.33.15.5-.68.21-.87,0-1-.49s-.23-.68-.35-1H54.3l-.62,1.58H53Zm1.29,3.15-.85-2.39-.12,0-.77,2.37Z"/><path class="cls-4" d="M58.56,25.89a18.41,18.41,0,0,1,3.16.12,1.13,1.13,0,0,1,.78.78,1.69,1.69,0,0,1-.46,2,2.14,2.14,0,0,1-1,.31c-.43.05-.87,0-1.31,0l-.53,0v2.16h-.65Zm.68,2.61c.64,0,1.22,0,1.8,0a1,1,0,0,0,.87-.94c0-.51-.17-1-.61-1a20.2,20.2,0,0,0-2.06,0Z"/><path class="cls-4" d="M20.17,25.91c.91,0,1.76,0,2.62,0a1.55,1.55,0,0,1,1.19.62A1.72,1.72,0,0,1,23.22,29a7.07,7.07,0,0,1-1.3.12c-.35,0-.7,0-1.12,0v2.19h-.63Zm.66,2.58c.65,0,1.27,0,1.87,0a1,1,0,0,0,.81-1c0-.52-.22-.92-.68-1-.65-.06-1.31,0-2,0Z"/><path class="cls-4" d="M46.6,29.51l.69.13a2.09,2.09,0,0,1-.55,1.11,2.16,2.16,0,0,1-2.11.64,2.07,2.07,0,0,1-1.73-1.66,5.25,5.25,0,0,1-.14-1.63A2.36,2.36,0,0,1,46,26a1.63,1.63,0,0,1,1.1,1.31l-.57.23c-.06-.1-.12-.2-.17-.3a1.38,1.38,0,0,0-1.63-.78,1.56,1.56,0,0,0-1.2,1.18,3.72,3.72,0,0,0,0,2,1.53,1.53,0,0,0,2.35,1.05,3.61,3.61,0,0,0,.74-1Z"/><path class="cls-4" d="M67.34,25.94v.54H65.63v4.81H65V26.5H63.23l0-.56Z"/><path class="cls-1" d="M111.1,5.67c.65-.72,1.37-.94,1.89-.6a1.37,1.37,0,0,1,.51,1.69,1.35,1.35,0,0,1-1.37.75C111.28,7.32,111,6.88,111.1,5.67Z"/><path class="cls-1" d="M106.84,32.49c-.14-.27-.25-.48-.35-.7a2.57,2.57,0,0,0-1.47-1.3,2.7,2.7,0,0,0-3.31,1.29,2.57,2.57,0,0,0,.15,2.85,2.66,2.66,0,0,0,3.57.82,1.48,1.48,0,0,0,.77-.68,8.77,8.77,0,0,1,.72-1.13h30.34V32.49ZM104,34.81a1.71,1.71,0,1,1,1.7-1.71A1.7,1.7,0,0,1,104,34.81Z"/><path class="cls-3" d="M9.16,39.88h.33L10.76,43h-.42L10,42.07H8.67L8.31,43H7.89Zm.73,1.88-.56-1.43-.58,1.43Z"/><path class="cls-3" d="M11.94,41.41a1.54,1.54,0,0,1,.1-.56,1.4,1.4,0,0,1,.29-.5,1.34,1.34,0,0,1,.46-.35,1.39,1.39,0,0,1,.63-.14,1.28,1.28,0,0,1,.71.19,1.22,1.22,0,0,1,.44.49l-.31.2a.92.92,0,0,0-.17-.25,1,1,0,0,0-.21-.16,1.17,1.17,0,0,0-.24-.09,1,1,0,0,0-.7.08,1.11,1.11,0,0,0-.53.67,1.29,1.29,0,0,0-.07.43,1.22,1.22,0,0,0,.08.47,1.5,1.5,0,0,0,.22.39,1.27,1.27,0,0,0,.34.27,1,1,0,0,0,.43.1,1.07,1.07,0,0,0,.25,0,.77.77,0,0,0,.25-.1,1.18,1.18,0,0,0,.22-.17.92.92,0,0,0,.17-.25l.32.18a.92.92,0,0,1-.2.31,1.29,1.29,0,0,1-.3.22,1.22,1.22,0,0,1-.36.14,1.18,1.18,0,0,1-.37,0,1.16,1.16,0,0,1-.58-.14,1.47,1.47,0,0,1-.46-.36,1.63,1.63,0,0,1-.3-.51A1.7,1.7,0,0,1,11.94,41.41Z"/><path class="cls-3" d="M17,43h-.38V41.7a.91.91,0,0,0-.12-.52.42.42,0,0,0-.36-.18.64.64,0,0,0-.23,0,1.13,1.13,0,0,0-.21.12,1,1,0,0,0-.17.19.68.68,0,0,0-.12.24V43h-.38V39.79h.38v1.4a.93.93,0,0,1,.37-.39,1,1,0,0,1,.5-.14.69.69,0,0,1,.34.07.64.64,0,0,1,.23.2,1.25,1.25,0,0,1,.12.31,2.13,2.13,0,0,1,0,.37Z"/><path class="cls-3" d="M18.21,43a1,1,0,0,1-.3-.05.78.78,0,0,1-.24-.16.6.6,0,0,1-.16-.22.67.67,0,0,1-.06-.28.57.57,0,0,1,.07-.29.69.69,0,0,1,.2-.22,1,1,0,0,1,.3-.14,1.23,1.23,0,0,1,.39,0l.34,0a1.32,1.32,0,0,1,.3.08v-.18a.55.55,0,0,0-.6-.6,1.33,1.33,0,0,0-.73.26L17.6,41a1.53,1.53,0,0,1,.88-.3,1,1,0,0,1,.7.24.87.87,0,0,1,.25.67v.93c0,.09,0,.14.12.14V43h-.18a.26.26,0,0,1-.18-.06.27.27,0,0,1-.08-.17V42.6a.92.92,0,0,1-.39.31A1.18,1.18,0,0,1,18.21,43Zm.1-.29a1,1,0,0,0,.39-.07.82.82,0,0,0,.27-.21.25.25,0,0,0,.08-.17V42a1.46,1.46,0,0,0-.58-.11A.84.84,0,0,0,18,42a.37.37,0,0,0-.18.32.57.57,0,0,0,0,.18.49.49,0,0,0,.11.14.62.62,0,0,0,.16.1A.58.58,0,0,0,18.31,42.73Z"/><path class="cls-3" d="M21.27,43a.94.94,0,0,1-.5-.14,1.14,1.14,0,0,1-.34-.35v1.38h-.38V40.7h.34v.43a1,1,0,0,1,.35-.34.86.86,0,0,1,.48-.13,1,1,0,0,1,.43.09A1.46,1.46,0,0,1,22,41a1.29,1.29,0,0,1,.3.83,1.43,1.43,0,0,1-.07.46,1.12,1.12,0,0,1-.21.37,1.14,1.14,0,0,1-.32.26A1,1,0,0,1,21.27,43Zm-.11-.33a.73.73,0,0,0,.3-.07.78.78,0,0,0,.24-.2,1.17,1.17,0,0,0,.15-.27,1.12,1.12,0,0,0,0-.31.88.88,0,0,0-.06-.33,1.2,1.2,0,0,0-.16-.27.72.72,0,0,0-.25-.18.67.67,0,0,0-.31-.07.6.6,0,0,0-.22,0l-.2.11a.66.66,0,0,0-.17.16.54.54,0,0,0-.1.2v.65a.72.72,0,0,0,.12.21.69.69,0,0,0,.17.17l.21.12A.85.85,0,0,0,21.16,42.69Z"/><path class="cls-3" d="M23.91,42.86l-.09,0-.13.05-.16,0-.18,0a.56.56,0,0,1-.36-.12.43.43,0,0,1-.15-.36V41h-.31v-.3h.31v-.76h.38v.76h.51V41h-.51v1.41a.26.26,0,0,0,.09.19.31.31,0,0,0,.17,0,.66.66,0,0,0,.21,0l.13-.06Z"/><path class="cls-3" d="M25.24,43a1.07,1.07,0,0,1-.83-.35,1,1,0,0,1-.24-.38,1.13,1.13,0,0,1-.09-.45,1.22,1.22,0,0,1,.09-.46,1.17,1.17,0,0,1,.61-.63,1.13,1.13,0,0,1,1.3.26,1.28,1.28,0,0,1,.23.37,1.32,1.32,0,0,1,.08.44v.09a.13.13,0,0,0,0,.06H24.49a.84.84,0,0,0,.08.31.81.81,0,0,0,.17.24.75.75,0,0,0,.24.15.64.64,0,0,0,.28.06.69.69,0,0,0,.2,0l.19-.07a.61.61,0,0,0,.15-.12.57.57,0,0,0,.11-.16l.33.09a.73.73,0,0,1-.16.23,1.37,1.37,0,0,1-.22.19,1.26,1.26,0,0,1-.29.12A1.66,1.66,0,0,1,25.24,43ZM26,41.68a.6.6,0,0,0-.08-.29.7.7,0,0,0-.17-.24.76.76,0,0,0-.23-.15A.87.87,0,0,0,25,41a1,1,0,0,0-.24.15.78.78,0,0,0-.16.24.74.74,0,0,0-.08.29Z"/><path class="cls-3" d="M28,41a1.09,1.09,0,0,0-.51.15.79.79,0,0,0-.31.39V43h-.39V40.7h.36v.53a1.1,1.1,0,0,1,.31-.39.84.84,0,0,1,.41-.16H28Z"/><path class="cls-3" d="M30.4,43a1,1,0,0,1-.47-.1,1.16,1.16,0,0,1-.36-.25,1.36,1.36,0,0,1-.24-.38,1.31,1.31,0,0,1,0-.9,1.23,1.23,0,0,1,.24-.38,1.07,1.07,0,0,1,.83-.35,1.14,1.14,0,0,1,.46.09,1.12,1.12,0,0,1,.37.26,1,1,0,0,1,.23.38,1.13,1.13,0,0,1,.09.45,1.33,1.33,0,0,1-.08.45,1.36,1.36,0,0,1-.24.38,1.16,1.16,0,0,1-.36.25A1,1,0,0,1,30.4,43Zm-.76-1.17a.88.88,0,0,0,.06.33.76.76,0,0,0,.16.26.69.69,0,0,0,.24.18.6.6,0,0,0,.3.07.59.59,0,0,0,.29-.07.69.69,0,0,0,.24-.18,1,1,0,0,0,.17-.27.94.94,0,0,0,0-.66.73.73,0,0,0-.17-.27.69.69,0,0,0-.24-.18A.59.59,0,0,0,30.4,41a.6.6,0,0,0-.3.07.69.69,0,0,0-.24.18.92.92,0,0,0-.16.27A.93.93,0,0,0,29.64,41.85Z"/><path class="cls-3" d="M32.1,43V41h-.31v-.3h.31v-.05a1,1,0,0,1,.19-.66.6.6,0,0,1,.51-.24,1.09,1.09,0,0,1,.26,0,.88.88,0,0,1,.24.11l-.1.28a.52.52,0,0,0-.15-.07l-.17,0a.34.34,0,0,0-.3.15.76.76,0,0,0-.1.42v.06h.61V41h-.61v2Z"/><path class="cls-3" d="M35.66,42.86l-.09,0-.13.05-.16,0-.18,0a.58.58,0,0,1-.36-.12.43.43,0,0,1-.15-.36V41h-.31v-.3h.31v-.76H35v.76h.51V41H35v1.41a.26.26,0,0,0,.09.19.31.31,0,0,0,.17,0,.66.66,0,0,0,.21,0l.13-.06Z"/><path class="cls-3" d="M38,43h-.38V41.7a.91.91,0,0,0-.12-.52.4.4,0,0,0-.36-.18.64.64,0,0,0-.23,0,1.13,1.13,0,0,0-.21.12,1.54,1.54,0,0,0-.17.19.9.9,0,0,0-.12.24V43H36V39.79h.38v1.4a.93.93,0,0,1,.37-.39,1,1,0,0,1,.5-.14.69.69,0,0,1,.34.07.64.64,0,0,1,.23.2,1.25,1.25,0,0,1,.12.31,2.13,2.13,0,0,1,0,.37Z"/><path class="cls-3" d="M39.6,43a1.19,1.19,0,0,1-.47-.09,1.15,1.15,0,0,1-.61-.64,1.33,1.33,0,0,1-.08-.45,1.44,1.44,0,0,1,.08-.46,1.31,1.31,0,0,1,.24-.37,1.37,1.37,0,0,1,.37-.26,1.19,1.19,0,0,1,.47-.09,1.16,1.16,0,0,1,.47.09,1.19,1.19,0,0,1,.36.26,1.1,1.1,0,0,1,.23.37,1.11,1.11,0,0,1,.08.44v.09a.13.13,0,0,1,0,.06H38.84a1.09,1.09,0,0,0,.08.31,1,1,0,0,0,.17.24.75.75,0,0,0,.24.15.67.67,0,0,0,.28.06l.21,0,.19-.07a.88.88,0,0,0,.15-.12.54.54,0,0,0,.1-.16l.33.09a.7.7,0,0,1-.15.23,1.45,1.45,0,0,1-.23.19,1.18,1.18,0,0,1-.28.12A1.86,1.86,0,0,1,39.6,43Zm.78-1.34a1,1,0,0,0-.08-.29.86.86,0,0,0-.17-.24,1,1,0,0,0-.24-.15.88.88,0,0,0-.29,0,.87.87,0,0,0-.28,0,1,1,0,0,0-.24.15.81.81,0,0,0-.17.24.73.73,0,0,0-.07.29Z"/><path class="cls-3" d="M42.34,43v-3.1h.39V43Z"/><path class="cls-3" d="M45.57,42.63V43h-2.1v-3.1h2.06v.35H43.86v1h1.46v.33H43.86v1.07Z"/><path class="cls-3" d="M48.21,42.63V43h-2.1v-3.1h2.06v.35H46.5v1H48v.33H46.5v1.07Z"/><path class="cls-3" d="M50.85,42.63V43h-2.1v-3.1h2.06v.35H49.14v1H50.6v.33H49.14v1.07Z"/><path class="cls-3" d="M54.6,42.63V43H52.49v-3.1h2.07v.35H52.89v1h1.45v.33H52.89v1.07Z"/><path class="cls-3" d="M57,43h-.39V41.7a.93.93,0,0,0-.11-.53.38.38,0,0,0-.34-.17.64.64,0,0,0-.23,0,1,1,0,0,0-.23.12,1.07,1.07,0,0,0-.18.19.9.9,0,0,0-.12.24V43h-.38V40.7h.35v.49a1,1,0,0,1,.39-.39,1.16,1.16,0,0,1,.56-.14.61.61,0,0,1,.32.07.58.58,0,0,1,.21.2,1,1,0,0,1,.11.3,1.58,1.58,0,0,1,0,.38Z"/><path class="cls-3" d="M58.53,43a1,1,0,0,1-.42-.09,1.07,1.07,0,0,1-.55-.63,1.28,1.28,0,0,1,0-.89,1.17,1.17,0,0,1,.21-.38,1.23,1.23,0,0,1,.34-.26,1,1,0,0,1,.43-.09.88.88,0,0,1,.49.14,1.33,1.33,0,0,1,.36.35V40.7h.34V43a1,1,0,0,1-.09.43,1.1,1.1,0,0,1-.25.31,1,1,0,0,1-.37.19,1.33,1.33,0,0,1-.45.07,1.41,1.41,0,0,1-.63-.13,1.22,1.22,0,0,1-.41-.37l.23-.2a.89.89,0,0,0,.34.3,1.07,1.07,0,0,0,.47.1,1,1,0,0,0,.3,0,.7.7,0,0,0,.24-.13.62.62,0,0,0,.17-.22.75.75,0,0,0,.06-.31v-.4a.9.9,0,0,1-.15.19l-.2.14a.85.85,0,0,1-.22.09A1,1,0,0,1,58.53,43Zm.12-.31a.69.69,0,0,0,.24,0,.78.78,0,0,0,.2-.11.69.69,0,0,0,.17-.17.48.48,0,0,0,.08-.18v-.66a.72.72,0,0,0-.12-.21.91.91,0,0,0-.17-.17,1.06,1.06,0,0,0-.21-.11.62.62,0,0,0-.23,0,.78.78,0,0,0-.31.07.74.74,0,0,0-.23.2,1.06,1.06,0,0,0-.15.28,1.12,1.12,0,0,0-.05.31.87.87,0,0,0,.06.32,1,1,0,0,0,.17.27,1.08,1.08,0,0,0,.24.18A.67.67,0,0,0,58.65,42.69Z"/><path class="cls-3" d="M60.35,40.27v-.48h.38v.48Zm0,2.71V40.7h.38V43Z"/><path class="cls-3" d="M63.33,43h-.39V41.7a.93.93,0,0,0-.11-.53.38.38,0,0,0-.34-.17.68.68,0,0,0-.23,0,.94.94,0,0,0-.22.12,1.14,1.14,0,0,0-.19.19.9.9,0,0,0-.12.24V43h-.38V40.7h.35v.49a1,1,0,0,1,.39-.39,1.19,1.19,0,0,1,.56-.14.61.61,0,0,1,.32.07.58.58,0,0,1,.21.2.77.77,0,0,1,.11.3,1.58,1.58,0,0,1,0,.38Z"/><path class="cls-3" d="M64.93,43a1.07,1.07,0,0,1-.83-.35,1,1,0,0,1-.24-.38,1.13,1.13,0,0,1-.09-.45,1.22,1.22,0,0,1,.09-.46A1,1,0,0,1,64.1,41a1.12,1.12,0,0,1,.37-.26,1.19,1.19,0,0,1,.47-.09,1.23,1.23,0,0,1,.47.09,1.19,1.19,0,0,1,.36.26,1.28,1.28,0,0,1,.23.37,1.32,1.32,0,0,1,.08.44.28.28,0,0,1,0,.09V42H64.18a.84.84,0,0,0,.08.31.81.81,0,0,0,.17.24.83.83,0,0,0,.23.15.72.72,0,0,0,.29.06.69.69,0,0,0,.2,0l.19-.07a.61.61,0,0,0,.15-.12.57.57,0,0,0,.11-.16l.33.09a.73.73,0,0,1-.16.23,1.37,1.37,0,0,1-.22.19,1.48,1.48,0,0,1-.29.12A1.66,1.66,0,0,1,64.93,43Zm.78-1.34a.74.74,0,0,0-.08-.29.7.7,0,0,0-.17-.24.75.75,0,0,0-.52-.2.93.93,0,0,0-.29,0,1,1,0,0,0-.24.15.78.78,0,0,0-.16.24.74.74,0,0,0-.08.29Z"/><path class="cls-3" d="M67.51,43a1.19,1.19,0,0,1-.47-.09,1.37,1.37,0,0,1-.37-.26,1,1,0,0,1-.23-.38,1.13,1.13,0,0,1-.09-.45,1.22,1.22,0,0,1,.09-.46,1,1,0,0,1,.24-.37,1.19,1.19,0,0,1,.36-.26,1.24,1.24,0,0,1,.48-.09,1.14,1.14,0,0,1,.46.09,1.12,1.12,0,0,1,.37.26,1.25,1.25,0,0,1,.22.37,1.11,1.11,0,0,1,.08.44V42H66.76a.84.84,0,0,0,.08.31.81.81,0,0,0,.17.24.77.77,0,0,0,.51.21l.21,0,.19-.07a.61.61,0,0,0,.15-.12.39.39,0,0,0,.1-.16l.34.09a.73.73,0,0,1-.16.23,1.11,1.11,0,0,1-.23.19,1.18,1.18,0,0,1-.28.12A1.86,1.86,0,0,1,67.51,43Zm.78-1.34a.74.74,0,0,0-.08-.29.7.7,0,0,0-.17-.24A1,1,0,0,0,67.8,41a.87.87,0,0,0-.28,0,.88.88,0,0,0-.29,0,1,1,0,0,0-.24.15,1,1,0,0,0-.17.24,1,1,0,0,0-.07.29Z"/><path class="cls-3" d="M70.29,41a1.05,1.05,0,0,0-.51.15.79.79,0,0,0-.31.39V43h-.39V40.7h.36v.53a1.1,1.1,0,0,1,.31-.39.8.8,0,0,1,.41-.16h.13Z"/><path class="cls-3" d="M70.67,40.27v-.48h.38v.48Zm0,2.71V40.7h.38V43Z"/><path class="cls-3" d="M73.65,43h-.39V41.7a1,1,0,0,0-.11-.53.38.38,0,0,0-.34-.17.64.64,0,0,0-.23,0,1,1,0,0,0-.23.12,1.07,1.07,0,0,0-.18.19.9.9,0,0,0-.12.24V43h-.38V40.7H72v.49a1,1,0,0,1,.39-.39,1.16,1.16,0,0,1,.56-.14.61.61,0,0,1,.32.07.58.58,0,0,1,.21.2,1,1,0,0,1,.11.3,1.58,1.58,0,0,1,0,.38Z"/><path class="cls-3" d="M75.15,43a1,1,0,0,1-.42-.09,1.07,1.07,0,0,1-.55-.63,1.28,1.28,0,0,1,0-.89,1.17,1.17,0,0,1,.21-.38,1.23,1.23,0,0,1,.34-.26,1,1,0,0,1,.43-.09.88.88,0,0,1,.49.14,1.33,1.33,0,0,1,.36.35V40.7h.34V43a1,1,0,0,1-.09.43,1.1,1.1,0,0,1-.25.31,1,1,0,0,1-.37.19,1.33,1.33,0,0,1-.45.07,1.41,1.41,0,0,1-.63-.13,1.22,1.22,0,0,1-.41-.37l.23-.2a.89.89,0,0,0,.34.3,1.07,1.07,0,0,0,.47.1,1,1,0,0,0,.3,0,.7.7,0,0,0,.24-.13.62.62,0,0,0,.17-.22A.75.75,0,0,0,76,43v-.4a.9.9,0,0,1-.15.19l-.2.14a.85.85,0,0,1-.22.09A1,1,0,0,1,75.15,43Zm.12-.31a.69.69,0,0,0,.24,0,.78.78,0,0,0,.2-.11.69.69,0,0,0,.17-.17.48.48,0,0,0,.08-.18v-.66a.72.72,0,0,0-.12-.21.91.91,0,0,0-.17-.17,1.06,1.06,0,0,0-.21-.11.59.59,0,0,0-.23,0,.78.78,0,0,0-.31.07.74.74,0,0,0-.23.2,1.06,1.06,0,0,0-.15.28,1.12,1.12,0,0,0-.05.31.87.87,0,0,0,.06.32,1,1,0,0,0,.17.27,1.08,1.08,0,0,0,.24.18A.67.67,0,0,0,75.27,42.69Z"/><path class="cls-3" d="M78.07,40.27v-.48h.38v.48Zm0,2.71V40.7h.38V43Z"/><path class="cls-3" d="M81.05,43h-.38V41.7a1,1,0,0,0-.11-.53.4.4,0,0,0-.34-.17.69.69,0,0,0-.24,0,.94.94,0,0,0-.22.12,1.07,1.07,0,0,0-.18.19.55.55,0,0,0-.12.24V43h-.39V40.7h.35v.49a1,1,0,0,1,.39-.39,1.19,1.19,0,0,1,.56-.14.67.67,0,0,1,.33.07.8.8,0,0,1,.21.2,1,1,0,0,1,.11.3,2.34,2.34,0,0,1,0,.38Z"/><path class="cls-3" d="M85.49,43v-2.4l-1,1.84h-.22l-1-1.84V43h-.4v-3.1h.42l1.12,2,1.13-2h.41V43Z"/><path class="cls-3" d="M87.53,43a1.23,1.23,0,0,1-.47-.09,1.19,1.19,0,0,1-.36-.26,1.23,1.23,0,0,1-.24-.38,1.13,1.13,0,0,1-.09-.45,1.22,1.22,0,0,1,.09-.46A1.31,1.31,0,0,1,86.7,41a1.23,1.23,0,0,1,.37-.26,1.13,1.13,0,0,1,1.3.26,1.28,1.28,0,0,1,.23.37,1.32,1.32,0,0,1,.08.44v.09a.13.13,0,0,0,0,.06H86.78a.84.84,0,0,0,.08.31.81.81,0,0,0,.17.24.75.75,0,0,0,.24.15.67.67,0,0,0,.28.06.64.64,0,0,0,.2,0l.19-.07a1,1,0,0,0,.16-.12.86.86,0,0,0,.1-.16l.33.09a.73.73,0,0,1-.16.23,1.37,1.37,0,0,1-.22.19,1.26,1.26,0,0,1-.29.12A1.66,1.66,0,0,1,87.53,43Zm.79-1.34a1,1,0,0,0-.08-.29.89.89,0,0,0-.18-.24.76.76,0,0,0-.23-.15.87.87,0,0,0-.58,0,1,1,0,0,0-.24.15,1,1,0,0,0-.16.24,1,1,0,0,0-.08.29Z"/><path class="cls-3" d="M90,43a.91.91,0,0,1-.43-.1,1.12,1.12,0,0,1-.35-.25,1.3,1.3,0,0,1-.22-.38,1.12,1.12,0,0,1-.08-.45,1.33,1.33,0,0,1,.07-.45,1.19,1.19,0,0,1,.22-.38,1.14,1.14,0,0,1,.32-.26,1,1,0,0,1,.42-.09.91.91,0,0,1,.49.14,1.13,1.13,0,0,1,.34.35V39.79h.39V42.5c0,.09,0,.14.12.14V43h-.17a.29.29,0,0,1-.2-.07.25.25,0,0,1-.08-.18v-.19A1,1,0,0,1,90,43Zm.1-.33a.86.86,0,0,0,.21,0,.7.7,0,0,0,.21-.11.87.87,0,0,0,.17-.16.45.45,0,0,0,.09-.2v-.66a.56.56,0,0,0-.11-.2.72.72,0,0,0-.18-.17L90.32,41a.57.57,0,0,0-.22,0,.64.64,0,0,0-.31.07.71.71,0,0,0-.23.19.76.76,0,0,0-.15.28.87.87,0,0,0-.06.32.71.71,0,0,0,.07.32.92.92,0,0,0,.16.27.94.94,0,0,0,.25.18A.62.62,0,0,0,90.14,42.69Z"/><path class="cls-3" d="M91.85,40.27v-.48h.38v.48Zm0,2.71V40.7h.38V43Z"/><path class="cls-3" d="M92.7,41.83a1.33,1.33,0,0,1,.08-.45,1.2,1.2,0,0,1,.6-.63,1.21,1.21,0,0,1,.48-.09,1.09,1.09,0,0,1,.58.15,1,1,0,0,1,.38.4l-.38.12a.64.64,0,0,0-.24-.25.7.7,0,0,0-.35-.09.73.73,0,0,0-.3.06,1.08,1.08,0,0,0-.24.18.81.81,0,0,0-.16.27.88.88,0,0,0-.06.33,1,1,0,0,0,.06.34,1.24,1.24,0,0,0,.17.27.69.69,0,0,0,.24.18.59.59,0,0,0,.29.07.64.64,0,0,0,.2,0,.75.75,0,0,0,.18-.08l.14-.11a.42.42,0,0,0,.09-.14l.37.12a.79.79,0,0,1-.14.23,1,1,0,0,1-.22.18,1.39,1.39,0,0,1-.28.12,1.86,1.86,0,0,1-.33,0,1,1,0,0,1-.47-.1,1.34,1.34,0,0,1-.37-.25,1.14,1.14,0,0,1-.23-.38A1.22,1.22,0,0,1,92.7,41.83Z"/><path class="cls-3" d="M95.27,40.27v-.48h.39v.48Zm0,2.71V40.7h.39V43Z"/><path class="cls-3" d="M98.25,43h-.38V41.7a1,1,0,0,0-.11-.53.4.4,0,0,0-.34-.17.69.69,0,0,0-.24,0,.94.94,0,0,0-.22.12,1.07,1.07,0,0,0-.18.19.55.55,0,0,0-.12.24V43h-.39V40.7h.35v.49A1,1,0,0,1,97,40.8a1.19,1.19,0,0,1,.56-.14.67.67,0,0,1,.33.07.8.8,0,0,1,.21.2,1,1,0,0,1,.11.3,2.34,2.34,0,0,1,0,.38Z"/><path class="cls-3" d="M99.86,43a1.16,1.16,0,0,1-.47-.09,1.12,1.12,0,0,1-.37-.26,1.23,1.23,0,0,1-.24-.38,1.12,1.12,0,0,1-.08-.45,1.21,1.21,0,0,1,.08-.46A1.31,1.31,0,0,1,99,41a1.23,1.23,0,0,1,.37-.26,1.13,1.13,0,0,1,1.3.26,1.1,1.1,0,0,1,.23.37,1.32,1.32,0,0,1,.08.44v.09s0,0,0,.06H99.1a1.09,1.09,0,0,0,.08.31.81.81,0,0,0,.17.24.75.75,0,0,0,.24.15.67.67,0,0,0,.28.06l.21,0,.18-.07a1,1,0,0,0,.16-.12.54.54,0,0,0,.1-.16l.33.09a.91.91,0,0,1-.15.23,1.45,1.45,0,0,1-.23.19,1.26,1.26,0,0,1-.29.12A1.65,1.65,0,0,1,99.86,43Zm.78-1.34a1,1,0,0,0-.08-.29,1.13,1.13,0,0,0-.17-.24,1,1,0,0,0-.24-.15.87.87,0,0,0-.58,0,.76.76,0,0,0-.23.15.81.81,0,0,0-.17.24,1,1,0,0,0-.08.29Z"/><path class="cls-3" d="M104.66,43l-.32-.34a1.19,1.19,0,0,1-.42.28,1.18,1.18,0,0,1-.5.1A1.09,1.09,0,0,1,103,43a.87.87,0,0,1-.31-.18,1,1,0,0,1-.22-.27.77.77,0,0,1-.07-.34.68.68,0,0,1,0-.29.92.92,0,0,1,.13-.24,1.26,1.26,0,0,1,.2-.2l.23-.18-.18-.21-.12-.18-.07-.16a.88.88,0,0,1,0-.16.67.67,0,0,1,.06-.28.62.62,0,0,1,.17-.22.79.79,0,0,1,.25-.15,1.13,1.13,0,0,1,.32,0,.92.92,0,0,1,.29,0,.73.73,0,0,1,.41.33.75.75,0,0,1,0,.26.53.53,0,0,1,0,.25.8.8,0,0,1-.13.21l-.2.18-.25.18.79.83a2.84,2.84,0,0,0,.13-.35,1.61,1.61,0,0,0,0-.39h.32a2.26,2.26,0,0,1-.07.53,1.6,1.6,0,0,1-.2.44l.6.63Zm-1.2-.27a.94.94,0,0,0,.37-.07,1.29,1.29,0,0,0,.3-.22l-.88-.93a1.42,1.42,0,0,0-.33.31.52.52,0,0,0-.13.36.48.48,0,0,0,.06.24.4.4,0,0,0,.15.17.7.7,0,0,0,.21.11A1,1,0,0,0,103.46,42.71ZM103,40.53a.29.29,0,0,0,0,.09l0,.11.1.14.17.19a2.08,2.08,0,0,0,.37-.28.42.42,0,0,0,.14-.3.33.33,0,0,0-.11-.25.41.41,0,0,0-.29-.1.44.44,0,0,0-.32.12A.37.37,0,0,0,103,40.53Z"/><path class="cls-3" d="M109.05,42.18a.66.66,0,0,1-.08.32.7.7,0,0,1-.19.26,1,1,0,0,1-.64.22h-1.47v-3.1h1.54a.57.57,0,0,1,.29.07.55.55,0,0,1,.22.18,1,1,0,0,1,.15.25,1,1,0,0,1,0,.29.79.79,0,0,1-.12.42.74.74,0,0,1-.33.3.75.75,0,0,1,.42.29A.85.85,0,0,1,109.05,42.18Zm-2-2v1h1a.41.41,0,0,0,.19,0,.42.42,0,0,0,.15-.11.54.54,0,0,0,.1-.16.71.71,0,0,0,0-.2.49.49,0,0,0,0-.21.42.42,0,0,0-.09-.16.33.33,0,0,0-.15-.11.34.34,0,0,0-.18,0Zm1.59,1.89a.52.52,0,0,0,0-.21.59.59,0,0,0-.1-.17.44.44,0,0,0-.15-.12.58.58,0,0,0-.19,0h-1.11v1.07h1.08a.46.46,0,0,0,.2,0,.91.91,0,0,0,.16-.11.62.62,0,0,0,.11-.17A.48.48,0,0,0,108.65,42.11Z"/><path class="cls-3" d="M109.53,40.27v-.48h.39v.48Zm0,2.71V40.7h.39V43Z"/><path class="cls-3" d="M111.53,43a1,1,0,0,1-.47-.1,1.16,1.16,0,0,1-.36-.25,1.14,1.14,0,0,1-.23-.38,1.31,1.31,0,0,1,0-.9,1.23,1.23,0,0,1,.24-.38,1.19,1.19,0,0,1,.36-.26,1.14,1.14,0,0,1,.46-.09,1.07,1.07,0,0,1,.83.35,1.23,1.23,0,0,1,.24.38,1.31,1.31,0,0,1,0,.9,1.14,1.14,0,0,1-.23.38,1.34,1.34,0,0,1-.37.25A1,1,0,0,1,111.53,43Zm-.75-1.17a.88.88,0,0,0,.06.33.76.76,0,0,0,.16.26.69.69,0,0,0,.24.18.59.59,0,0,0,.29.07.6.6,0,0,0,.3-.07.69.69,0,0,0,.24-.18.92.92,0,0,0,.16-.27.94.94,0,0,0,0-.66.72.72,0,0,0-.16-.27.69.69,0,0,0-.24-.18.6.6,0,0,0-.3-.07.59.59,0,0,0-.29.07.69.69,0,0,0-.24.18.92.92,0,0,0-.16.27A.93.93,0,0,0,110.78,41.85Z"/><path class="cls-3" d="M113.16,39.79h.38v2.6a.32.32,0,0,0,.07.2.29.29,0,0,0,.19.07l.12,0,.12,0,.06.31-.23.07-.23,0a.5.5,0,0,1-.35-.13.45.45,0,0,1-.13-.35Z"/><path class="cls-3" d="M115.39,43a1,1,0,0,1-.46-.1,1.1,1.1,0,0,1-.37-.25,1.33,1.33,0,0,1-.23-.38,1.12,1.12,0,0,1-.08-.45,1.33,1.33,0,0,1,.08-.45,1.23,1.23,0,0,1,.24-.38,1.18,1.18,0,0,1,1.29-.26,1.23,1.23,0,0,1,.37.26,1.21,1.21,0,0,1,.23.38,1.26,1.26,0,0,1-.23,1.28,1.21,1.21,0,0,1-.37.25A1,1,0,0,1,115.39,43Zm-.75-1.17a.88.88,0,0,0,.06.33.76.76,0,0,0,.16.26.69.69,0,0,0,.24.18.59.59,0,0,0,.29.07.6.6,0,0,0,.3-.07.69.69,0,0,0,.24-.18.74.74,0,0,0,.16-.27.94.94,0,0,0,0-.66.61.61,0,0,0-.16-.27.69.69,0,0,0-.24-.18.6.6,0,0,0-.3-.07.59.59,0,0,0-.29.07.69.69,0,0,0-.24.18.92.92,0,0,0-.16.27A.93.93,0,0,0,114.64,41.85Z"/><path class="cls-3" d="M117.92,43a1,1,0,0,1-.42-.09,1.1,1.1,0,0,1-.34-.26,1.23,1.23,0,0,1-.21-.37,1.11,1.11,0,0,1-.08-.44,1.12,1.12,0,0,1,.08-.45,1.17,1.17,0,0,1,.21-.38,1.1,1.1,0,0,1,.34-.26,1,1,0,0,1,.43-.09.88.88,0,0,1,.49.14,1.33,1.33,0,0,1,.36.35V40.7h.34V43a.85.85,0,0,1-.1.43.92.92,0,0,1-.24.31,1,1,0,0,1-.37.19A1.33,1.33,0,0,1,118,44a1.41,1.41,0,0,1-.63-.13,1.22,1.22,0,0,1-.41-.37l.22-.2a.92.92,0,0,0,.35.3,1.07,1.07,0,0,0,.47.1.92.92,0,0,0,.29,0,.66.66,0,0,0,.25-.13.62.62,0,0,0,.17-.22.75.75,0,0,0,.06-.31v-.4a.9.9,0,0,1-.15.19l-.2.14a.85.85,0,0,1-.22.09A1,1,0,0,1,117.92,43Zm.12-.31a.59.59,0,0,0,.23,0,.7.7,0,0,0,.21-.11.69.69,0,0,0,.17-.17.48.48,0,0,0,.08-.18v-.66a.72.72,0,0,0-.12-.21.91.91,0,0,0-.17-.17,1.06,1.06,0,0,0-.21-.11.62.62,0,0,0-.23,0,.78.78,0,0,0-.31.07.74.74,0,0,0-.23.2.84.84,0,0,0-.15.28,1.12,1.12,0,0,0,0,.31.87.87,0,0,0,.06.32.92.92,0,0,0,.16.27,1.14,1.14,0,0,0,.25.18A.67.67,0,0,0,118,42.69Z"/><path class="cls-3" d="M119.84,43.6h.2l.1,0a.49.49,0,0,0,.08-.1.85.85,0,0,0,.09-.19c0-.08.08-.19.13-.32l-1-2.28h.4l.77,1.93.71-1.93h.37l-1.11,2.87a.6.6,0,0,1-.21.27A.57.57,0,0,1,120,44h-.18Z"/><path class="cls-3" d="M125,40.53a.58.58,0,0,0-.14-.12l-.2-.1-.23-.08a1.23,1.23,0,0,0-.27,0,.84.84,0,0,0-.53.13.45.45,0,0,0-.17.37.41.41,0,0,0,0,.21.34.34,0,0,0,.15.14.82.82,0,0,0,.25.1l.37.1a2.43,2.43,0,0,1,.43.12,1.27,1.27,0,0,1,.33.16.72.72,0,0,1,.21.25.75.75,0,0,1,.07.35.93.93,0,0,1-.08.39.78.78,0,0,1-.24.27,1.19,1.19,0,0,1-.36.16,2,2,0,0,1-.44,0,2.15,2.15,0,0,1-.68-.11,2.08,2.08,0,0,1-.58-.33l.18-.33a1,1,0,0,0,.19.15,1.17,1.17,0,0,0,.25.13,2.64,2.64,0,0,0,.3.1,2,2,0,0,0,.35,0,.92.92,0,0,0,.51-.12.45.45,0,0,0,.13-.57.45.45,0,0,0-.18-.15.91.91,0,0,0-.28-.12l-.38-.1-.41-.12a1.39,1.39,0,0,1-.3-.16.63.63,0,0,1-.18-.22.79.79,0,0,1-.07-.32.88.88,0,0,1,.32-.68,1.06,1.06,0,0,1,.35-.18,2.14,2.14,0,0,1,.45,0,1.6,1.6,0,0,1,.56.09,1.66,1.66,0,0,1,.45.26Z"/><path class="cls-3" d="M126.75,43a1,1,0,0,1-.47-.1,1.16,1.16,0,0,1-.36-.25,1.21,1.21,0,0,1-.23-1.28,1.23,1.23,0,0,1,.24-.38,1.19,1.19,0,0,1,.36-.26,1.14,1.14,0,0,1,.46-.09,1.07,1.07,0,0,1,.83.35,1.23,1.23,0,0,1,.24.38,1.31,1.31,0,0,1,0,.9,1.14,1.14,0,0,1-.23.38,1.34,1.34,0,0,1-.37.25A1,1,0,0,1,126.75,43ZM126,41.85a.88.88,0,0,0,.06.33.76.76,0,0,0,.16.26.69.69,0,0,0,.24.18.59.59,0,0,0,.29.07.63.63,0,0,0,.3-.07.69.69,0,0,0,.24-.18.92.92,0,0,0,.16-.27.94.94,0,0,0,0-.66.72.72,0,0,0-.16-.27.69.69,0,0,0-.24-.18.63.63,0,0,0-.3-.07.59.59,0,0,0-.29.07.69.69,0,0,0-.24.18.92.92,0,0,0-.16.27A.93.93,0,0,0,126,41.85Z"/><path class="cls-3" d="M128.22,41.83a1.33,1.33,0,0,1,.08-.45,1,1,0,0,1,.24-.37,1.07,1.07,0,0,1,.83-.35,1.1,1.1,0,0,1,.59.15.89.89,0,0,1,.37.4l-.37.12a.64.64,0,0,0-.24-.25.75.75,0,0,0-.65,0,1.08,1.08,0,0,0-.24.18.81.81,0,0,0-.16.27.88.88,0,0,0-.06.33,1,1,0,0,0,.06.34,1,1,0,0,0,.17.27.55.55,0,0,0,.24.18.59.59,0,0,0,.29.07.69.69,0,0,0,.2,0l.18-.08.14-.11a.42.42,0,0,0,.09-.14l.37.12a.79.79,0,0,1-.14.23,1.24,1.24,0,0,1-.22.18,1.26,1.26,0,0,1-.29.12,1.65,1.65,0,0,1-.32,0,1,1,0,0,1-.47-.1,1.21,1.21,0,0,1-.37-.25,1.36,1.36,0,0,1-.24-.38A1.44,1.44,0,0,1,128.22,41.83Z"/><path class="cls-3" d="M130.79,40.27v-.48h.38v.48Zm0,2.71V40.7h.38V43Z"/><path class="cls-3" d="M132.8,43a1.19,1.19,0,0,1-.47-.09,1.15,1.15,0,0,1-.61-.64,1.33,1.33,0,0,1-.08-.45,1.44,1.44,0,0,1,.08-.46A1.31,1.31,0,0,1,132,41a1.37,1.37,0,0,1,.37-.26,1.23,1.23,0,0,1,.47-.09,1.16,1.16,0,0,1,.47.09,1.19,1.19,0,0,1,.36.26,1.1,1.1,0,0,1,.23.37,1.11,1.11,0,0,1,.08.44v.09a.13.13,0,0,1,0,.06h-1.88a.82.82,0,0,0,.07.31,1,1,0,0,0,.17.24.75.75,0,0,0,.24.15.67.67,0,0,0,.28.06l.21,0,.19-.07a.88.88,0,0,0,.15-.12.39.39,0,0,0,.1-.16l.33.09a.57.57,0,0,1-.15.23,1.45,1.45,0,0,1-.23.19,1.18,1.18,0,0,1-.28.12A1.86,1.86,0,0,1,132.8,43Zm.78-1.34a.74.74,0,0,0-.08-.29.7.7,0,0,0-.17-.24,1,1,0,0,0-.24-.15.88.88,0,0,0-.29,0,.87.87,0,0,0-.28,0,1,1,0,0,0-.24.15,1,1,0,0,0-.17.24,1,1,0,0,0-.07.29Z"/><path class="cls-3" d="M135.53,42.86l-.09,0-.13.05-.16,0L135,43a.56.56,0,0,1-.36-.12.43.43,0,0,1-.15-.36V41h-.31v-.3h.31v-.76h.38v.76h.51V41h-.51v1.41a.31.31,0,0,0,.08.19.35.35,0,0,0,.18,0,.76.76,0,0,0,.21,0l.13-.06Z"/><path class="cls-3" d="M136,43.6h.2l.09,0a.3.3,0,0,0,.09-.1,1.79,1.79,0,0,0,.09-.19c0-.08.08-.19.13-.32l-1-2.28H136l.78,1.93.71-1.93h.36l-1.1,2.87a.6.6,0,0,1-.21.27.57.57,0,0,1-.39.12H136Z"/></svg>