<?xml version="1.0" encoding="utf-8"?>
<!-- Generator: Adobe Illustrator 22.0.1, SVG Export Plug-In . SVG Version: 6.00 Build 0)  -->
<svg version="1.1" id="Capa_1" xmlns="http://www.w3.org/2000/svg" xmlns:xlink="http://www.w3.org/1999/xlink" x="0px" y="0px"
	 viewBox="0 0 213.5 79.1" style="enable-background:new 0 0 213.5 79.1;" xml:space="preserve">
<style type="text/css">
	.st0{fill:#2A3B47;}
	.st1{fill:#08D5A9;}
	.st2{fill:#00BFEC;}
</style>
<image style="overflow:visible;" width="214" height="100" xlink:href="BEFB639B.jpg"  transform="matrix(1 0 0 1 -6704.4854 -7684.4448)">
</image>
<g>
	<path class="st0" d="M72.8,19.1v10.4h9.5V19.1h6.1v25.5h-6.1v-9.8h-9.5v9.8h-6.1V19.1H72.8z"/>
	<path class="st0" d="M112.7,25.6c0,2.7-1.6,4.8-4,5.5c3,0.7,4.8,3.2,4.8,6.4c0,4.4-3.5,7.1-9,7.1H92.9V19.1H104
		C109.3,19.1,112.7,21.7,112.7,25.6z M106.4,26.8c0-1.5-1-2.4-2.7-2.4H99v5h4.7C105.4,29.3,106.4,28.4,106.4,26.8z M107.2,36.7
		c0-1.6-1.3-2.6-3.5-2.6H99v5.4h4.7C105.8,39.5,107.2,38.5,107.2,36.7z"/>
	<path class="st0" d="M122.9,19.1v25.5h-6.1V19.1H122.9z"/>
	<path class="st1" d="M138.6,24.6c-3.6,0-6.4,3.1-6.4,7.2c0,4.1,2.7,7.2,6.4,7.2c1.9,0,4.2-1.2,5.8-3l3.6,4.2
		c-2.5,2.9-6.3,4.7-9.7,4.7c-7.1,0-12.3-5.6-12.3-13.1c0-7.4,5.4-12.9,12.5-12.9c3.5,0,7.1,1.7,9.5,4.4l-3.5,4.6
		C142.9,25.9,140.7,24.6,138.6,24.6z"/>
	<path class="st1" d="M174.1,31.9c0,7.5-5.4,13.1-12.7,13.1c-7.3,0-12.7-5.6-12.7-13.1c0-7.4,5.4-12.9,12.7-12.9
		C168.7,19,174.1,24.5,174.1,31.9z M155,31.9c0,4.2,3,7.4,6.5,7.4c3.5,0,6.3-3.2,6.3-7.4s-2.8-7.3-6.3-7.3S155,27.8,155,31.9z"/>
	<path class="st1" d="M183.8,19.1L190,34l6.2-14.9h6.7v25.5h-5.4l0-16.2L192,42.1h-4l-5.5-13.6v16.2h-5.5V19.1H183.8z"/>
</g>
<path class="st2" d="M56.1,37.3c-1.2-4.4-4.9-7.1-10-7.2c-1.5,0-2.9,0-4.5,0l-0.5,0c0-0.3,0-0.6,0-1c0.1-1.9,0.1-3.7-0.1-5.5
	c-0.7-5.5-4.8-9.1-10-8.7c-5.1,0.4-8.5,4.4-8.5,10.1c0,1.5,0,2.9,0,4.5l0,0.6c-0.5,0-0.9,0-1.4,0c-0.5,0-1.1,0-1.6,0
	c-1.4,0-2.9,0-4.3,0.3C10,31.2,6.5,35.5,7,40.3c0.5,5.2,4.2,8.5,9.7,8.6c1.5,0,3.1,0,4.6,0l1,0c0,0.8,0,1.6,0,2.4
	c0,1.5,0,2.9,0.1,4.4c0.1,2.8,1.5,5.3,3.8,7c1.6,1.1,3.4,1.7,5.3,1.7c0.9,0,1.7-0.1,2.6-0.4c4.6-1.3,6.9-4.6,7.1-10
	c0.1-1.4,0-2.9,0-4.4c0-0.2,0-0.4,0-0.7c0.3,0,0.6,0,0.9,0c1.9,0,3.6,0,5.4,0c2.8-0.1,5.3-1.4,7-3.7C56.3,42.9,56.8,40,56.1,37.3z
	 M22.3,44c-3.2,0-5.6,0.2-7.9-0.9c-1.7-0.8-2.3-2.6-2-4.1c0.4-2.1,1.7-3.4,3.8-3.6c0.9-0.1,1.9-0.1,2.8-0.1c0.3,0,0.7,0,1,0
	c0.8,0,1.5,0,2.3,0c0,0,0,0,0,0V44z M27.4,27.4l0-0.8c0-1.1,0-2.1,0.2-3c0.5-2.1,2-3.4,4-3.4c0,0,0.1,0,0.1,0c1.7,0,3.7,0.9,4,3.4
	c0.2,1.7,0.2,3.4,0.1,5.3c0,0.4,0,0.7,0,1.1h-8.4C27.4,29.1,27.4,28.2,27.4,27.4z M50.5,41.8c-0.8,1.3-2.1,2-4,2c-0.3,0-0.6,0-0.9,0
	h-4.3H41h-5v0.5l0,0l0,3.9c0,0.1,0,0.2,0,0.3v0.3h0c0,1.5,0,2.9,0,4.3c0,1-0.1,2-0.3,2.9c-0.5,1.8-1.8,2.8-3.6,2.9
	c-1.7,0.1-3.3-0.9-3.9-2.5c-0.4-1-0.6-2-0.6-2.9c-0.1-5-0.1-9.1,0-12.9c0.1-3.6,1.8-5.3,5.4-5.3l2.3,0c1.7,0,3.5,0,5.2,0
	c2.1,0,4.2,0,6.2,0.1c1.9,0.1,3.4,1,4.2,2.4C51.4,39,51.3,40.5,50.5,41.8z"/>
<g>
	<path class="st0" d="M165.2,53.7c0-0.9-0.7-1.4-1.9-1.4c-1.2,0-2.6,0.7-3.8,1.7l-1.2-2.3c1.7-1.3,3.5-2,5.4-2
		c2.7,0,4.6,1.4,4.6,3.5c0,1.5-1.1,3-2.6,4.5l-3.2,3.1h6.3v2.6h-10.2v-2.1l5-5.2C164.6,55.3,165.2,54.4,165.2,53.7z"/>
	<path class="st0" d="M181,56.7c0,4.4-1.9,6.9-5.2,6.9c-3.4,0-5.3-2.4-5.3-6.9c0-4.4,1.9-6.9,5.3-6.9C179.1,49.8,181,52.2,181,56.7z
		 M173.5,56.7c0,3.2,0.7,4.6,2.3,4.6c1.6,0,2.3-1.4,2.3-4.6c0-3.2-0.7-4.6-2.3-4.6C174.2,52,173.5,53.4,173.5,56.7z"/>
	<path class="st0" d="M189.2,53.7c0-0.9-0.7-1.4-1.9-1.4c-1.2,0-2.6,0.7-3.8,1.7l-1.2-2.3c1.7-1.3,3.5-2,5.4-2
		c2.7,0,4.6,1.4,4.6,3.5c0,1.5-1.1,3-2.6,4.5l-3.2,3.1h6.3v2.6h-10.2v-2.1l5-5.2C188.6,55.3,189.2,54.4,189.2,53.7z"/>
	<path class="st0" d="M201.4,49.9v13.6h-3.1v-11h-2.7v-2.6H201.4z"/>
</g>
<g>
	<rect x="66.8" y="56.1" class="st0" width="84.9" height="2.4"/>
</g>
</svg>
