<svg id="Capa_1" data-name="Capa 1" xmlns="http://www.w3.org/2000/svg" viewBox="0 0 126.39 133.69"><defs><style>.cls-1{fill:#2a3b47;}.cls-2{fill:#00c6f3;}</style></defs><title>logo</title><path class="cls-1" d="M118.61,77.58C118,98,98,119.14,75.18,123.71A56.24,56.24,0,0,1,13,92.66c-10.31-22-4.91-50.48,12.62-64-9.85,14.46-13.48,30.1-8.78,47s15.61,28.81,32,35.26C76.35,121.85,101,110,118.61,77.58Z"/><path class="cls-1" d="M56.11,81.81c-1.7-6.2-3.28-12.43-5.18-18.57-.51-1.65-2-3-3-4.5A36.59,36.59,0,0,0,45.13,63a13.22,13.22,0,0,0-1.22,4.31c-.52,5-3.3,6.47-8.13,6.16-6.28-.39-7.19-.84-7.45-7.14C28,58.55,31,52.24,37.74,48.25S51,45,57.54,49.1a6.21,6.21,0,0,0,5.48,0c6.91-4.31,13.79-5,20.62-.39C91,53.64,93,60.87,91.9,69.3c-.37,2.73-1.6,4.48-4.52,4-3.1-.49-7.35,2.08-8.87-3-.91-3-1.53-6.16-2.6-9.12a4.54,4.54,0,0,0-2.67-2.31c-.44-.14-1.7,1.32-2.09,2.26a30.35,30.35,0,0,0-1.48,5.28c-.87,4.09-1.89,7.76-7.47,7.23-1-.09-2.46,1.86-3.21,3.16a26.37,26.37,0,0,0-1.76,5Z"/><path class="cls-2" d="M104.3,89.34c14.25-30.77-2.38-55.09-20-63.38-19.43-9.14-46.53-4.4-60.08,20.83,1.09-11.8,16-28.23,34.45-32,19.8-4.09,40.27,5.15,50.67,23.71C118.26,54.4,116.38,77.23,104.3,89.34Z"/><path class="cls-2" d="M48.67,70.31c1.46,5.4,2.84,11.16,4.64,16.78.57,1.77,2.3,3.17,3.5,4.73a26.83,26.83,0,0,0,3.27-4.42,25.93,25.93,0,0,0,1.61-5.75c.61-2.92,2-4.11,5.19-4.9,2.7-.67,4.8-3.76,6.78-5.45,1.28,1.39,2.89,4.28,5.31,5.42s5.71.54,10.24.8c-3.57,4.6-5.86,8.49-9,11.43a188.21,188.21,0,0,1-15.94,12.72c-1.31,1-3.8,1.89-5,1.29C48.22,97.22,38.79,89.62,32,77.49c4.16-.22,7.68.38,10.46-.79C44.9,75.69,46.49,72.68,48.67,70.31Z"/></svg>