<svg id="Capa_1" data-name="Capa 1" xmlns="http://www.w3.org/2000/svg" viewBox="0 0 126.39 133.69"><defs><style>.cls-1{opacity:0.96;}.cls-2{fill:#2a3b47;}.cls-3{fill:#00c6f3;}</style></defs><title>logo-cfp</title><g class="cls-1"><path class="cls-2" d="M27.81,84.27V80.61q0-21.48,0-43c0-11.68,6.86-18.44,18.61-18.45h58.48c9.66,0,14.94,5.3,15,14.94,0,2.59,0,5.17,0,7.76,0,4.46-.43,4.87-5,4.88s-9,.12-13.42-.05c-2.29-.08-2.84.73-2.83,2.91.09,15.32,0,30.63,0,46,0,10.24-5.17,15.4-15.41,15.4q-28.95,0-57.89,0c-12,0-18.79-6.8-18.83-18.87,0-7.92-.59-8,7.74-7.86C18.62,84.31,23,84.27,27.81,84.27Zm5.65.12H72.62c4.54,0,5,.47,5,4.88,0,2.78-.07,5.57,0,8.35a7.72,7.72,0,0,0,5.71,7.51c5.27,1.4,9.75-2.26,9.76-8.1,0-18.7,0-37.4,0-56.1,0-5.39-.89-10.91,2.36-16.08-1-.07-1.61-.15-2.18-.15q-23.88,0-47.75,0a17.61,17.61,0,0,0-3.55.37c-4.31.89-8.43,4.58-8.5,8.91C33.31,50.67,33.46,67.36,33.46,84.39ZM12.18,90.17a37.27,37.27,0,0,0,0,5.81,11.08,11.08,0,0,0,11,9.4q23.72-.07,47.42-.09c1,0,2.08,0,2.52,0-.58-5.21-1.12-10.06-1.68-15.12Zm101.88-49.1c0-3.61.34-7-.08-10.27-.47-3.63-3.77-5.9-7.48-5.88s-7,2.51-7.39,6A100.31,100.31,0,0,0,99,41.07Z"/><path class="cls-2" d="M74.55,59.35a38.07,38.07,0,0,1,7.09.13c1,.19,1.83,1.87,2.73,2.88-.86,1-1.69,2.69-2.59,2.74a140.29,140.29,0,0,1-15.07,0c-.83,0-2.22-1.9-2.2-2.91a3.72,3.72,0,0,1,2.37-2.7A51.61,51.61,0,0,1,74.55,59.35Z"/><path class="cls-2" d="M74.36,70.91h6.83c1.72,0,3.08.68,3.14,2.84a2.73,2.73,0,0,1-2.93,3.11c-4.74.05-9.48.06-14.22,0-1.74,0-3.19-1.11-2.72-3.15A4.24,4.24,0,0,1,67.27,71,40.89,40.89,0,0,1,74.36,70.91Z"/><path class="cls-3" d="M50,55.11c1.49-1.57,2.68-3.26,4.27-4.34a4.35,4.35,0,0,1,3.81-.37c1.59.93,1.44,2.67.16,4.07-2,2.19-4,4.39-6.08,6.49-1.53,1.55-3.15,1.44-4.64-.17-.87-.94-1.74-1.89-2.63-2.82-1.25-1.3-1.73-2.76-.39-4.2s3-1.05,4.38.3C49.16,54.34,49.45,54.61,50,55.11Z"/><path class="cls-3" d="M50.09,70.37c1.45-1.57,2.61-3.29,4.2-4.36.94-.63,3.08-.79,3.76-.17a3.84,3.84,0,0,1,.26,3.76,55.58,55.58,0,0,1-6.43,7c-.59.57-2.22,1-2.63.64a39,39,0,0,1-5.36-5.69c-.31-.42.45-2.1,1.14-2.69a3.46,3.46,0,0,1,2.69-.16A9.3,9.3,0,0,1,50.09,70.37Z"/><path class="cls-3" d="M50.05,39.78c1.44-1.52,2.61-3.23,4.21-4.3a4.35,4.35,0,0,1,3.86-.33c1.6,1,1.35,2.69.05,4.09-2,2.11-3.89,4.25-5.89,6.32-1.5,1.54-3.1,1.63-4.65,0-.89-.93-1.76-1.89-2.67-2.81-1.38-1.39-1.85-2.95-.31-4.41s2.89-.89,4.19.41C49.17,39.1,49.57,39.38,50.05,39.78Z"/><path class="cls-2" d="M87.07,44.59a10.64,10.64,0,1,1-21.27,0c0-.15,0-.3,0-.45a10.63,10.63,0,0,1,21.26.45Z"/></g><rect class="cls-3" x="72.58" y="39.06" width="3.39" height="11.06" rx="0.83" ry="0.83"/><rect class="cls-3" x="76.99" y="44.59" width="3.39" height="5.53" rx="0.7" ry="0.7"/></svg>