<svg xmlns="http://www.w3.org/2000/svg" viewBox="0 0 140.46 39.99"><defs><style>.cls-1{font-size:24.89px;font-family:Montserrat-Bold, Montserrat;}.cls-1,.cls-5,.cls-6{fill:#2a3b47;}.cls-1,.cls-5{font-weight:700;}.cls-2,.cls-3{fill:#08d5a9;}.cls-2{letter-spacing:-0.01em;}.cls-4{fill:#00bfec;}.cls-5{font-size:13.28px;font-family:Montserrat-SemiBold, Montserrat;}</style></defs><title>Recurso 15</title><g id="Capa_2" data-name="Capa 2"><g id="Capa_1-2" data-name="Capa 1"><text class="cls-1" transform="translate(43.85 23.15) scale(0.92 1)">HBI<tspan class="cls-2" x="45.29" y="0">C</tspan><tspan class="cls-3" x="62.22" y="0">OM</tspan></text><path class="cls-4" d="M33.58,15.3c-.81-3-3.36-4.85-6.82-5-1,0-2,0-3.06,0h-.35c0-.22,0-.44,0-.65A23.21,23.21,0,0,0,23.29,6C22.8,2.18,20-.25,16.42,0s-5.83,3-5.84,6.88c0,1,0,2,0,3.06v.38H9.65c-.36,0-.72,0-1.09,0a18.52,18.52,0,0,0-2.95.2A6.41,6.41,0,0,0,0,17.37C.38,21,2.93,23.2,6.69,23.23h3.8c0,.54,0,1.09,0,1.64,0,1,0,2,.08,3a6.22,6.22,0,0,0,6.21,5.91,6.09,6.09,0,0,0,1.78-.26c3.11-.91,4.7-3.13,4.86-6.81,0-1,0-2,0-3v-.46h.64c1.27,0,2.48,0,3.7,0a6.25,6.25,0,0,0,4.78-2.52A6.32,6.32,0,0,0,33.58,15.3ZM10.49,19.92c-2.18,0-3.82.12-5.42-.61a2.55,2.55,0,0,1-1.38-2.78A2.79,2.79,0,0,1,6.3,14.06,17.56,17.56,0,0,1,8.24,14h.67c.52,0,1.05,0,1.57,0h0ZM14,8.56V8A10.4,10.4,0,0,1,14.13,6a2.76,2.76,0,0,1,2.76-2.3H17A2.6,2.6,0,0,1,19.67,6a24.2,24.2,0,0,1,.07,3.64c0,.24,0,.49,0,.74H14C14,9.74,14,9.14,14,8.56Zm15.76,9.87A3.08,3.08,0,0,1,27,19.82H19.84v.31h0v3.09h0c0,1,0,2,0,2.95a8.1,8.1,0,0,1-.24,2,2.61,2.61,0,0,1-2.48,2,2.69,2.69,0,0,1-2.67-1.71,5.92,5.92,0,0,1-.44-2c-.06-3.41-.07-6.22,0-8.85.06-2.45,1.23-3.6,3.68-3.62l1.56,0,3.57,0c1.42,0,2.84,0,4.25.07a3.27,3.27,0,0,1,2.84,1.63A2.73,2.73,0,0,1,29.73,18.43Z"/><text class="cls-5" transform="translate(107.69 36.01)">2021</text><rect class="cls-6" x="45.52" y="30.93" width="58" height="1.61"/></g></g></svg>